SplineFontDB: 3.0
FontName: AGLRYspace
FullName: AGLRY Space
FamilyName: AGLRY Space
Weight: Regular
Copyright: Copyright (c) 2016, Aydi Rainkarnichi (https://github.com/rainkarnichi), with Reserved Font Name AGLRY.
Version: 1.0
ItalicAngle: 0
UnderlinePosition: 0
UnderlineWidth: 0
Ascent: 806
Descent: 202
InvalidEm: 0
LayerCount: 2
Layer: 0 0 "Back" 1
Layer: 1 0 "Fore" 0
XUID: [1021 878 1981670163 14160]
OS2Version: 0
OS2_WeightWidthSlopeOnly: 0
OS2_UseTypoMetrics: 0
CreationTime: 1457263076
ModificationTime: 1457266063
PfmFamily: 17
TTFWeight: 400
TTFWidth: 5
LineGap: 91
VLineGap: 91
OS2TypoAscent: 0
OS2TypoAOffset: 1
OS2TypoDescent: 0
OS2TypoDOffset: 1
OS2TypoLinegap: 91
OS2WinAscent: 0
OS2WinAOffset: 1
OS2WinDescent: 0
OS2WinDOffset: 1
HheadAscent: 0
HheadAOffset: 1
HheadDescent: 0
HheadDOffset: 1
OS2Vendor: 'PfEd'
MarkAttachClasses: 1
DEI: 91125

StartChar: a
Encoding: 97 97 0
Width: 1092
VWidth: 1056
Flags: HW
LayerCount: 2
Fore
SplineSet
0 806 m 1
 48 806 l 1
 96 806 l 1
 144 806 l 1
 192 806 l 1
 240 806 l 1
 288 806 l 1
 336 806 l 1
 336 758 l 1
 336 710 l 1
 336 662 l 1
 336 633.0625 l 1
 320.196289062 628.588867188 304.194335938 623.458984375 288 617.68359375 c 1
 288 662 l 1
 288 710 l 1
 288 758 l 1
 240 758 l 1
 192 758 l 1
 144 758 l 1
 96 758 l 1
 48 758 l 1
 48 710 l 1
 48 662 l 1
 48 614 l 1
 48 566 l 1
 48 518 l 1
 96 518 l 1
 144 518 l 1
 192 518 l 1
 240 518 l 1
 267.73828125 518 l 1
 267.73828125 507.4453125 l 1
 289.88671875 519.57421875 312.643554688 529.704101562 336 537.86328125 c 1
 336 518 l 1
 336 470 l 1
 288 470 l 1
 240 470 l 1
 192 470 l 1
 144 470 l 1
 96 470 l 1
 48 470 l 1
 0 470 l 1
 0 518 l 1
 0 566 l 1
 0 614 l 1
 0 662 l 1
 0 710 l 1
 0 758 l 1
 0 806 l 1
384 806 m 1
 432 806 l 1
 480 806 l 1
 528 806 l 1
 528 758 l 1
 528 710 l 1
 576 710 l 1
 576 758 l 1
 576 806 l 1
 624 806 l 1
 624 758 l 1
 624 710 l 1
 624 662 l 1
 576 662 l 1
 576 651.03515625 l 1
 560.817382812 653.673828125 544.813476562 655.470703125 528 656.439453125 c 1
 528 662 l 1
 480 662 l 1
 480 710 l 1
 480 758 l 1
 432 758 l 1
 432 710 l 1
 384 710 l 1
 384 758 l 1
 384 806 l 1
480 662 m 1
 480 656.9609375 l 1
 449.42578125 655.854492188 418.15234375 651.9453125 386.171875 645.212890625 c 0
 385.44921875 645.068359375 384.723632812 644.913085938 384 644.765625 c 2
 384 662 l 1
 432 662 l 1
 480 662 l 1
672 806 m 1
 720 806 l 1
 768 806 l 1
 816 806 l 1
 864 806 l 1
 912 806 l 1
 960 806 l 1
 1008 806 l 1
 1008 758 l 1
 1008 710 l 1
 1008 662 l 1
 1008 614 l 1
 1008 566 l 1
 1008 518 l 1
 1008 470 l 1
 960 470 l 1
 912 470 l 1
 864 470 l 1
 816 470 l 1
 776.095703125 470 l 1
 771.595703125 487.203125 765.98046875 503.197265625 759.265625 518 c 1
 768 518 l 1
 816 518 l 1
 864 518 l 1
 912 518 l 1
 960 518 l 1
 960 566 l 1
 960 614 l 1
 960 662 l 1
 960 710 l 1
 960 758 l 1
 912 758 l 1
 864 758 l 1
 816 758 l 1
 768 758 l 1
 720 758 l 1
 720 710 l 1
 720 662 l 1
 720 614 l 1
 720 578.265625 l 2
 719.107421875 579.239257812 718.208984375 580.20703125 717.298828125 581.162109375 c 0
 704.05859375 595.063476562 688.95703125 607.05859375 672 617.15234375 c 1
 672 662 l 1
 672 710 l 1
 672 758 l 1
 672 806 l 1
96 710 m 1
 144 710 l 1
 192 710 l 1
 240 710 l 1
 240 662 l 1
 240 614 l 1
 240 566 l 1
 192 566 l 1
 144 566 l 1
 96 566 l 1
 96 614 l 1
 96 662 l 1
 96 710 l 1
768 710 m 1
 816 710 l 1
 864 710 l 1
 912 710 l 1
 912 662 l 1
 912 614 l 1
 912 566 l 1
 864 566 l 1
 816 566 l 1
 768 566 l 1
 768 614 l 1
 768 662 l 1
 768 710 l 1
528 560.576171875 m 1
 567.127929688 555.680664062 599.12890625 543.450195312 624 523.87890625 c 1
 624 518 l 1
 624 470 l 1
 624 422 l 1
 624 391.427734375 l 1
 528 391.427734375 l 1
 528 422 l 1
 528 470 l 1
 576 470 l 1
 576 518 l 1
 528 518 l 1
 528 560.576171875 l 1
528 470 m 1
 480 470 l 1
 480 518 l 1
 528 518 l 1
 528 470 l 1
480 470 m 1
 480 422 l 1
 480 390.17578125 l 1
 463.198242188 389.163085938 447.19921875 387.528320312 432 385.275390625 c 1
 432 422 l 1
 384 422 l 1
 384 470 l 1
 384 518 l 1
 432 518 l 1
 432 470 l 1
 480 470 l 1
384 422 m 1
 384 375.392578125 l 2
 382.333007812 374.940429688 380.686523438 374.471679688 379.044921875 374 c 2
 336 374 l 1
 288 374 l 1
 240 374 l 1
 240 422 l 1
 288 422 l 1
 336 422 l 1
 384 422 l 1
0 422 m 1
 48 422 l 1
 48 374 l 1
 0 374 l 1
 0 422 l 1
48 374 m 1
 96 374 l 1
 96 422 l 1
 144 422 l 1
 192 422 l 1
 192 374 l 1
 192 326 l 1
 240 326 l 1
 240 278 l 1
 245.603515625 278 l 1
 230.173828125 250.807617188 221.248046875 218.8125 218.8515625 182 c 1
 192 182 l 1
 144 182 l 1
 144 230 l 1
 144 278 l 1
 144 326 l 1
 96 326 l 1
 96 278 l 1
 96 230 l 1
 96 182 l 1
 48 182 l 1
 48 230 l 1
 48 278 l 1
 48 326 l 1
 48 374 l 1
672 422 m 1
 677.728515625 422 l 1
 678.321289062 415.637695312 678.626953125 409.076171875 678.626953125 402.3046875 c 2
 678.626953125 391.427734375 l 1
 672 391.427734375 l 1
 672 422 l 1
816 422 m 1
 864 422 l 1
 864 374 l 1
 864 326 l 1
 912 326 l 1
 912 278 l 1
 912 230 l 1
 912 182 l 1
 864 182 l 1
 864 230 l 1
 816 230 l 1
 789.80859375 230 l 1
 789.80859375 278 l 1
 816 278 l 1
 816 326 l 1
 816 374 l 1
 816 422 l 1
864 182 m 1
 864 134 l 1
 864 86 l 1
 816 86 l 1
 816 134 l 1
 816 182 l 1
 864 182 l 1
864 86 m 1
 912 86 l 1
 960 86 l 1
 960 38 l 1
 912 38 l 1
 864 38 l 1
 864 86 l 1
960 38 m 1
 1008 38 l 1
 1008 -10 l 1
 960 -10 l 1
 960 38 l 1
960 -10 m 1
 960 -58 l 1
 912 -58 l 1
 864 -58 l 1
 816 -58 l 1
 768 -58 l 1
 768 -106 l 1
 768 -154 l 1
 720 -154 l 1
 720 -106 l 1
 672 -106 l 1
 672 -58 l 1
 672 -10 l 1
 624 -10 l 1
 607.43359375 -10 l 1
 626.166015625 2.9716796875 643.126953125 18.970703125 658.31640625 38 c 1
 672 38 l 1
 678.626953125 38 l 1
 678.626953125 -35.775390625 l 1
 789.80859375 -35.775390625 l 1
 789.80859375 86 l 1
 816 86 l 1
 816 38 l 1
 816 -10 l 1
 864 -10 l 1
 912 -10 l 1
 960 -10 l 1
768 -154 m 1
 816 -154 l 1
 816 -202 l 1
 768 -202 l 1
 768 -154 l 1
672 -106 m 1
 672 -154 l 1
 672 -202 l 1
 624 -202 l 1
 624 -154 l 1
 624 -106 l 1
 672 -106 l 1
624 -106 m 1
 576 -106 l 1
 576 -58 l 1
 624 -58 l 1
 624 -106 l 1
576 -58 m 1
 528 -58 l 1
 528 -106 l 1
 528 -154 l 1
 480 -154 l 1
 480 -106 l 1
 432 -106 l 1
 384 -106 l 1
 384 -58 l 1
 384 -47.640625 l 1
 402.88671875 -51.4111328125 423.147460938 -53.296875 444.783203125 -53.296875 c 0
 495.881835938 -53.296875 539.620117188 -44.8837890625 576 -28.0625 c 1
 576 -58 l 1
480 -154 m 1
 480 -202 l 1
 432 -202 l 1
 384 -202 l 1
 384 -154 l 1
 432 -154 l 1
 480 -154 l 1
912 422 m 1
 960 422 l 1
 1008 422 l 1
 1008 374 l 1
 960 374 l 1
 912 374 l 1
 912 422 l 1
960 326 m 1
 1008 326 l 1
 1008 278 l 1
 960 278 l 1
 960 326 l 1
568.05078125 304.416015625 m 2
 576 304.416015625 l 1
 576 278 l 1
 576 230 l 1
 528 230 l 1
 528 182 l 1
 480 182 l 1
 480 134 l 1
 432 134 l 1
 432 86 l 1
 480 86 l 1
 480 39.818359375 l 2
 478.141601562 39.7783203125 476.2734375 39.755859375 474.392578125 39.755859375 c 0
 438.186523438 39.755859375 408.056640625 47.287109375 384 62.341796875 c 1
 384 86 l 1
 384 134 l 1
 384 182 l 1
 432 182 l 1
 432 230 l 1
 480 230 l 1
 480 278 l 1
 480 300.228515625 l 1
 505.607421875 303.017578125 534.94921875 304.416015625 568.05078125 304.416015625 c 2
576 230 m 1
 624 230 l 1
 624 182 l 1
 576 182 l 1
 576 230 l 1
576 182 m 1
 576 134 l 1
 624 134 l 1
 624 106.900390625 l 2
 623.4765625 106.272460938 622.963867188 105.637695312 622.43359375 105.015625 c 0
 616.569335938 98.1318359375 610.393554688 91.794921875 603.9140625 86 c 1
 576 86 l 1
 528 86 l 1
 528 134 l 1
 528 182 l 1
 576 182 l 1
432 230 m 1
 384 230 l 1
 384 275.1171875 l 1
 396.618164062 282.133789062 412.610351562 287.892578125 432 292.388671875 c 1
 432 278 l 1
 432 230 l 1
672 278 m 1
 678.61328125 278 l 1
 678.546875 261.229492188 677.47265625 245.231445312 675.390625 230 c 1
 672 230 l 1
 672 278 l 1
336 215.947265625 m 2
 336 182 l 1
 329.828125 182 l 1
 330.681640625 194.322265625 332.748046875 205.6328125 336 215.947265625 c 2
0 134 m 1
 48 134 l 1
 96 134 l 1
 144 134 l 1
 192 134 l 1
 219.455078125 134 l 1
 221.064453125 117 224.229492188 101 228.947265625 86 c 1
 192 86 l 1
 144 86 l 1
 96 86 l 1
 48 86 l 1
 48 38 l 1
 48 -10 l 1
 48 -58 l 1
 48 -106 l 1
 48 -154 l 1
 96 -154 l 1
 144 -154 l 1
 192 -154 l 1
 240 -154 l 1
 288 -154 l 1
 288 -106 l 1
 288 -58 l 1
 288 -10 l 1
 288 -3.064453125 l 1
 302.419921875 -15.1181640625 318.416015625 -25.0087890625 336 -32.72265625 c 1
 336 -58 l 1
 336 -106 l 1
 336 -154 l 1
 336 -202 l 1
 288 -202 l 1
 240 -202 l 1
 192 -202 l 1
 144 -202 l 1
 96 -202 l 1
 48 -202 l 1
 0 -202 l 1
 0 -154 l 1
 0 -106 l 1
 0 -58 l 1
 0 -10 l 1
 0 38 l 1
 0 86 l 1
 0 134 l 1
333.107421875 134 m 2
 336 134 l 1
 336 123.59765625 l 2
 334.900390625 126.98046875 333.93359375 130.446289062 333.107421875 134 c 2
96 38 m 1
 144 38 l 1
 192 38 l 1
 240 38 l 1
 240 -10 l 1
 240 -58 l 1
 240 -106 l 1
 192 -106 l 1
 144 -106 l 1
 96 -106 l 1
 96 -58 l 1
 96 -10 l 1
 96 38 l 1
864 -106 m 1
 912 -106 l 1
 912 -154 l 1
 864 -154 l 1
 864 -106 l 1
960 -106 m 1
 1008 -106 l 1
 1008 -154 l 1
 960 -154 l 1
 960 -106 l 1
EndSplineSet
EndChar

StartChar: b
Encoding: 98 98 1
Width: 1092
VWidth: 1056
Flags: HW
LayerCount: 2
Fore
SplineSet
0 806 m 1
 48 806 l 1
 96 806 l 1
 144 806 l 1
 192 806 l 1
 240 806 l 1
 288 806 l 1
 336 806 l 1
 336 758 l 1
 336 710 l 1
 336 662 l 1
 336 614 l 1
 336 566 l 1
 336 518 l 1
 336 470 l 1
 313.05859375 470 l 1
 313.05859375 772.8671875 l 1
 201.271484375 772.8671875 l 1
 201.271484375 758 l 1
 192 758 l 1
 144 758 l 1
 96 758 l 1
 48 758 l 1
 48 710 l 1
 48 662 l 1
 48 614 l 1
 48 566 l 1
 48 518 l 1
 96 518 l 1
 144 518 l 1
 192 518 l 1
 201.271484375 518 l 1
 201.271484375 470 l 1
 192 470 l 1
 144 470 l 1
 96 470 l 1
 48 470 l 1
 0 470 l 1
 0 518 l 1
 0 566 l 1
 0 614 l 1
 0 662 l 1
 0 710 l 1
 0 758 l 1
 0 806 l 1
384 806 m 1
 432 806 l 1
 432 758 l 1
 384 758 l 1
 384 806 l 1
480 806 m 1
 528 806 l 1
 528 758 l 1
 480 758 l 1
 480 806 l 1
672 806 m 1
 720 806 l 1
 768 806 l 1
 816 806 l 1
 864 806 l 1
 912 806 l 1
 960 806 l 1
 1008 806 l 1
 1008 758 l 1
 1008 710 l 1
 1008 662 l 1
 1008 614 l 1
 1008 566 l 1
 1008 518 l 1
 1008 470 l 1
 960 470 l 1
 912 470 l 1
 864 470 l 1
 816 470 l 1
 768 470 l 1
 720 470 l 1
 688.900390625 470 l 1
 683.40234375 474.60546875 677.76953125 478.924804688 672 482.958984375 c 1
 672 518 l 1
 672 566 l 1
 672 614 l 1
 672 662 l 1
 672 710 l 1
 672 758 l 1
 672 806 l 1
576 758 m 1
 624 758 l 1
 624 710 l 1
 576 710 l 1
 576 758 l 1
720 758 m 1
 720 710 l 1
 720 662 l 1
 720 614 l 1
 720 566 l 1
 720 518 l 1
 768 518 l 1
 816 518 l 1
 864 518 l 1
 912 518 l 1
 960 518 l 1
 960 566 l 1
 960 614 l 1
 960 662 l 1
 960 710 l 1
 960 758 l 1
 912 758 l 1
 864 758 l 1
 816 758 l 1
 768 758 l 1
 720 758 l 1
96 710 m 1
 144 710 l 1
 192 710 l 1
 201.271484375 710 l 1
 201.271484375 566 l 1
 192 566 l 1
 144 566 l 1
 96 566 l 1
 96 614 l 1
 96 662 l 1
 96 710 l 1
432 710 m 1
 480 710 l 1
 480 662 l 1
 432 662 l 1
 432 710 l 1
432 662 m 1
 432 614 l 1
 432 566 l 1
 432 518 l 1
 432 510.009765625 l 1
 421.255859375 506.10546875 411.01171875 501.48046875 401.27734375 496.12109375 c 0
 395.34765625 492.88671875 389.591796875 489.353515625 384 485.533203125 c 1
 384 518 l 1
 384 566 l 1
 384 614 l 1
 384 662 l 1
 432 662 l 1
768 710 m 1
 816 710 l 1
 864 710 l 1
 912 710 l 1
 912 662 l 1
 912 614 l 1
 912 566 l 1
 864 566 l 1
 816 566 l 1
 768 566 l 1
 768 614 l 1
 768 662 l 1
 768 710 l 1
528 662 m 1
 576 662 l 1
 624 662 l 1
 624 614 l 1
 624 566 l 1
 576 566 l 1
 576 614 l 1
 528 614 l 1
 528 662 l 1
576 566 m 1
 576 521.947265625 l 1
 561.056640625 524.46484375 545.518554688 525.728515625 529.37890625 525.728515625 c 0
 512.083984375 525.728515625 495.625976562 524.522460938 480 522.1171875 c 1
 480 566 l 1
 528 566 l 1
 576 566 l 1
594.978515625 518 m 2
 624 518 l 1
 624 508.736328125 l 1
 614.610351562 512.421875 604.938476562 515.513671875 594.978515625 518 c 2
528 431.060546875 m 1
 545.249023438 428.842773438 561.25 424.328125 576 417.509765625 c 1
 576 374 l 1
 624 374 l 1
 624 326 l 1
 576 326 l 1
 576 278 l 1
 528 278 l 1
 528 326 l 1
 528 374 l 1
 480 374 l 1
 432 374 l 1
 432 326 l 1
 384 326 l 1
 384 374 l 1
 372.134765625 374 l 1
 391.012695312 396.438476562 413.333007812 412.435546875 439.091796875 422 c 1
 480 422 l 1
 528 422 l 1
 528 431.060546875 l 1
624 374 m 1
 624 382.728515625 l 2
 626.643554688 379.939453125 629.217773438 377.022460938 631.734375 374 c 2
 624 374 l 1
528 278 m 1
 528 230 l 1
 528 182 l 1
 480 182 l 1
 480 230 l 1
 432 230 l 1
 384 230 l 1
 384 182 l 1
 336 182 l 1
 313.18359375 182 l 1
 313.517578125 198.776367188 314.581054688 214.779296875 316.3828125 230 c 1
 336 230 l 1
 336 278 l 1
 325.14453125 278 l 1
 329.547851562 295.27734375 335.154296875 311.276367188 341.96484375 326 c 1
 384 326 l 1
 384 278 l 1
 432 278 l 1
 480 278 l 1
 528 278 l 1
384 182 m 1
 432 182 l 1
 432 134 l 1
 432 86 l 1
 384 86 l 1
 384 134 l 1
 384 182 l 1
0 422 m 1
 48 422 l 1
 48 374 l 1
 0 374 l 1
 0 422 l 1
192 422 m 1
 201.271484375 422 l 1
 201.271484375 326 l 1
 192 326 l 1
 192 374 l 1
 192 422 l 1
313.05859375 422 m 1
 322.56640625 422 l 1
 319.29296875 417.076171875 316.124023438 411.975585938 313.05859375 406.69140625 c 2
 313.05859375 422 l 1
733.8828125 422 m 1
 768 422 l 1
 816 422 l 1
 864 422 l 1
 864 374 l 1
 864 326 l 1
 912 326 l 1
 912 278 l 1
 912 230 l 1
 960 230 l 1
 960 278 l 1
 1008 278 l 1
 1008 230 l 1
 1008 182 l 1
 960 182 l 1
 960 134 l 1
 960 86 l 1
 960 38 l 1
 1008 38 l 1
 1008 -10 l 1
 1008 -58 l 1
 960 -58 l 1
 912 -58 l 1
 912 -10 l 1
 864 -10 l 1
 864 -58 l 1
 912 -58 l 1
 912 -106 l 1
 912 -154 l 1
 912 -202 l 1
 864 -202 l 1
 864 -154 l 1
 864 -106 l 1
 816 -106 l 1
 816 -154 l 1
 768 -154 l 1
 768 -106 l 1
 720 -106 l 1
 720 -154 l 1
 720 -202 l 1
 672 -202 l 1
 624 -202 l 1
 576 -202 l 1
 576 -181.0859375 l 1
 637.142578125 -170.786132812 688.2734375 -139.419921875 729.384765625 -86.978515625 c 0
 744.46875 -67.8876953125 757.329101562 -47.025390625 768 -24.41796875 c 1
 768 -58 l 1
 816 -58 l 1
 816 -10 l 1
 774.408203125 -10 l 1
 780.776367188 5.25 786.202148438 21.25 790.6875 38 c 1
 816 38 l 1
 816 86 l 1
 864 86 l 1
 864 38 l 1
 912 38 l 1
 912 86 l 1
 912 134 l 1
 864 134 l 1
 864 182 l 1
 864 230 l 1
 864 278 l 1
 816 278 l 1
 816 230 l 1
 803.8046875 230 l 1
 800.29296875 264.533203125 793.59765625 296.529296875 783.732421875 326 c 1
 816 326 l 1
 816 374 l 1
 768 374 l 1
 768 365.28125 l 1
 758.40625 385.60546875 747.04296875 404.517578125 733.8828125 422 c 1
912 326 m 1
 912 374 l 1
 960 374 l 1
 960 422 l 1
 1008 422 l 1
 1008 374 l 1
 1008 326 l 1
 960 326 l 1
 912 326 l 1
96 374 m 1
 144 374 l 1
 144 326 l 1
 96 326 l 1
 96 374 l 1
96 326 m 1
 96 278 l 1
 48 278 l 1
 48 326 l 1
 96 326 l 1
672 301.501953125 m 1
 684.872070312 264.55078125 691.31640625 220.8671875 691.31640625 170.431640625 c 0
 691.31640625 157.873046875 690.915039062 145.731445312 690.1171875 134 c 1
 672 134 l 1
 672 86 l 1
 624 86 l 1
 624 38 l 1
 576 38 l 1
 576 -10 l 1
 624 -10 l 1
 624 -42.294921875 l 1
 618.513671875 -48.033203125 612.748046875 -53.259765625 606.71484375 -58 c 1
 576 -58 l 1
 576 -76.77734375 l 1
 561.25 -83.5361328125 545.249023438 -88.0146484375 528 -90.212890625 c 1
 528 -58 l 1
 528 -10 l 1
 480 -10 l 1
 432 -10 l 1
 384 -10 l 1
 384 38 l 1
 432 38 l 1
 480 38 l 1
 480 86 l 1
 528 86 l 1
 576 86 l 1
 576 134 l 1
 576 182 l 1
 576 230 l 1
 624 230 l 1
 624 278 l 1
 672 278 l 1
 672 301.501953125 l 1
192 278 m 1
 201.271484375 278 l 1
 201.271484375 230 l 1
 192 230 l 1
 192 278 l 1
48 230 m 1
 96 230 l 1
 144 230 l 1
 144 182 l 1
 96 182 l 1
 48 182 l 1
 48 230 l 1
0 134 m 1
 48 134 l 1
 96 134 l 1
 144 134 l 1
 192 134 l 1
 201.271484375 134 l 1
 201.271484375 86 l 1
 192 86 l 1
 144 86 l 1
 96 86 l 1
 48 86 l 1
 48 38 l 1
 48 -10 l 1
 48 -58 l 1
 48 -106 l 1
 48 -154 l 1
 96 -154 l 1
 144 -154 l 1
 192 -154 l 1
 201.271484375 -154 l 1
 201.271484375 -167.34375 l 1
 313.05859375 -167.34375 l 1
 313.05859375 -65.830078125 l 1
 320.1484375 -78.0537109375 327.797851562 -89.32421875 336 -99.65625 c 1
 336 -106 l 1
 336 -154 l 1
 336 -202 l 1
 288 -202 l 1
 240 -202 l 1
 192 -202 l 1
 144 -202 l 1
 96 -202 l 1
 48 -202 l 1
 0 -202 l 1
 0 -154 l 1
 0 -106 l 1
 0 -58 l 1
 0 -10 l 1
 0 38 l 1
 0 86 l 1
 0 134 l 1
314.244140625 134 m 1
 336 134 l 1
 336 86 l 1
 336 38 l 1
 336 28.591796875 l 1
 324.184570312 58.9443359375 316.927734375 94.0751953125 314.244140625 134 c 1
96 38 m 1
 144 38 l 1
 192 38 l 1
 201.271484375 38 l 1
 201.271484375 -106 l 1
 192 -106 l 1
 144 -106 l 1
 96 -106 l 1
 96 -58 l 1
 96 -10 l 1
 96 38 l 1
432 -58 m 1
 480 -58 l 1
 480 -90.642578125 l 1
 462.805664062 -88.7890625 446.8046875 -84.7236328125 432 -78.4375 c 1
 432 -58 l 1
384 -154 m 1
 398.00390625 -154 l 2
 399.08984375 -154.630859375 400.1796875 -155.251953125 401.27734375 -155.86328125 c 0
 424.615234375 -168.450195312 450.858398438 -176.934570312 480 -181.328125 c 1
 480 -202 l 1
 432 -202 l 1
 384 -202 l 1
 384 -154 l 1
960 -154 m 1
 1008 -154 l 1
 1008 -202 l 1
 960 -202 l 1
 960 -154 l 1
EndSplineSet
EndChar

StartChar: c
Encoding: 99 99 2
Width: 1092
VWidth: 1056
Flags: HW
LayerCount: 2
Fore
SplineSet
0 806 m 1
 48 806 l 1
 96 806 l 1
 144 806 l 1
 192 806 l 1
 240 806 l 1
 288 806 l 1
 336 806 l 1
 336 758 l 1
 336 710 l 1
 336 662 l 1
 336 614 l 1
 336 580.556640625 l 1
 329.426757812 574.833007812 323.076171875 568.795898438 316.955078125 562.431640625 c 0
 306.375976562 551.358398438 296.7265625 539.560546875 288 527.04296875 c 1
 288 566 l 1
 288 614 l 1
 288 662 l 1
 288 710 l 1
 288 758 l 1
 240 758 l 1
 192 758 l 1
 144 758 l 1
 96 758 l 1
 48 758 l 1
 48 710 l 1
 48 662 l 1
 48 614 l 1
 48 566 l 1
 48 518 l 1
 96 518 l 1
 144 518 l 1
 192 518 l 1
 240 518 l 1
 281.935546875 518 l 1
 272.259765625 502.984375 263.845703125 486.985351562 256.6953125 470 c 1
 240 470 l 1
 192 470 l 1
 144 470 l 1
 96 470 l 1
 48 470 l 1
 0 470 l 1
 0 518 l 1
 0 566 l 1
 0 614 l 1
 0 662 l 1
 0 710 l 1
 0 758 l 1
 0 806 l 1
384 806 m 1
 432 806 l 1
 432 758 l 1
 384 758 l 1
 384 806 l 1
432 758 m 1
 480 758 l 1
 480 710 l 1
 528 710 l 1
 576 710 l 1
 576 662 l 1
 528 662 l 1
 480 662 l 1
 480 649.248046875 l 1
 444.756835938 642.232421875 412.754882812 630.633789062 384 614.44140625 c 1
 384 662 l 1
 432 662 l 1
 432 710 l 1
 432 758 l 1
480 758 m 1
 480 806 l 1
 528 806 l 1
 576 806 l 1
 576 758 l 1
 528 758 l 1
 480 758 l 1
576 758 m 1
 624 758 l 1
 624 710 l 1
 576 710 l 1
 576 758 l 1
672 806 m 1
 720 806 l 1
 768 806 l 1
 816 806 l 1
 864 806 l 1
 912 806 l 1
 960 806 l 1
 1008 806 l 1
 1008 758 l 1
 1008 710 l 1
 1008 662 l 1
 1008 614 l 1
 1008 566 l 1
 1008 518 l 1
 1008 470 l 1
 960 470 l 1
 912 470 l 1
 864 470 l 1
 816 470 l 1
 768 470 l 1
 720 470 l 1
 672 470 l 1
 672 518 l 1
 672 548.318359375 l 1
 688.05078125 543.805664062 704.051757812 538.166992188 720 531.396484375 c 1
 720 518 l 1
 748.619140625 518 l 2
 752.9765625 515.771484375 757.33203125 513.46875 761.681640625 511.0703125 c 1
 761.681640625 518 l 1
 768 518 l 1
 816 518 l 1
 864 518 l 1
 912 518 l 1
 960 518 l 1
 960 566 l 1
 960 614 l 1
 960 662 l 1
 960 710 l 1
 960 758 l 1
 912 758 l 1
 864 758 l 1
 816 758 l 1
 768 758 l 1
 720 758 l 1
 720 710 l 1
 720 662 l 1
 720 631.736328125 l 1
 704.251953125 637.161132812 688.250976562 641.680664062 672 645.294921875 c 1
 672 662 l 1
 672 710 l 1
 672 758 l 1
 672 806 l 1
96 710 m 1
 144 710 l 1
 192 710 l 1
 240 710 l 1
 240 662 l 1
 240 614 l 1
 240 566 l 1
 192 566 l 1
 144 566 l 1
 96 566 l 1
 96 614 l 1
 96 662 l 1
 96 710 l 1
768 710 m 1
 816 710 l 1
 864 710 l 1
 912 710 l 1
 912 662 l 1
 912 614 l 1
 912 566 l 1
 864 566 l 1
 816 566 l 1
 768 566 l 1
 768 614 l 1
 768 662 l 1
 768 710 l 1
571.34375 563.03515625 m 0
 572.897460938 563.03515625 574.448242188 563.014648438 576 562.994140625 c 2
 576 518 l 1
 528 518 l 1
 528 559.974609375 l 1
 541.73828125 562.005859375 556.180664062 563.03515625 571.34375 563.03515625 c 0
576 518 m 1
 624 518 l 1
 624 470 l 1
 624 422 l 1
 576 422 l 1
 576 374 l 1
 624 374 l 1
 624 326 l 1
 576 326 l 1
 576 278 l 1
 528 278 l 1
 528 230 l 1
 528 182 l 1
 480 182 l 1
 480 230 l 1
 432 230 l 1
 432 278 l 1
 384 278 l 1
 384 326 l 1
 344.138671875 326 l 1
 345.932617188 361.819335938 351.840820312 393.817382812 361.853515625 422 c 1
 384 422 l 1
 384 468.111328125 l 1
 389.828125 477.373046875 396.275390625 486.059570312 403.36328125 494.150390625 c 0
 424.416992188 518.393554688 449.96484375 536.232421875 480 547.677734375 c 1
 480 518 l 1
 432 518 l 1
 432 470 l 1
 432 422 l 1
 432 374 l 1
 480 374 l 1
 480 326 l 1
 528 326 l 1
 528 374 l 1
 528 422 l 1
 528 470 l 1
 576 470 l 1
 576 518 l 1
624 422 m 1
 672 422 l 1
 720 422 l 1
 768 422 l 1
 816 422 l 1
 864 422 l 1
 864 374 l 1
 864 326 l 1
 912 326 l 1
 912 278 l 1
 960 278 l 1
 1008 278 l 1
 1008 230 l 1
 1008 182 l 1
 960 182 l 1
 960 134 l 1
 960 86 l 1
 960 38 l 1
 1008 38 l 1
 1008 -10 l 1
 1008 -58 l 1
 960 -58 l 1
 912 -58 l 1
 912 -10 l 1
 864 -10 l 1
 864 -58 l 1
 912 -58 l 1
 912 -106 l 1
 912 -154 l 1
 912 -202 l 1
 864 -202 l 1
 864 -154 l 1
 864 -106 l 1
 816 -106 l 1
 816 -154 l 1
 768 -154 l 1
 768 -106 l 1
 720 -106 l 1
 720 -154 l 1
 720 -202 l 1
 672 -202 l 1
 624 -202 l 1
 576 -202 l 1
 576 -154 l 1
 624 -154 l 1
 624 -106 l 1
 672 -106 l 1
 672 -58 l 1
 720 -58 l 1
 720 -26.83984375 l 1
 734.127929688 -21.859375 748.022460938 -16.1796875 761.681640625 -9.79296875 c 1
 761.681640625 86 l 1
 768 86 l 1
 768 38 l 1
 816 38 l 1
 816 86 l 1
 864 86 l 1
 864 38 l 1
 912 38 l 1
 912 86 l 1
 912 134 l 1
 864 134 l 1
 864 182 l 1
 864 230 l 1
 864 278 l 1
 816 278 l 1
 816 230 l 1
 768 230 l 1
 768 278 l 1
 720 278 l 1
 720 230 l 1
 720 182 l 1
 720 134 l 1
 672 134 l 1
 672 86 l 1
 624 86 l 1
 624 44.791015625 l 1
 606.568359375 42.2470703125 589.017578125 40.96484375 571.34375 40.96484375 c 0
 537.303710938 40.96484375 506.858398438 46.044921875 480 56.189453125 c 1
 480 86 l 1
 432 86 l 1
 427.546875 86 l 1
 418.916992188 92.9453125 410.85546875 100.692382812 403.36328125 109.244140625 c 0
 396.275390625 117.40625 389.828125 126.16015625 384 135.48046875 c 1
 384 182 l 1
 432 182 l 1
 432 134 l 1
 480 134 l 1
 528 134 l 1
 528 86 l 1
 576 86 l 1
 576 134 l 1
 576 182 l 1
 576 230 l 1
 624 230 l 1
 624 278 l 1
 672 278 l 1
 672 326 l 1
 720 326 l 1
 720 374 l 1
 672 374 l 1
 624 374 l 1
 624 422 l 1
912 326 m 1
 912 374 l 1
 960 374 l 1
 960 422 l 1
 1008 422 l 1
 1008 374 l 1
 1008 326 l 1
 960 326 l 1
 912 326 l 1
480 518 m 1
 528 518 l 1
 528 470 l 1
 480 470 l 1
 480 518 l 1
0 422 m 1
 48 422 l 1
 48 374 l 1
 0 374 l 1
 0 422 l 1
48 374 m 1
 96 374 l 1
 144 374 l 1
 144 326 l 1
 144 278 l 1
 144 230 l 1
 96 230 l 1
 48 230 l 1
 48 278 l 1
 48 326 l 1
 48 374 l 1
192 422 m 1
 240 422 l 1
 240 419.966796875 l 1
 232.610351562 390.984375 228.231445312 359.653320312 226.830078125 326 c 1
 192 326 l 1
 192 374 l 1
 192 422 l 1
768 374 m 1
 768 326 l 1
 816 326 l 1
 816 374 l 1
 768 374 l 1
192 278 m 1
 226.841796875 278 l 1
 228.254882812 244.787109375 232.62890625 213.77734375 240 185.001953125 c 1
 240 182 l 1
 192 182 l 1
 192 230 l 1
 192 278 l 1
0 134 m 1
 48 134 l 1
 96 134 l 1
 144 134 l 1
 192 134 l 1
 240 134 l 1
 257.16796875 134 l 1
 264.374023438 117.059570312 272.841796875 101.059570312 282.572265625 86 c 1
 240 86 l 1
 192 86 l 1
 144 86 l 1
 96 86 l 1
 48 86 l 1
 48 38 l 1
 48 -10 l 1
 48 -58 l 1
 48 -106 l 1
 48 -154 l 1
 96 -154 l 1
 144 -154 l 1
 192 -154 l 1
 240 -154 l 1
 288 -154 l 1
 288 -106 l 1
 288 -58 l 1
 288 -10 l 1
 288 38 l 1
 288 77.876953125 l 1
 296.559570312 65.513671875 306.009765625 53.8134765625 316.3515625 42.77734375 c 0
 322.66796875 36.0361328125 329.21875 29.654296875 336 23.623046875 c 1
 336 -10 l 1
 336 -58 l 1
 336 -106 l 1
 336 -154 l 1
 336 -202 l 1
 288 -202 l 1
 240 -202 l 1
 192 -202 l 1
 144 -202 l 1
 96 -202 l 1
 48 -202 l 1
 0 -202 l 1
 0 -154 l 1
 0 -106 l 1
 0 -58 l 1
 0 -10 l 1
 0 38 l 1
 0 86 l 1
 0 134 l 1
720 86 m 1
 748.64453125 86 l 1
 739.114257812 81.109375 729.567382812 76.6015625 720 72.486328125 c 1
 720 86 l 1
96 38 m 1
 144 38 l 1
 192 38 l 1
 240 38 l 1
 240 -10 l 1
 240 -58 l 1
 240 -106 l 1
 192 -106 l 1
 144 -106 l 1
 96 -106 l 1
 96 -58 l 1
 96 -10 l 1
 96 38 l 1
768 -10 m 1
 768 -58 l 1
 816 -58 l 1
 816 -10 l 1
 768 -10 l 1
432 -32.994140625 m 1
 469.995117188 -46.52734375 512.411132812 -53.296875 559.2578125 -53.296875 c 0
 581.630859375 -53.296875 603.208007812 -51.994140625 624 -49.408203125 c 1
 624 -58 l 1
 576 -58 l 1
 576 -106 l 1
 528 -106 l 1
 528 -58 l 1
 480 -58 l 1
 480 -106 l 1
 432 -106 l 1
 432 -58 l 1
 432 -32.994140625 l 1
528 -106 m 1
 528 -154 l 1
 480 -154 l 1
 480 -106 l 1
 528 -106 l 1
384 -154 m 1
 432 -154 l 1
 432 -202 l 1
 384 -202 l 1
 384 -154 l 1
960 -154 m 1
 1008 -154 l 1
 1008 -202 l 1
 960 -202 l 1
 960 -154 l 1
EndSplineSet
EndChar

StartChar: d
Encoding: 100 100 3
Width: 1092
VWidth: 1056
Flags: HW
LayerCount: 2
Fore
SplineSet
0 806 m 1
 48 806 l 1
 96 806 l 1
 144 806 l 1
 192 806 l 1
 240 806 l 1
 288 806 l 1
 336 806 l 1
 336 758 l 1
 336 710 l 1
 336 662 l 1
 336 614 l 1
 336 566 l 1
 336 518 l 1
 336 480.98046875 l 1
 331.053710938 477.529296875 326.204101562 473.869140625 321.451171875 470 c 2
 288 470 l 1
 240 470 l 1
 192 470 l 1
 144 470 l 1
 96 470 l 1
 48 470 l 1
 0 470 l 1
 0 518 l 1
 0 566 l 1
 0 614 l 1
 0 662 l 1
 0 710 l 1
 0 758 l 1
 0 806 l 1
384 806 m 1
 432 806 l 1
 480 806 l 1
 528 806 l 1
 528 758 l 1
 480 758 l 1
 480 710 l 1
 432 710 l 1
 432 758 l 1
 384 758 l 1
 384 806 l 1
528 758 m 1
 576 758 l 1
 576 710 l 1
 576 662 l 1
 528 662 l 1
 528 710 l 1
 528 758 l 1
528 662 m 1
 528 614 l 1
 480 614 l 1
 480 662 l 1
 528 662 l 1
672 806 m 1
 720 806 l 1
 768 806 l 1
 816 806 l 1
 864 806 l 1
 912 806 l 1
 960 806 l 1
 1008 806 l 1
 1008 758 l 1
 1008 710 l 1
 1008 662 l 1
 1008 614 l 1
 1008 566 l 1
 1008 518 l 1
 1008 470 l 1
 960 470 l 1
 912 470 l 1
 864 470 l 1
 816 470 l 1
 806.42578125 470 l 1
 806.42578125 518 l 1
 816 518 l 1
 864 518 l 1
 912 518 l 1
 960 518 l 1
 960 566 l 1
 960 614 l 1
 960 662 l 1
 960 710 l 1
 960 758 l 1
 912 758 l 1
 864 758 l 1
 816 758 l 1
 806.42578125 758 l 1
 806.42578125 770.8671875 l 1
 695.244140625 770.8671875 l 1
 695.244140625 470 l 1
 672 470 l 1
 672 518 l 1
 672 566 l 1
 672 614 l 1
 672 662 l 1
 672 710 l 1
 672 758 l 1
 672 806 l 1
48 758 m 1
 48 710 l 1
 48 662 l 1
 48 614 l 1
 48 566 l 1
 48 518 l 1
 96 518 l 1
 144 518 l 1
 192 518 l 1
 240 518 l 1
 288 518 l 1
 288 566 l 1
 288 614 l 1
 288 662 l 1
 288 710 l 1
 288 758 l 1
 240 758 l 1
 192 758 l 1
 144 758 l 1
 96 758 l 1
 48 758 l 1
96 710 m 1
 144 710 l 1
 192 710 l 1
 240 710 l 1
 240 662 l 1
 240 614 l 1
 240 566 l 1
 192 566 l 1
 144 566 l 1
 96 566 l 1
 96 614 l 1
 96 662 l 1
 96 710 l 1
806.42578125 710 m 1
 816 710 l 1
 864 710 l 1
 912 710 l 1
 912 662 l 1
 912 614 l 1
 912 566 l 1
 864 566 l 1
 816 566 l 1
 806.42578125 566 l 1
 806.42578125 710 l 1
384 662 m 1
 432 662 l 1
 432 614 l 1
 432 566 l 1
 480 566 l 1
 528 566 l 1
 576 566 l 1
 576 518 l 1
 540.01953125 518 l 2
 520.85546875 521.818359375 500.290039062 523.728515625 478.3203125 523.728515625 c 0
 444.258789062 523.728515625 412.819335938 518.0625 384 506.740234375 c 1
 384 518 l 1
 384 566 l 1
 384 614 l 1
 384 662 l 1
576 566 m 1
 576 614 l 1
 624 614 l 1
 624 566 l 1
 576 566 l 1
576 518 m 1
 624 518 l 1
 624 483.453125 l 1
 618.315429688 487.3046875 612.458984375 490.864257812 606.419921875 494.12109375 c 0
 596.814453125 499.469726562 586.670898438 504.086914062 576 507.986328125 c 1
 576 518 l 1
528 429.458984375 m 1
 545.196289062 427.561523438 561.198242188 423.426757812 576 417.048828125 c 1
 576 374 l 1
 624 374 l 1
 624 326 l 1
 576 326 l 1
 576 278 l 1
 528 278 l 1
 480 278 l 1
 432 278 l 1
 432 326 l 1
 480 326 l 1
 528 326 l 1
 528 374 l 1
 480 374 l 1
 432 374 l 1
 384 374 l 1
 384 326 l 1
 384 278 l 1
 336 278 l 1
 328.974609375 278 l 1
 337.333007812 309.939453125 349.850585938 337.467773438 366.533203125 360.58203125 c 0
 388.475585938 390.8828125 415.674804688 411.34765625 448.119140625 422 c 1
 480 422 l 1
 528 422 l 1
 528 429.458984375 l 1
624 374 m 1
 624 384.533203125 l 2
 627.383789062 381.205078125 630.666015625 377.688476562 633.857421875 374 c 2
 624 374 l 1
432 278 m 1
 432 230 l 1
 384 230 l 1
 384 278 l 1
 432 278 l 1
432 230 m 1
 480 230 l 1
 528 230 l 1
 528 182 l 1
 528 134 l 1
 528 86 l 1
 480 86 l 1
 480 134 l 1
 480 182 l 1
 432 182 l 1
 432 230 l 1
528 86 m 1
 576 86 l 1
 576 134 l 1
 576 182 l 1
 576 230 l 1
 624 230 l 1
 624 278 l 1
 672 278 l 1
 672 310.056640625 l 1
 687.48828125 270.95703125 695.244140625 223.756835938 695.244140625 168.431640625 c 0
 695.244140625 156.583007812 694.87890625 145.11328125 694.16796875 134 c 1
 672 134 l 1
 672 86 l 1
 624 86 l 1
 624 38 l 1
 576 38 l 1
 576 -10 l 1
 624 -10 l 1
 624 -48.068359375 l 2
 620.396484375 -51.5810546875 616.684570312 -54.8916015625 612.86328125 -58 c 2
 576 -58 l 1
 576 -80.3046875 l 1
 561.198242188 -86.626953125 545.196289062 -90.724609375 528 -92.60546875 c 1
 528 -58 l 1
 480 -58 l 1
 480 -10 l 1
 528 -10 l 1
 528 38 l 1
 528 86 l 1
480 -58 m 1
 480 -92.25 l 1
 462.779296875 -90.0869140625 446.779296875 -85.6591796875 432 -78.96875 c 1
 432 -58 l 1
 480 -58 l 1
480 -10 m 1
 432 -10 l 1
 384 -10 l 1
 384 38 l 1
 432 38 l 1
 480 38 l 1
 480 -10 l 1
432 182 m 1
 432 134 l 1
 432 86 l 1
 384 86 l 1
 384 134 l 1
 384 182 l 1
 432 182 l 1
384 182 m 1
 336 182 l 1
 316.544921875 182 l 1
 316.939453125 198.786132812 318.079101562 214.783203125 319.953125 230 c 1
 336 230 l 1
 384 230 l 1
 384 182 l 1
0 422 m 1
 48 422 l 1
 48 374 l 1
 0 374 l 1
 0 422 l 1
48 374 m 1
 96 374 l 1
 144 374 l 1
 192 374 l 1
 192 326 l 1
 144 326 l 1
 96 326 l 1
 96 278 l 1
 48 278 l 1
 48 326 l 1
 48 374 l 1
192 374 m 1
 192 422 l 1
 240 422 l 1
 240 374 l 1
 192 374 l 1
240 374 m 1
 245.240234375 374 l 2
 243.435546875 370.474609375 241.693359375 366.8984375 240 363.283203125 c 2
 240 374 l 1
684.37890625 422 m 1
 695.244140625 422 l 1
 695.244140625 404.69140625 l 2
 691.76171875 410.6953125 688.138671875 416.461914062 684.37890625 422 c 1
806.42578125 422 m 1
 816 422 l 1
 864 422 l 1
 864 374 l 1
 864 326 l 1
 912 326 l 1
 912 278 l 1
 912 230 l 1
 912 182 l 1
 960 182 l 1
 960 134 l 1
 960 86 l 1
 960 38 l 1
 1008 38 l 1
 1008 -10 l 1
 1008 -58 l 1
 960 -58 l 1
 912 -58 l 1
 912 -10 l 1
 864 -10 l 1
 864 -58 l 1
 912 -58 l 1
 912 -106 l 1
 912 -154 l 1
 912 -202 l 1
 864 -202 l 1
 864 -154 l 1
 864 -106 l 1
 816 -106 l 1
 816 -154 l 1
 806.42578125 -154 l 1
 806.42578125 -58 l 1
 816 -58 l 1
 816 -10 l 1
 806.42578125 -10 l 1
 806.42578125 38 l 1
 816 38 l 1
 816 86 l 1
 864 86 l 1
 864 38 l 1
 912 38 l 1
 912 86 l 1
 912 134 l 1
 864 134 l 1
 864 182 l 1
 864 230 l 1
 864 278 l 1
 816 278 l 1
 816 230 l 1
 806.42578125 230 l 1
 806.42578125 326 l 1
 816 326 l 1
 816 374 l 1
 806.42578125 374 l 1
 806.42578125 422 l 1
912 326 m 1
 912 374 l 1
 960 374 l 1
 960 422 l 1
 1008 422 l 1
 1008 374 l 1
 1008 326 l 1
 960 326 l 1
 912 326 l 1
960 182 m 1
 960 230 l 1
 1008 230 l 1
 1008 182 l 1
 960 182 l 1
48 230 m 1
 96 230 l 1
 96 182 l 1
 48 182 l 1
 48 230 l 1
0 134 m 1
 48 134 l 1
 96 134 l 1
 144 134 l 1
 192 134 l 1
 202.52734375 134 l 1
 203.444335938 117.458984375 205.03125 101.45703125 207.298828125 86 c 1
 192 86 l 1
 144 86 l 1
 96 86 l 1
 48 86 l 1
 48 38 l 1
 48 -10 l 1
 48 -58 l 1
 48 -106 l 1
 48 -154 l 1
 96 -154 l 1
 144 -154 l 1
 192 -154 l 1
 240 -154 l 1
 288 -154 l 1
 288 -106 l 1
 288 -100.646484375 l 1
 302.834960938 -117.654296875 318.8359375 -132.142578125 336 -144.1171875 c 1
 336 -154 l 1
 336 -202 l 1
 288 -202 l 1
 240 -202 l 1
 192 -202 l 1
 144 -202 l 1
 96 -202 l 1
 48 -202 l 1
 0 -202 l 1
 0 -154 l 1
 0 -106 l 1
 0 -58 l 1
 0 -10 l 1
 0 38 l 1
 0 86 l 1
 0 134 l 1
317.4453125 134 m 1
 336 134 l 1
 336 86 l 1
 336 38 l 1
 336 35.5625 l 1
 325.951171875 64.3251953125 319.7734375 97.14453125 317.4453125 134 c 1
96 38 m 1
 144 38 l 1
 192 38 l 1
 216.9609375 38 l 1
 222.912109375 15.138671875 230.592773438 -6.333984375 240 -26.419921875 c 1
 240 -58 l 1
 240 -106 l 1
 192 -106 l 1
 144 -106 l 1
 96 -106 l 1
 96 -58 l 1
 96 -10 l 1
 96 38 l 1
672 38 m 1
 676.224609375 38 l 2
 674.887695312 34.103515625 673.478515625 30.279296875 672 26.529296875 c 2
 672 38 l 1
695.244140625 -67.830078125 m 1
 695.244140625 -169.34375 l 1
 720 -169.34375 l 1
 720 -202 l 1
 672 -202 l 1
 624 -202 l 1
 576 -202 l 1
 576 -171.4453125 l 1
 586.670898438 -167.625976562 596.814453125 -163.102539062 606.419921875 -157.86328125 c 0
 608.68359375 -156.6171875 610.920898438 -155.328125 613.134765625 -154 c 2
 624 -154 l 1
 624 -147.005859375 l 1
 640.37109375 -135.751953125 655.276367188 -122.087890625 668.708984375 -106 c 1
 672 -106 l 1
 672 -101.96875 l 1
 680.333984375 -91.552734375 688.083007812 -80.17578125 695.244140625 -67.830078125 c 1
960 -154 m 1
 1008 -154 l 1
 1008 -202 l 1
 960 -202 l 1
 960 -154 l 1
384 -169.87890625 m 1
 384 -169.87890625 l 1
 412.819335938 -181.201171875 444.258789062 -186.8671875 478.3203125 -186.8671875 c 0
 478.8828125 -186.8671875 479.439453125 -186.859375 480 -186.857421875 c 2
 480 -202 l 1
 432 -202 l 1
 384 -202 l 1
 384 -169.87890625 l 1
EndSplineSet
EndChar

StartChar: e
Encoding: 101 101 4
Width: 1092
VWidth: 1056
Flags: HW
LayerCount: 2
Fore
SplineSet
0 806 m 1
 48 806 l 1
 96 806 l 1
 144 806 l 1
 192 806 l 1
 240 806 l 1
 288 806 l 1
 336 806 l 1
 336 758 l 1
 336 710 l 1
 336 662 l 1
 336 614 l 1
 336 593.10546875 l 1
 318.765625 581.260742188 302.764648438 567.475585938 288 551.74609375 c 1
 288 566 l 1
 288 614 l 1
 288 662 l 1
 288 710 l 1
 288 758 l 1
 240 758 l 1
 192 758 l 1
 144 758 l 1
 96 758 l 1
 48 758 l 1
 48 710 l 1
 48 662 l 1
 48 614 l 1
 48 566 l 1
 48 518 l 1
 96 518 l 1
 144 518 l 1
 192 518 l 1
 240 518 l 1
 260.5390625 518 l 1
 250.002929688 502.999023438 240.763671875 487 232.82421875 470 c 1
 192 470 l 1
 144 470 l 1
 96 470 l 1
 48 470 l 1
 0 470 l 1
 0 518 l 1
 0 566 l 1
 0 614 l 1
 0 662 l 1
 0 710 l 1
 0 758 l 1
 0 806 l 1
384 806 m 1
 432 806 l 1
 432 758 l 1
 432 710 l 1
 384 710 l 1
 384 758 l 1
 384 806 l 1
432 710 m 1
 480 710 l 1
 528 710 l 1
 576 710 l 1
 576 662 l 1
 528 662 l 1
 480 662 l 1
 480 644.67578125 l 1
 445.202148438 640.755859375 413.19921875 632.438476562 384 619.712890625 c 1
 384 662 l 1
 432 662 l 1
 432 710 l 1
576 710 m 1
 576 758 l 1
 624 758 l 1
 624 710 l 1
 576 710 l 1
576 758 m 1
 528 758 l 1
 480 758 l 1
 480 806 l 1
 528 806 l 1
 576 806 l 1
 576 758 l 1
672 806 m 1
 720 806 l 1
 768 806 l 1
 816 806 l 1
 864 806 l 1
 912 806 l 1
 960 806 l 1
 1008 806 l 1
 1008 758 l 1
 1008 710 l 1
 1008 662 l 1
 1008 614 l 1
 1008 566 l 1
 1008 518 l 1
 1008 470 l 1
 960 470 l 1
 912 470 l 1
 864 470 l 1
 816 470 l 1
 798.46875 470 l 1
 791.861328125 487.036132812 783.951171875 503.036132812 774.73828125 518 c 1
 816 518 l 1
 864 518 l 1
 912 518 l 1
 960 518 l 1
 960 566 l 1
 960 614 l 1
 960 662 l 1
 960 710 l 1
 960 758 l 1
 912 758 l 1
 864 758 l 1
 816 758 l 1
 768 758 l 1
 720 758 l 1
 720 710 l 1
 720 662 l 1
 720 614 l 1
 720 582.525390625 l 1
 705.23046875 595.302734375 689.229492188 606.189453125 672 615.185546875 c 1
 672 662 l 1
 672 710 l 1
 672 758 l 1
 672 806 l 1
96 710 m 1
 144 710 l 1
 192 710 l 1
 240 710 l 1
 240 662 l 1
 240 614 l 1
 240 566 l 1
 192 566 l 1
 144 566 l 1
 96 566 l 1
 96 614 l 1
 96 662 l 1
 96 710 l 1
768 710 m 1
 816 710 l 1
 864 710 l 1
 912 710 l 1
 912 662 l 1
 912 614 l 1
 912 566 l 1
 864 566 l 1
 816 566 l 1
 768 566 l 1
 768 614 l 1
 768 662 l 1
 768 710 l 1
529.3359375 553.03515625 m 0
 565.678710938 553.03515625 597.229492188 545.049804688 624 529.095703125 c 1
 624 518 l 1
 624 470 l 1
 624 422 l 1
 624 374 l 1
 672 374 l 1
 672 422 l 1
 703.09765625 422 l 1
 708.977539062 401.096679688 712.091796875 378.110351562 712.423828125 353.029296875 c 1
 528 352.748046875 l 1
 528 374 l 1
 480 374 l 1
 480 422 l 1
 432 422 l 1
 384 422 l 1
 384 470 l 1
 384 504.015625 l 1
 389.719726562 509.068359375 395.712890625 513.728515625 401.98046875 518 c 1
 432 518 l 1
 432 470 l 1
 480 470 l 1
 480 518 l 1
 480 548.892578125 l 1
 495.477539062 551.654296875 511.922851562 553.03515625 529.3359375 553.03515625 c 0
384 422 m 1
 384 374 l 1
 432 374 l 1
 432 352.6015625 l 1
 336 352.45703125 l 1
 336 374 l 1
 318.64453125 374 l 1
 321.28515625 391.15625 325.193359375 407.157226562 330.375 422 c 1
 336 422 l 1
 384 422 l 1
528 518 m 1
 528 470 l 1
 576 470 l 1
 576 518 l 1
 528 518 l 1
672 485.5703125 m 2
 675.786132812 480.580078125 679.307617188 475.390625 682.5625 470 c 1
 672 470 l 1
 672 485.5703125 l 2
0 422 m 1
 48 422 l 1
 48 374 l 1
 0 374 l 1
 0 422 l 1
48 374 m 1
 96 374 l 1
 96 326 l 1
 96 278 l 1
 48 278 l 1
 48 326 l 1
 48 374 l 1
96 374 m 1
 96 422 l 1
 144 422 l 1
 192 422 l 1
 192 374 l 1
 144 374 l 1
 96 374 l 1
96 278 m 1
 144 278 l 1
 144 326 l 1
 192 326 l 1
 197.767578125 326 l 1
 196.85546875 313.002929688 196.39453125 299.65625 196.39453125 285.95703125 c 0
 196.39453125 283.287109375 196.4296875 280.642578125 196.46875 278 c 2
 192 278 l 1
 192 230 l 1
 199.494140625 230 l 1
 201.399414062 213.379882812 204.177734375 197.375 207.849609375 182 c 1
 192 182 l 1
 144 182 l 1
 144 230 l 1
 96 230 l 1
 96 278 l 1
96 230 m 1
 96 182 l 1
 48 182 l 1
 48 230 l 1
 96 230 l 1
816 422 m 1
 864 422 l 1
 864 374 l 1
 864 326 l 1
 912 326 l 1
 912 278 l 1
 912 230 l 1
 960 230 l 1
 960 182 l 1
 912 182 l 1
 864 182 l 1
 864 230 l 1
 816 230 l 1
 768 230 l 1
 768 182 l 1
 720 182 l 1
 720 230 l 1
 672 230 l 1
 672 266.017578125 l 1
 823.60546875 266.017578125 l 1
 823.60546875 320.400390625 l 2
 823.60546875 351.481445312 821.064453125 380.540039062 816 407.591796875 c 1
 816 422 l 1
864 182 m 1
 864 134 l 1
 864 86 l 1
 816 86 l 1
 816 134 l 1
 816 182 l 1
 864 182 l 1
864 86 m 1
 912 86 l 1
 960 86 l 1
 960 38 l 1
 912 38 l 1
 864 38 l 1
 864 86 l 1
960 38 m 1
 1008 38 l 1
 1008 -10 l 1
 960 -10 l 1
 960 38 l 1
960 -10 m 1
 960 -58 l 1
 912 -58 l 1
 864 -58 l 1
 816 -58 l 1
 768 -58 l 1
 768 -106 l 1
 768 -154 l 1
 720 -154 l 1
 720 -106 l 1
 672 -106 l 1
 672 -58 l 1
 672 -50.609375 l 2
 672.986328125 -50.40625 673.973632812 -50.2119140625 674.958984375 -50.00390625 c 0
 716.853515625 -41.1416015625 757.740234375 -28.2509765625 797.62109375 -11.33203125 c 1
 797.62109375 86 l 1
 816 86 l 1
 816 38 l 1
 816 -10 l 1
 864 -10 l 1
 912 -10 l 1
 960 -10 l 1
768 -154 m 1
 816 -154 l 1
 816 -202 l 1
 768 -202 l 1
 768 -154 l 1
672 -106 m 1
 672 -154 l 1
 672 -202 l 1
 624 -202 l 1
 624 -154 l 1
 624 -106 l 1
 672 -106 l 1
624 -106 m 1
 576 -106 l 1
 576 -62.6328125 l 1
 592.084960938 -61.896484375 608.0859375 -60.53515625 624 -58.548828125 c 1
 624 -106 l 1
720 182 m 1
 720 134 l 1
 672 134 l 1
 672 182 l 1
 720 182 l 1
720 134 m 1
 768 134 l 1
 768 86 l 1
 782.39453125 86 l 1
 761.70703125 75.75390625 740.908203125 66.951171875 720 59.56640625 c 1
 720 86 l 1
 720 134 l 1
912 422 m 1
 960 422 l 1
 1008 422 l 1
 1008 374 l 1
 960 374 l 1
 912 374 l 1
 912 422 l 1
960 326 m 1
 1008 326 l 1
 1008 278 l 1
 960 278 l 1
 960 326 l 1
432 266.017578125 m 1
 480 266.017578125 l 1
 480 230 l 1
 432 230 l 1
 432 266.017578125 l 1
480 230 m 1
 528 230 l 1
 528 182 l 1
 576 182 l 1
 576 134 l 1
 624 134 l 1
 624 86 l 1
 576 86 l 1
 528 86 l 1
 528 134 l 1
 480 134 l 1
 480 182 l 1
 480 230 l 1
528 230 m 1
 528 266.017578125 l 1
 576 266.017578125 l 1
 576 230 l 1
 528 230 l 1
576 230 m 1
 624 230 l 1
 624 182 l 1
 576 182 l 1
 576 230 l 1
528 86 m 1
 528 38 l 1
 528 31.8515625 l 1
 511.047851562 33.0263671875 495.051757812 35.3837890625 480 38.91015625 c 1
 480 86 l 1
 528 86 l 1
432 230 m 1
 432 182 l 1
 432 134 l 1
 432 86 l 1
 432 55.666015625 l 1
 414.1796875 64.27734375 398.178710938 75.140625 384 88.2578125 c 1
 384 134 l 1
 384 182 l 1
 336 182 l 1
 327.189453125 182 l 1
 322.478515625 196.940429688 318.831054688 212.9453125 316.234375 230 c 1
 336 230 l 1
 384 230 l 1
 432 230 l 1
0 134 m 1
 48 134 l 1
 96 134 l 1
 144 134 l 1
 192 134 l 1
 222.974609375 134 l 1
 229.720703125 117.09375 237.754882812 101.094726562 247.0703125 86 c 1
 240 86 l 1
 192 86 l 1
 144 86 l 1
 96 86 l 1
 48 86 l 1
 48 38 l 1
 48 -10 l 1
 48 -58 l 1
 48 -106 l 1
 48 -154 l 1
 96 -154 l 1
 144 -154 l 1
 192 -154 l 1
 240 -154 l 1
 288 -154 l 1
 288 -106 l 1
 288 -58 l 1
 288 -10 l 1
 288 33.658203125 l 2
 288.879882812 32.7568359375 289.765625 31.857421875 290.658203125 30.96484375 c 0
 304.673828125 17.0390625 319.7890625 4.66015625 336 -6.1796875 c 1
 336 -10 l 1
 336 -58 l 1
 336 -106 l 1
 336 -154 l 1
 336 -202 l 1
 288 -202 l 1
 240 -202 l 1
 192 -202 l 1
 144 -202 l 1
 96 -202 l 1
 48 -202 l 1
 0 -202 l 1
 0 -154 l 1
 0 -106 l 1
 0 -58 l 1
 0 -10 l 1
 0 38 l 1
 0 86 l 1
 0 134 l 1
96 38 m 1
 144 38 l 1
 192 38 l 1
 240 38 l 1
 240 -10 l 1
 240 -58 l 1
 240 -106 l 1
 192 -106 l 1
 144 -106 l 1
 96 -106 l 1
 96 -58 l 1
 96 -10 l 1
 96 38 l 1
576 38 m 1
 624 38 l 1
 637.859375 38 l 2
 617.586914062 34.5224609375 596.967773438 32.3359375 576 31.44140625 c 1
 576 38 l 1
384 -32.384765625 m 1
 426.145507812 -50.7998046875 474.14453125 -60.9853515625 528 -62.943359375 c 1
 528 -106 l 1
 528 -154 l 1
 528 -202 l 1
 480 -202 l 1
 480 -154 l 1
 480 -106 l 1
 432 -106 l 1
 384 -106 l 1
 384 -58 l 1
 384 -32.384765625 l 1
864 -106 m 1
 912 -106 l 1
 912 -154 l 1
 864 -154 l 1
 864 -106 l 1
960 -106 m 1
 1008 -106 l 1
 1008 -154 l 1
 960 -154 l 1
 960 -106 l 1
384 -154 m 1
 432 -154 l 1
 432 -202 l 1
 384 -202 l 1
 384 -154 l 1
EndSplineSet
EndChar

StartChar: f
Encoding: 102 102 5
Width: 1092
VWidth: 1056
Flags: HW
LayerCount: 2
Fore
SplineSet
0 806 m 1
 48 806 l 1
 96 806 l 1
 144 806 l 1
 192 806 l 1
 240 806 l 1
 288 806 l 1
 336 806 l 1
 336 758 l 1
 336 710 l 1
 336 662 l 1
 336 614 l 1
 336 566 l 1
 336 518 l 1
 336 514.65234375 l 1
 292.5859375 514.65234375 l 1
 292.5859375 470 l 1
 288 470 l 1
 240 470 l 1
 192 470 l 1
 144 470 l 1
 96 470 l 1
 48 470 l 1
 0 470 l 1
 0 518 l 1
 0 566 l 1
 0 614 l 1
 0 662 l 1
 0 710 l 1
 0 758 l 1
 0 806 l 1
480 806 m 1
 528 806 l 1
 576 806 l 1
 624 806 l 1
 624 778.10546875 l 1
 618.275390625 778.10546875 l 2
 542.140625 778.10546875 486.548828125 760.784179688 451.501953125 726.140625 c 0
 446.439453125 721.194335938 441.754882812 715.803710938 437.423828125 710 c 1
 432 710 l 1
 432 758 l 1
 480 758 l 1
 480 806 l 1
432 710 m 1
 432 702.216796875 l 1
 409.962890625 668.319335938 398.93359375 621.518554688 398.93359375 561.78515625 c 2
 398.93359375 514.65234375 l 1
 384 514.65234375 l 1
 384 518 l 1
 384 566 l 1
 384 614 l 1
 384 662 l 1
 384 710 l 1
 432 710 l 1
672 806 m 1
 720 806 l 1
 768 806 l 1
 816 806 l 1
 864 806 l 1
 912 806 l 1
 960 806 l 1
 1008 806 l 1
 1008 758 l 1
 1008 710 l 1
 1008 662 l 1
 1008 614 l 1
 1008 566 l 1
 1008 518 l 1
 1008 470 l 1
 960 470 l 1
 912 470 l 1
 864 470 l 1
 816 470 l 1
 768 470 l 1
 720 470 l 1
 693.806640625 470 l 1
 693.806640625 514.65234375 l 1
 672 514.65234375 l 1
 672 518 l 1
 672 566 l 1
 672 614 l 1
 672 662 l 1
 672 685.654296875 l 1
 720 685.654296875 l 1
 720 662 l 1
 720 614 l 1
 720 566 l 1
 720 518 l 1
 768 518 l 1
 816 518 l 1
 864 518 l 1
 912 518 l 1
 960 518 l 1
 960 566 l 1
 960 614 l 1
 960 662 l 1
 960 710 l 1
 960 758 l 1
 912 758 l 1
 864 758 l 1
 816 758 l 1
 768 758 l 1
 723.4140625 758 l 1
 723.4140625 778.10546875 l 1
 672 778.10546875 l 1
 672 806 l 1
48 758 m 1
 48 710 l 1
 48 662 l 1
 48 614 l 1
 48 566 l 1
 48 518 l 1
 96 518 l 1
 144 518 l 1
 192 518 l 1
 240 518 l 1
 288 518 l 1
 288 566 l 1
 288 614 l 1
 288 662 l 1
 288 710 l 1
 288 758 l 1
 240 758 l 1
 192 758 l 1
 144 758 l 1
 96 758 l 1
 48 758 l 1
96 710 m 1
 144 710 l 1
 192 710 l 1
 240 710 l 1
 240 662 l 1
 240 614 l 1
 240 566 l 1
 192 566 l 1
 144 566 l 1
 96 566 l 1
 96 614 l 1
 96 662 l 1
 96 710 l 1
768 710 m 1
 816 710 l 1
 864 710 l 1
 912 710 l 1
 912 662 l 1
 912 614 l 1
 912 566 l 1
 864 566 l 1
 816 566 l 1
 768 566 l 1
 768 614 l 1
 768 662 l 1
 768 710 l 1
576 681.98828125 m 1
 576 662 l 1
 576 614 l 1
 528 614 l 1
 528 566 l 1
 510.71875 566 l 1
 510.71875 574.47265625 l 2
 510.71875 616.3671875 518.372070312 645.37109375 533.6796875 661.484375 c 0
 543.275390625 671.326171875 557.387695312 678.157226562 576 681.98828125 c 1
576 614 m 1
 624 614 l 1
 624 566 l 1
 576 566 l 1
 576 614 l 1
576 566 m 1
 576 518 l 1
 528 518 l 1
 528 566 l 1
 576 566 l 1
576 518 m 1
 624 518 l 1
 624 514.65234375 l 1
 576 514.65234375 l 1
 576 518 l 1
528 518 m 1
 528 514.65234375 l 1
 510.71875 514.65234375 l 1
 510.71875 518 l 1
 528 518 l 1
384 428.24609375 m 1
 398.93359375 428.24609375 l 1
 398.93359375 422 l 1
 384 422 l 1
 384 428.24609375 l 1
0 422 m 1
 48 422 l 1
 48 374 l 1
 0 374 l 1
 0 422 l 1
48 374 m 1
 96 374 l 1
 96 422 l 1
 144 422 l 1
 192 422 l 1
 240 422 l 1
 288 422 l 1
 336 422 l 1
 336 374 l 1
 288 374 l 1
 288 326 l 1
 240 326 l 1
 240 278 l 1
 288 278 l 1
 288 230 l 1
 240 230 l 1
 192 230 l 1
 192 278 l 1
 192 326 l 1
 192 374 l 1
 144 374 l 1
 144 326 l 1
 96 326 l 1
 96 278 l 1
 144 278 l 1
 144 230 l 1
 96 230 l 1
 48 230 l 1
 48 278 l 1
 48 326 l 1
 48 374 l 1
288 326 m 1
 336 326 l 1
 384 326 l 1
 398.93359375 326 l 1
 398.93359375 278 l 1
 384 278 l 1
 384 230 l 1
 384 182 l 1
 336 182 l 1
 288 182 l 1
 288 230 l 1
 336 230 l 1
 336 278 l 1
 288 278 l 1
 288 326 l 1
384 182 m 1
 398.93359375 182 l 1
 398.93359375 134 l 1
 384 134 l 1
 384 182 l 1
192 230 m 1
 192 182 l 1
 144 182 l 1
 144 230 l 1
 192 230 l 1
528 422 m 1
 576 422 l 1
 576 374 l 1
 624 374 l 1
 672 374 l 1
 672 422 l 1
 720 422 l 1
 768 422 l 1
 816 422 l 1
 864 422 l 1
 912 422 l 1
 912 374 l 1
 864 374 l 1
 864 326 l 1
 816 326 l 1
 816 374 l 1
 768 374 l 1
 720 374 l 1
 720 326 l 1
 768 326 l 1
 768 278 l 1
 720 278 l 1
 720 230 l 1
 672 230 l 1
 624 230 l 1
 624 182 l 1
 624 134 l 1
 576 134 l 1
 576 182 l 1
 576 230 l 1
 528 230 l 1
 528 182 l 1
 528 134 l 1
 576 134 l 1
 576 86 l 1
 528 86 l 1
 528 38 l 1
 576 38 l 1
 576 -10 l 1
 624 -10 l 1
 624 38 l 1
 672 38 l 1
 672 -10 l 1
 720 -10 l 1
 720 -58 l 1
 768 -58 l 1
 768 -106 l 1
 720 -106 l 1
 720 -154 l 1
 672 -154 l 1
 624 -154 l 1
 624 -202 l 1
 576 -202 l 1
 576 -154 l 1
 528 -154 l 1
 528 -202 l 1
 480 -202 l 1
 432 -202 l 1
 384 -202 l 1
 384 -154 l 1
 398.93359375 -154 l 1
 398.93359375 -162.10546875 l 1
 510.71875 -162.10546875 l 1
 510.71875 -58 l 1
 528 -58 l 1
 528 -106 l 1
 576 -106 l 1
 576 -58 l 1
 528 -58 l 1
 528 -10 l 1
 510.71875 -10 l 1
 510.71875 374 l 1
 528 374 l 1
 528 422 l 1
720 230 m 1
 768 230 l 1
 768 182 l 1
 768 134 l 1
 720 134 l 1
 720 182 l 1
 720 230 l 1
768 134 m 1
 816 134 l 1
 864 134 l 1
 864 182 l 1
 864 230 l 1
 912 230 l 1
 960 230 l 1
 960 182 l 1
 912 182 l 1
 912 134 l 1
 960 134 l 1
 960 86 l 1
 960 38 l 1
 912 38 l 1
 912 -10 l 1
 864 -10 l 1
 864 -58 l 1
 816 -58 l 1
 816 -10 l 1
 768 -10 l 1
 768 38 l 1
 720 38 l 1
 720 86 l 1
 768 86 l 1
 768 134 l 1
864 230 m 1
 816 230 l 1
 816 278 l 1
 864 278 l 1
 864 230 l 1
960 230 m 1
 960 278 l 1
 1008 278 l 1
 1008 230 l 1
 960 230 l 1
960 182 m 1
 1008 182 l 1
 1008 134 l 1
 960 134 l 1
 960 182 l 1
624 134 m 1
 672 134 l 1
 672 86 l 1
 624 86 l 1
 624 134 l 1
720 -154 m 1
 768 -154 l 1
 768 -202 l 1
 720 -202 l 1
 720 -154 l 1
528 326 m 1
 528 278 l 1
 576 278 l 1
 576 326 l 1
 528 326 l 1
624 326 m 1
 624 278 l 1
 672 278 l 1
 672 326 l 1
 624 326 l 1
0 134 m 1
 48 134 l 1
 96 134 l 1
 144 134 l 1
 192 134 l 1
 240 134 l 1
 288 134 l 1
 336 134 l 1
 336 86 l 1
 336 38 l 1
 336 -10 l 1
 336 -58 l 1
 336 -106 l 1
 336 -154 l 1
 336 -202 l 1
 288 -202 l 1
 240 -202 l 1
 192 -202 l 1
 144 -202 l 1
 96 -202 l 1
 48 -202 l 1
 0 -202 l 1
 0 -154 l 1
 0 -106 l 1
 0 -58 l 1
 0 -10 l 1
 0 38 l 1
 0 86 l 1
 0 134 l 1
48 86 m 1
 48 38 l 1
 48 -10 l 1
 48 -58 l 1
 48 -106 l 1
 48 -154 l 1
 96 -154 l 1
 144 -154 l 1
 192 -154 l 1
 240 -154 l 1
 288 -154 l 1
 288 -106 l 1
 288 -58 l 1
 288 -10 l 1
 288 38 l 1
 288 86 l 1
 240 86 l 1
 192 86 l 1
 144 86 l 1
 96 86 l 1
 48 86 l 1
384 86 m 1
 398.93359375 86 l 1
 398.93359375 -106 l 1
 384 -106 l 1
 384 -58 l 1
 384 -10 l 1
 384 38 l 1
 384 86 l 1
816 86 m 1
 816 38 l 1
 864 38 l 1
 864 86 l 1
 816 86 l 1
96 38 m 1
 144 38 l 1
 192 38 l 1
 240 38 l 1
 240 -10 l 1
 240 -58 l 1
 240 -106 l 1
 192 -106 l 1
 144 -106 l 1
 96 -106 l 1
 96 -58 l 1
 96 -10 l 1
 96 38 l 1
624 -58 m 1
 624 -106 l 1
 672 -106 l 1
 672 -58 l 1
 624 -58 l 1
816 -106 m 1
 864 -106 l 1
 864 -154 l 1
 816 -154 l 1
 816 -106 l 1
864 -154 m 1
 912 -154 l 1
 960 -154 l 1
 960 -202 l 1
 912 -202 l 1
 864 -202 l 1
 864 -154 l 1
EndSplineSet
EndChar

StartChar: g
Encoding: 103 103 6
Width: 1092
VWidth: 1056
Flags: HW
LayerCount: 2
Fore
SplineSet
0 806 m 1
 48 806 l 1
 96 806 l 1
 144 806 l 1
 192 806 l 1
 240 806 l 1
 288 806 l 1
 336 806 l 1
 336 758 l 1
 336 748.42578125 l 1
 318.791015625 737.6484375 302.797851562 724.48828125 288 708.978515625 c 1
 288 710 l 1
 288 758 l 1
 240 758 l 1
 192 758 l 1
 144 758 l 1
 96 758 l 1
 48 758 l 1
 48 710 l 1
 48 662 l 1
 48 614 l 1
 48 566 l 1
 48 518 l 1
 96 518 l 1
 144 518 l 1
 192 518 l 1
 201.041015625 518 l 1
 198.801757812 502.563476562 197.25 486.564453125 196.390625 470 c 1
 192 470 l 1
 144 470 l 1
 96 470 l 1
 48 470 l 1
 0 470 l 1
 0 518 l 1
 0 566 l 1
 0 614 l 1
 0 662 l 1
 0 710 l 1
 0 758 l 1
 0 806 l 1
384 806 m 1
 432 806 l 1
 432 782.560546875 l 1
 415.251953125 780.274414062 399.247070312 776.530273438 384 771.296875 c 1
 384 806 l 1
480 806 m 1
 528 806 l 1
 528 780.65234375 l 1
 512.823242188 783.306640625 496.82421875 784.807617188 480 785.15625 c 1
 480 806 l 1
576 806 m 1
 624 806 l 1
 624 758 l 1
 596.583984375 758 l 2
 589.955078125 761.444335938 583.095703125 764.56640625 576 767.357421875 c 1
 576 806 l 1
672 806 m 1
 720 806 l 1
 768 806 l 1
 816 806 l 1
 864 806 l 1
 912 806 l 1
 960 806 l 1
 1008 806 l 1
 1008 758 l 1
 1008 710 l 1
 1008 662 l 1
 1008 614 l 1
 1008 566 l 1
 1008 518 l 1
 1008 470 l 1
 960 470 l 1
 912 470 l 1
 864 470 l 1
 816 470 l 1
 800.42578125 470 l 1
 800.42578125 518 l 1
 816 518 l 1
 864 518 l 1
 912 518 l 1
 960 518 l 1
 960 566 l 1
 960 614 l 1
 960 662 l 1
 960 710 l 1
 960 758 l 1
 912 758 l 1
 864 758 l 1
 816 758 l 1
 800.42578125 758 l 1
 800.42578125 768.92578125 l 1
 689.244140625 768.92578125 l 1
 689.244140625 666.205078125 l 1
 683.853515625 675.568359375 678.1015625 684.368164062 672 692.62109375 c 1
 672 710 l 1
 672 758 l 1
 672 806 l 1
96 710 m 1
 144 710 l 1
 192 710 l 1
 240 710 l 1
 240 662 l 1
 240 642.0546875 l 1
 227.661132812 618.803710938 217.889648438 593.455078125 210.693359375 566 c 1
 192 566 l 1
 144 566 l 1
 96 566 l 1
 96 614 l 1
 96 662 l 1
 96 710 l 1
800.42578125 710 m 1
 816 710 l 1
 864 710 l 1
 912 710 l 1
 912 662 l 1
 912 614 l 1
 912 566 l 1
 864 566 l 1
 816 566 l 1
 800.42578125 566 l 1
 800.42578125 710 l 1
499.509765625 692.1875 m 0
 509.373046875 692.1875 518.865234375 691.575195312 528 690.37890625 c 1
 528 662 l 1
 528 614 l 1
 480 614 l 1
 432 614 l 1
 384 614 l 1
 384 651.833984375 l 1
 388.133789062 655.47265625 392.419921875 658.853515625 396.84375 662 c 2
 432 662 l 1
 432 680.705078125 l 1
 452.247070312 688.350585938 474.745117188 692.1875 499.509765625 692.1875 c 0
528 614 m 1
 576 614 l 1
 576 566 l 1
 624 566 l 1
 624 518 l 1
 624 470 l 1
 624 422 l 1
 624 374 l 1
 672 374 l 1
 672 422 l 1
 688.99609375 422 l 1
 687.927734375 386.193359375 683.313476562 354.188476562 675.140625 326 c 1
 672 326 l 1
 624 326 l 1
 576 326 l 1
 576 278 l 1
 576 230 l 1
 528 230 l 1
 528 278 l 1
 528 326 l 1
 480 326 l 1
 480 278 l 1
 480 230 l 1
 432 230 l 1
 384 230 l 1
 379.1875 230 l 1
 372.349609375 236.521484375 365.92578125 243.743164062 359.9296875 251.689453125 c 0
 353.846679688 259.849609375 348.326171875 268.624023438 343.36328125 278 c 1
 384 278 l 1
 384 326 l 1
 432 326 l 1
 432 374 l 1
 432 422 l 1
 384 422 l 1
 384 470 l 1
 384 518 l 1
 432 518 l 1
 432 470 l 1
 480 470 l 1
 480 422 l 1
 480 374 l 1
 528 374 l 1
 528 422 l 1
 528 470 l 1
 576 470 l 1
 576 518 l 1
 528 518 l 1
 528 566 l 1
 528 614 l 1
576 614 m 1
 576 662 l 1
 576 677.134765625 l 1
 593.955078125 669.11328125 609.953125 657.877929688 624 643.439453125 c 1
 624 614 l 1
 576 614 l 1
576 230 m 1
 620.009765625 230 l 1
 606.9453125 217.456054688 592.276367188 207.546875 576 200.275390625 c 1
 576 230 l 1
528 230 m 1
 528 187.029296875 l 1
 518.865234375 185.833007812 509.373046875 185.22265625 499.509765625 185.22265625 c 0
 492.838867188 185.22265625 486.342773438 185.515625 480 186.0703125 c 1
 480 230 l 1
 528 230 l 1
384 326 m 1
 336 326 l 1
 336 374 l 1
 314.4453125 374 l 1
 312.395507812 389.157226562 311.123046875 405.157226562 310.626953125 422 c 1
 336 422 l 1
 384 422 l 1
 384 374 l 1
 384 326 l 1
336 326 m 1
 336 293.28515625 l 1
 331.516601562 303.55078125 327.623046875 314.45703125 324.31640625 326 c 1
 336 326 l 1
432 518 m 1
 432 566 l 1
 480 566 l 1
 480 518 l 1
 432 518 l 1
480 518 m 1
 528 518 l 1
 528 470 l 1
 480 470 l 1
 480 518 l 1
336 584.076171875 m 1
 336 566 l 1
 336 518 l 1
 336 470 l 1
 311.291015625 470 l 1
 313.893554688 514.208007812 322.125 552.240234375 336 584.076171875 c 1
672 561.396484375 m 1
 680.846679688 534.625 686.287109375 504.158203125 688.322265625 470 c 1
 672 470 l 1
 672 518 l 1
 672 561.396484375 l 1
0 422 m 1
 48 422 l 1
 48 374 l 1
 0 374 l 1
 0 422 l 1
96 422 m 1
 144 422 l 1
 192 422 l 1
 192 374 l 1
 144 374 l 1
 144 326 l 1
 96 326 l 1
 96 374 l 1
 96 422 l 1
192 374 m 1
 199.09765625 374 l 1
 203.0625 339.282226562 210.390625 307.288085938 221.0625 278 c 1
 192 278 l 1
 192 230 l 1
 240 230 l 1
 240 182 l 1
 192 182 l 1
 144 182 l 1
 96 182 l 1
 48 182 l 1
 48 230 l 1
 48 278 l 1
 48 326 l 1
 96 326 l 1
 96 278 l 1
 96 230 l 1
 144 230 l 1
 144 278 l 1
 144 326 l 1
 192 326 l 1
 192 374 l 1
240 230 m 1
 240 235.3203125 l 2
 240.948242188 233.536132812 241.90625 231.759765625 242.884765625 230 c 2
 240 230 l 1
816 422 m 1
 864 422 l 1
 864 374 l 1
 864 326 l 1
 912 326 l 1
 912 278 l 1
 912 230 l 1
 960 230 l 1
 960 182 l 1
 912 182 l 1
 864 182 l 1
 864 230 l 1
 816 230 l 1
 800.42578125 230 l 1
 800.42578125 278 l 1
 816 278 l 1
 816 326 l 1
 816 374 l 1
 816 422 l 1
960 230 m 1
 960 278 l 1
 960 326 l 1
 1008 326 l 1
 1008 278 l 1
 1008 230 l 1
 960 230 l 1
864 182 m 1
 864 134 l 1
 864 86 l 1
 816 86 l 1
 816 134 l 1
 816 182 l 1
 864 182 l 1
864 86 m 1
 912 86 l 1
 960 86 l 1
 960 38 l 1
 912 38 l 1
 864 38 l 1
 864 86 l 1
960 38 m 1
 1008 38 l 1
 1008 -10 l 1
 960 -10 l 1
 960 38 l 1
960 -10 m 1
 960 -58 l 1
 912 -58 l 1
 864 -58 l 1
 816 -58 l 1
 768 -58 l 1
 768 -106 l 1
 768 -154 l 1
 720 -154 l 1
 720 -106 l 1
 696.462890625 -106 l 1
 706.260742188 -98.2978515625 715.338867188 -89.8505859375 723.6875 -80.646484375 c 0
 760.462890625 -40.396484375 784.01953125 15.15234375 794.359375 86 c 1
 816 86 l 1
 816 38 l 1
 816 -10 l 1
 864 -10 l 1
 912 -10 l 1
 960 -10 l 1
768 -154 m 1
 816 -154 l 1
 816 -202 l 1
 768 -202 l 1
 768 -154 l 1
912 422 m 1
 960 422 l 1
 1008 422 l 1
 1008 374 l 1
 960 374 l 1
 912 374 l 1
 912 422 l 1
672 182 m 1
 689.244140625 182 l 1
 689.244140625 156.21875 l 2
 689.244140625 148.619140625 689.05859375 141.217773438 688.705078125 134 c 1
 672 134 l 1
 672 182 l 1
0 134 m 1
 48 134 l 1
 96 134 l 1
 144 134 l 1
 192 134 l 1
 240 134 l 1
 288 134 l 1
 328.33203125 134 l 2
 330.861328125 132.275390625 333.416015625 130.602539062 336 128.984375 c 2
 336 86 l 1
 336 38 l 1
 336 -10 l 1
 336 -48.529296875 l 1
 320.098632812 -42.537109375 304.098632812 -35.412109375 288 -27.15234375 c 1
 288 -10 l 1
 288 38 l 1
 288 86 l 1
 240 86 l 1
 192 86 l 1
 144 86 l 1
 96 86 l 1
 48 86 l 1
 48 38 l 1
 48 -10 l 1
 48 -58 l 1
 48 -106 l 1
 48 -154 l 1
 96 -154 l 1
 144 -154 l 1
 192 -154 l 1
 240 -154 l 1
 288 -154 l 1
 288 -133.470703125 l 1
 303.767578125 -138.928710938 319.768554688 -143.643554688 336 -147.6171875 c 1
 336 -154 l 1
 336 -202 l 1
 288 -202 l 1
 240 -202 l 1
 192 -202 l 1
 144 -202 l 1
 96 -202 l 1
 48 -202 l 1
 0 -202 l 1
 0 -154 l 1
 0 -106 l 1
 0 -58 l 1
 0 -10 l 1
 0 38 l 1
 0 86 l 1
 0 134 l 1
620.59375 134 m 1
 624 134 l 1
 624 86 l 1
 576 86 l 1
 528 86 l 1
 528 38 l 1
 480 38 l 1
 432 38 l 1
 384 38 l 1
 384 86 l 1
 384 106.11328125 l 1
 399.247070312 100.879882812 415.251953125 97.1357421875 432 94.849609375 c 1
 432 86 l 1
 480 86 l 1
 480 92.25390625 l 1
 526.680664062 93.220703125 567.0234375 103.05859375 601.0234375 121.77734375 c 0
 607.775390625 125.494140625 614.298828125 129.568359375 620.59375 134 c 1
96 38 m 1
 144 38 l 1
 192 38 l 1
 240 38 l 1
 240 -10 l 1
 240 -58 l 1
 240 -106 l 1
 192 -106 l 1
 144 -106 l 1
 96 -106 l 1
 96 -58 l 1
 96 -10 l 1
 96 38 l 1
576 38 m 1
 624 38 l 1
 669.3125 38 l 1
 661.775390625 19.6943359375 652.098632812 3.6953125 640.283203125 -10 c 1
 624 -10 l 1
 576 -10 l 1
 576 38 l 1
576 -10 m 1
 576 -55.53125 l 2
 573.896484375 -56.38671875 571.756835938 -57.2060546875 569.59375 -58 c 2
 528 -58 l 1
 528 -10 l 1
 576 -10 l 1
528 -58 m 1
 528 -68.900390625 l 1
 510.470703125 -71.8955078125 491.509765625 -73.39453125 471.111328125 -73.39453125 c 0
 441.591796875 -73.39453125 412.5546875 -70.005859375 384 -63.25 c 1
 384 -58 l 1
 384 -10 l 1
 432 -10 l 1
 480 -10 l 1
 480 -58 l 1
 528 -58 l 1
864 -106 m 1
 912 -106 l 1
 912 -154 l 1
 864 -154 l 1
 864 -106 l 1
960 -106 m 1
 1008 -106 l 1
 1008 -154 l 1
 960 -154 l 1
 960 -106 l 1
672 -122.779296875 m 1
 672 -154 l 1
 672 -202 l 1
 624 -202 l 1
 624 -154 l 1
 624 -144.9921875 l 1
 641.307617188 -138.943359375 657.306640625 -131.5390625 672 -122.779296875 c 1
384 -157.177734375 m 1
 414.326171875 -162.129882812 446.327148438 -164.796875 480 -165.185546875 c 1
 480 -202 l 1
 432 -202 l 1
 384 -202 l 1
 384 -157.177734375 l 1
EndSplineSet
EndChar

StartChar: h
Encoding: 104 104 7
Width: 1092
VWidth: 1056
Flags: HW
LayerCount: 2
Fore
SplineSet
0 806 m 1
 48 806 l 1
 96 806 l 1
 144 806 l 1
 192 806 l 1
 240 806 l 1
 288 806 l 1
 336 806 l 1
 336 758 l 1
 336 710 l 1
 336 662 l 1
 336 614 l 1
 336 566 l 1
 336 518 l 1
 336 470 l 1
 322.39453125 470 l 1
 322.39453125 772.10546875 l 1
 210.607421875 772.10546875 l 1
 210.607421875 758 l 1
 192 758 l 1
 144 758 l 1
 96 758 l 1
 48 758 l 1
 48 710 l 1
 48 662 l 1
 48 614 l 1
 48 566 l 1
 48 518 l 1
 96 518 l 1
 144 518 l 1
 192 518 l 1
 210.607421875 518 l 1
 210.607421875 470 l 1
 192 470 l 1
 144 470 l 1
 96 470 l 1
 48 470 l 1
 0 470 l 1
 0 518 l 1
 0 566 l 1
 0 614 l 1
 0 662 l 1
 0 710 l 1
 0 758 l 1
 0 806 l 1
384 806 m 1
 432 806 l 1
 480 806 l 1
 480 758 l 1
 528 758 l 1
 528 710 l 1
 576 710 l 1
 624 710 l 1
 624 662 l 1
 624 614 l 1
 624 566 l 1
 576 566 l 1
 576 614 l 1
 576 662 l 1
 528 662 l 1
 528 614 l 1
 480 614 l 1
 480 662 l 1
 432 662 l 1
 432 710 l 1
 432 758 l 1
 384 758 l 1
 384 806 l 1
528 758 m 1
 528 806 l 1
 576 806 l 1
 576 758 l 1
 528 758 l 1
576 566 m 1
 576 523.21484375 l 1
 564.833007812 524.381835938 553.211914062 524.966796875 541.130859375 524.966796875 c 0
 536.706054688 524.966796875 532.329101562 524.87890625 528 524.701171875 c 1
 528 566 l 1
 576 566 l 1
432 662 m 1
 432 614 l 1
 432 566 l 1
 480 566 l 1
 480 518.666015625 l 2
 479.006835938 518.44921875 478.016601562 518.227539062 477.029296875 518 c 2
 432 518 l 1
 432 502.796875 l 1
 426.573242188 500.321289062 421.255859375 497.646484375 416.052734375 494.755859375 c 0
 404.921875 488.502929688 394.23828125 481.256835938 384 473.0234375 c 1
 384 518 l 1
 384 566 l 1
 384 614 l 1
 384 662 l 1
 432 662 l 1
672 806 m 1
 720 806 l 1
 768 806 l 1
 816 806 l 1
 864 806 l 1
 912 806 l 1
 960 806 l 1
 1008 806 l 1
 1008 758 l 1
 1008 710 l 1
 1008 662 l 1
 1008 614 l 1
 1008 566 l 1
 1008 518 l 1
 1008 470 l 1
 960 470 l 1
 912 470 l 1
 864 470 l 1
 816 470 l 1
 768 470 l 1
 720 470 l 1
 701.1328125 470 l 1
 692.180664062 478.4140625 682.465820312 485.852539062 672 492.333984375 c 1
 672 518 l 1
 672 566 l 1
 672 614 l 1
 672 662 l 1
 672 710 l 1
 672 758 l 1
 672 806 l 1
720 758 m 1
 720 710 l 1
 720 662 l 1
 720 614 l 1
 720 566 l 1
 720 518 l 1
 768 518 l 1
 816 518 l 1
 864 518 l 1
 912 518 l 1
 960 518 l 1
 960 566 l 1
 960 614 l 1
 960 662 l 1
 960 710 l 1
 960 758 l 1
 912 758 l 1
 864 758 l 1
 816 758 l 1
 768 758 l 1
 720 758 l 1
96 710 m 1
 144 710 l 1
 192 710 l 1
 210.607421875 710 l 1
 210.607421875 566 l 1
 192 566 l 1
 144 566 l 1
 96 566 l 1
 96 614 l 1
 96 662 l 1
 96 710 l 1
768 710 m 1
 816 710 l 1
 864 710 l 1
 912 710 l 1
 912 662 l 1
 912 614 l 1
 912 566 l 1
 864 566 l 1
 816 566 l 1
 768 566 l 1
 768 614 l 1
 768 662 l 1
 768 710 l 1
607.947265625 518 m 2
 624 518 l 1
 624 513.75390625 l 1
 618.776367188 515.33203125 613.431640625 516.755859375 607.947265625 518 c 2
528 427.9765625 m 1
 545.69921875 427.044921875 561.701171875 423.947265625 576 418.68359375 c 1
 576 374 l 1
 624 374 l 1
 624 326 l 1
 576 326 l 1
 576 278 l 1
 528 278 l 1
 528 326 l 1
 528 374 l 1
 480 374 l 1
 480 326 l 1
 432 326 l 1
 384 326 l 1
 344.546875 326 l 1
 352.3984375 342.634765625 362.333007812 357.599609375 374.359375 370.884765625 c 0
 397.549804688 396.501953125 426.435546875 413.53125 460.998046875 422 c 1
 480 422 l 1
 528 422 l 1
 528 427.9765625 l 1
624 374 m 1
 624 386.236328125 l 2
 625.62890625 384.401367188 627.212890625 382.508789062 628.748046875 380.552734375 c 0
 630.405273438 378.44140625 632.001953125 376.252929688 633.548828125 374 c 2
 624 374 l 1
528 278 m 1
 528 230 l 1
 480 230 l 1
 480 278 l 1
 528 278 l 1
480 230 m 1
 480 182 l 1
 528 182 l 1
 528 134 l 1
 528 86 l 1
 576 86 l 1
 576 134 l 1
 576 182 l 1
 576 230 l 1
 624 230 l 1
 624 278 l 1
 664.2578125 278 l 1
 665.5546875 265.080078125 666.2109375 251.334960938 666.2109375 236.7421875 c 2
 666.2109375 86 l 1
 624 86 l 1
 624 38 l 1
 576 38 l 1
 576 -10 l 1
 624 -10 l 1
 624 -58 l 1
 576 -58 l 1
 576 -106 l 1
 528 -106 l 1
 528 -58 l 1
 480 -58 l 1
 480 -10 l 1
 528 -10 l 1
 528 38 l 1
 480 38 l 1
 480 86 l 1
 480 134 l 1
 432 134 l 1
 432 86 l 1
 384 86 l 1
 384 134 l 1
 384 182 l 1
 432 182 l 1
 432 230 l 1
 480 230 l 1
528 -106 m 1
 528 -154 l 1
 480 -154 l 1
 480 -106 l 1
 528 -106 l 1
480 -106 m 1
 432 -106 l 1
 432 -58 l 1
 480 -58 l 1
 480 -106 l 1
384 182 m 1
 336 182 l 1
 322.39453125 182 l 1
 322.39453125 214.384765625 l 2
 322.39453125 219.682617188 322.517578125 224.880859375 322.740234375 230 c 1
 336 230 l 1
 384 230 l 1
 384 182 l 1
0 422 m 1
 48 422 l 1
 48 374 l 1
 0 374 l 1
 0 422 l 1
48 374 m 1
 96 374 l 1
 96 326 l 1
 96 278 l 1
 96 230 l 1
 96 182 l 1
 48 182 l 1
 48 230 l 1
 48 278 l 1
 48 326 l 1
 48 374 l 1
192 422 m 1
 210.607421875 422 l 1
 210.607421875 374 l 1
 192 374 l 1
 192 422 l 1
192 374 m 1
 192 326 l 1
 210.607421875 326 l 1
 210.607421875 278 l 1
 192 278 l 1
 144 278 l 1
 144 326 l 1
 144 374 l 1
 192 374 l 1
322.39453125 422 m 1
 335.322265625 422 l 1
 330.897460938 416.092773438 326.588867188 409.931640625 322.39453125 403.513671875 c 1
 322.39453125 422 l 1
738.509765625 422 m 1
 768 422 l 1
 816 422 l 1
 864 422 l 1
 864 374 l 1
 864 326 l 1
 912 326 l 1
 912 278 l 1
 912 230 l 1
 960 230 l 1
 960 182 l 1
 960 134 l 1
 960 86 l 1
 960 38 l 1
 1008 38 l 1
 1008 -10 l 1
 1008 -58 l 1
 960 -58 l 1
 912 -58 l 1
 912 -10 l 1
 864 -10 l 1
 864 -58 l 1
 912 -58 l 1
 912 -106 l 1
 912 -154 l 1
 912 -202 l 1
 864 -202 l 1
 864 -154 l 1
 864 -106 l 1
 816 -106 l 1
 816 -154 l 1
 777.392578125 -154 l 1
 777.392578125 -58 l 1
 816 -58 l 1
 816 -10 l 1
 777.392578125 -10 l 1
 777.392578125 38 l 1
 816 38 l 1
 816 86 l 1
 864 86 l 1
 864 38 l 1
 912 38 l 1
 912 86 l 1
 912 134 l 1
 864 134 l 1
 864 182 l 1
 864 230 l 1
 864 278 l 1
 816 278 l 1
 816 230 l 1
 777.392578125 230 l 1
 777.392578125 240.3671875 l 2
 777.392578125 271.431640625 775.17578125 299.96484375 770.76953125 326 c 1
 816 326 l 1
 816 374 l 1
 768 374 l 1
 768 340.666015625 l 1
 761.5234375 371.604492188 751.6953125 398.71875 738.509765625 422 c 1
912 326 m 1
 912 374 l 1
 960 374 l 1
 960 422 l 1
 1008 422 l 1
 1008 374 l 1
 1008 326 l 1
 960 326 l 1
 912 326 l 1
336 304.83984375 m 2
 336 278 l 1
 328.625 278 l 1
 330.607421875 287.328125 333.071289062 296.270507812 336 304.83984375 c 2
192 230 m 1
 210.607421875 230 l 1
 210.607421875 182 l 1
 192 182 l 1
 192 230 l 1
0 134 m 1
 48 134 l 1
 96 134 l 1
 144 134 l 1
 192 134 l 1
 210.607421875 134 l 1
 210.607421875 86 l 1
 192 86 l 1
 144 86 l 1
 96 86 l 1
 48 86 l 1
 48 38 l 1
 48 -10 l 1
 48 -58 l 1
 48 -106 l 1
 48 -154 l 1
 96 -154 l 1
 144 -154 l 1
 192 -154 l 1
 210.607421875 -154 l 1
 210.607421875 -168.10546875 l 1
 322.39453125 -168.10546875 l 1
 322.39453125 134 l 1
 336 134 l 1
 336 86 l 1
 336 38 l 1
 336 -10 l 1
 336 -58 l 1
 336 -106 l 1
 336 -154 l 1
 336 -202 l 1
 288 -202 l 1
 240 -202 l 1
 192 -202 l 1
 144 -202 l 1
 96 -202 l 1
 48 -202 l 1
 0 -202 l 1
 0 -154 l 1
 0 -106 l 1
 0 -58 l 1
 0 -10 l 1
 0 38 l 1
 0 86 l 1
 0 134 l 1
96 38 m 1
 144 38 l 1
 192 38 l 1
 210.607421875 38 l 1
 210.607421875 -106 l 1
 192 -106 l 1
 144 -106 l 1
 96 -106 l 1
 96 -58 l 1
 96 -10 l 1
 96 38 l 1
384 38 m 1
 432 38 l 1
 432 -10 l 1
 384 -10 l 1
 384 38 l 1
624 -106 m 1
 666.2109375 -106 l 1
 666.2109375 -168.10546875 l 1
 720 -168.10546875 l 1
 720 -202 l 1
 672 -202 l 1
 624 -202 l 1
 576 -202 l 1
 576 -154 l 1
 624 -154 l 1
 624 -106 l 1
384 -154 m 1
 432 -154 l 1
 432 -202 l 1
 384 -202 l 1
 384 -154 l 1
960 -154 m 1
 1008 -154 l 1
 1008 -202 l 1
 960 -202 l 1
 960 -154 l 1
EndSplineSet
EndChar

StartChar: i
Encoding: 105 105 8
Width: 1092
VWidth: 1056
Flags: HW
LayerCount: 2
Fore
SplineSet
0 806 m 1
 48 806 l 1
 96 806 l 1
 144 806 l 1
 192 806 l 1
 240 806 l 1
 288 806 l 1
 336 806 l 1
 336 758 l 1
 336 710 l 1
 336 662 l 1
 336 614 l 1
 336 566 l 1
 336 518 l 1
 336 470 l 1
 288 470 l 1
 240 470 l 1
 192 470 l 1
 144 470 l 1
 96 470 l 1
 48 470 l 1
 0 470 l 1
 0 518 l 1
 0 566 l 1
 0 614 l 1
 0 662 l 1
 0 710 l 1
 0 758 l 1
 0 806 l 1
672 806 m 1
 720 806 l 1
 768 806 l 1
 816 806 l 1
 864 806 l 1
 912 806 l 1
 960 806 l 1
 1008 806 l 1
 1008 758 l 1
 1008 710 l 1
 1008 662 l 1
 1008 614 l 1
 1008 566 l 1
 1008 518 l 1
 1008 470 l 1
 960 470 l 1
 912 470 l 1
 864 470 l 1
 816 470 l 1
 768 470 l 1
 720 470 l 1
 672 470 l 1
 672 518 l 1
 672 566 l 1
 672 614 l 1
 672 662 l 1
 672 710 l 1
 672 758 l 1
 672 806 l 1
48 758 m 1
 48 710 l 1
 48 662 l 1
 48 614 l 1
 48 566 l 1
 48 518 l 1
 96 518 l 1
 144 518 l 1
 192 518 l 1
 240 518 l 1
 288 518 l 1
 288 566 l 1
 288 614 l 1
 288 662 l 1
 288 710 l 1
 288 758 l 1
 240 758 l 1
 192 758 l 1
 144 758 l 1
 96 758 l 1
 48 758 l 1
432 758 m 1
 448.41015625 758 l 1
 448.41015625 631.314453125 l 1
 480 631.314453125 l 1
 480 614 l 1
 432 614 l 1
 432 566 l 1
 480 566 l 1
 480 614 l 1
 528 614 l 1
 528 566 l 1
 576 566 l 1
 576 518 l 1
 528 518 l 1
 528 508.65234375 l 1
 480 508.65234375 l 1
 480 518 l 1
 432 518 l 1
 432 470 l 1
 432 422 l 1
 384 422 l 1
 384 470 l 1
 384 518 l 1
 384 566 l 1
 384 614 l 1
 384 662 l 1
 384 710 l 1
 432 710 l 1
 432 758 l 1
576 566 m 1
 576 614 l 1
 576 662 l 1
 624 662 l 1
 624 614 l 1
 624 566 l 1
 576 566 l 1
576 662 m 1
 559.58984375 662 l 1
 559.58984375 710 l 1
 576 710 l 1
 576 662 l 1
576 518 m 1
 624 518 l 1
 624 470 l 1
 576 470 l 1
 576 518 l 1
432 422 m 1
 448.41015625 422 l 1
 448.41015625 278 l 1
 432 278 l 1
 432 230 l 1
 432 182 l 1
 432 134 l 1
 384 134 l 1
 384 182 l 1
 336 182 l 1
 288 182 l 1
 240 182 l 1
 240 230 l 1
 192 230 l 1
 192 278 l 1
 240 278 l 1
 240 326 l 1
 288 326 l 1
 336 326 l 1
 336 374 l 1
 384 374 l 1
 384 326 l 1
 432 326 l 1
 432 374 l 1
 432 422 l 1
432 134 m 1
 448.41015625 134 l 1
 448.41015625 86 l 1
 432 86 l 1
 432 134 l 1
432 86 m 1
 432 38 l 1
 432 -10 l 1
 432 -58 l 1
 448.41015625 -58 l 1
 448.41015625 -106 l 1
 432 -106 l 1
 384 -106 l 1
 384 -58 l 1
 384 -10 l 1
 384 38 l 1
 384 86 l 1
 432 86 l 1
192 230 m 1
 192 182 l 1
 144 182 l 1
 144 230 l 1
 192 230 l 1
144 230 m 1
 96 230 l 1
 96 278 l 1
 48 278 l 1
 48 326 l 1
 48 374 l 1
 96 374 l 1
 96 422 l 1
 144 422 l 1
 192 422 l 1
 240 422 l 1
 288 422 l 1
 336 422 l 1
 336 374 l 1
 288 374 l 1
 240 374 l 1
 192 374 l 1
 144 374 l 1
 144 326 l 1
 192 326 l 1
 192 278 l 1
 144 278 l 1
 144 230 l 1
96 230 m 1
 96 182 l 1
 48 182 l 1
 48 230 l 1
 96 230 l 1
48 374 m 1
 0 374 l 1
 0 422 l 1
 48 422 l 1
 48 374 l 1
720 758 m 1
 720 710 l 1
 720 662 l 1
 720 614 l 1
 720 566 l 1
 720 518 l 1
 768 518 l 1
 816 518 l 1
 864 518 l 1
 912 518 l 1
 960 518 l 1
 960 566 l 1
 960 614 l 1
 960 662 l 1
 960 710 l 1
 960 758 l 1
 912 758 l 1
 864 758 l 1
 816 758 l 1
 768 758 l 1
 720 758 l 1
96 710 m 1
 144 710 l 1
 192 710 l 1
 240 710 l 1
 240 662 l 1
 240 614 l 1
 240 566 l 1
 192 566 l 1
 144 566 l 1
 96 566 l 1
 96 614 l 1
 96 662 l 1
 96 710 l 1
768 710 m 1
 816 710 l 1
 864 710 l 1
 912 710 l 1
 912 662 l 1
 912 614 l 1
 912 566 l 1
 864 566 l 1
 816 566 l 1
 768 566 l 1
 768 614 l 1
 768 662 l 1
 768 710 l 1
559.58984375 422 m 1
 576 422 l 1
 576 374 l 1
 624 374 l 1
 672 374 l 1
 672 422 l 1
 720 422 l 1
 768 422 l 1
 816 422 l 1
 864 422 l 1
 912 422 l 1
 912 374 l 1
 864 374 l 1
 864 326 l 1
 816 326 l 1
 816 374 l 1
 768 374 l 1
 720 374 l 1
 720 326 l 1
 768 326 l 1
 768 278 l 1
 720 278 l 1
 720 230 l 1
 672 230 l 1
 624 230 l 1
 624 182 l 1
 624 134 l 1
 576 134 l 1
 576 182 l 1
 576 230 l 1
 559.58984375 230 l 1
 559.58984375 278 l 1
 576 278 l 1
 576 326 l 1
 559.58984375 326 l 1
 559.58984375 422 l 1
720 230 m 1
 768 230 l 1
 768 182 l 1
 768 134 l 1
 720 134 l 1
 720 182 l 1
 720 230 l 1
768 134 m 1
 816 134 l 1
 864 134 l 1
 864 182 l 1
 864 230 l 1
 912 230 l 1
 912 182 l 1
 912 134 l 1
 960 134 l 1
 960 86 l 1
 960 38 l 1
 912 38 l 1
 912 -10 l 1
 864 -10 l 1
 864 -58 l 1
 816 -58 l 1
 816 -10 l 1
 768 -10 l 1
 768 38 l 1
 720 38 l 1
 720 86 l 1
 768 86 l 1
 768 134 l 1
864 230 m 1
 816 230 l 1
 816 278 l 1
 864 278 l 1
 864 230 l 1
912 230 m 1
 912 278 l 1
 960 278 l 1
 960 230 l 1
 912 230 l 1
960 230 m 1
 1008 230 l 1
 1008 182 l 1
 1008 134 l 1
 960 134 l 1
 960 182 l 1
 960 230 l 1
624 134 m 1
 672 134 l 1
 672 86 l 1
 624 86 l 1
 624 134 l 1
576 134 m 1
 576 86 l 1
 559.58984375 86 l 1
 559.58984375 134 l 1
 576 134 l 1
624 326 m 1
 624 278 l 1
 672 278 l 1
 672 326 l 1
 624 326 l 1
288 278 m 1
 288 230 l 1
 336 230 l 1
 336 278 l 1
 288 278 l 1
0 134 m 1
 48 134 l 1
 96 134 l 1
 144 134 l 1
 192 134 l 1
 240 134 l 1
 288 134 l 1
 336 134 l 1
 336 86 l 1
 336 38 l 1
 336 -10 l 1
 336 -58 l 1
 336 -106 l 1
 336 -154 l 1
 336 -202 l 1
 288 -202 l 1
 240 -202 l 1
 192 -202 l 1
 144 -202 l 1
 96 -202 l 1
 48 -202 l 1
 0 -202 l 1
 0 -154 l 1
 0 -106 l 1
 0 -58 l 1
 0 -10 l 1
 0 38 l 1
 0 86 l 1
 0 134 l 1
48 86 m 1
 48 38 l 1
 48 -10 l 1
 48 -58 l 1
 48 -106 l 1
 48 -154 l 1
 96 -154 l 1
 144 -154 l 1
 192 -154 l 1
 240 -154 l 1
 288 -154 l 1
 288 -106 l 1
 288 -58 l 1
 288 -10 l 1
 288 38 l 1
 288 86 l 1
 240 86 l 1
 192 86 l 1
 144 86 l 1
 96 86 l 1
 48 86 l 1
816 86 m 1
 816 38 l 1
 864 38 l 1
 864 86 l 1
 816 86 l 1
96 38 m 1
 144 38 l 1
 192 38 l 1
 240 38 l 1
 240 -10 l 1
 240 -58 l 1
 240 -106 l 1
 192 -106 l 1
 144 -106 l 1
 96 -106 l 1
 96 -58 l 1
 96 -10 l 1
 96 38 l 1
559.58984375 38 m 1
 576 38 l 1
 576 -10 l 1
 624 -10 l 1
 624 38 l 1
 672 38 l 1
 672 -10 l 1
 720 -10 l 1
 720 -58 l 1
 768 -58 l 1
 768 -106 l 1
 720 -106 l 1
 720 -154 l 1
 672 -154 l 1
 624 -154 l 1
 624 -202 l 1
 576 -202 l 1
 576 -154 l 1
 559.58984375 -154 l 1
 559.58984375 -106 l 1
 576 -106 l 1
 576 -58 l 1
 559.58984375 -58 l 1
 559.58984375 38 l 1
720 -154 m 1
 768 -154 l 1
 768 -202 l 1
 720 -202 l 1
 720 -154 l 1
624 -58 m 1
 624 -106 l 1
 672 -106 l 1
 672 -58 l 1
 624 -58 l 1
816 -106 m 1
 864 -106 l 1
 864 -154 l 1
 816 -154 l 1
 816 -106 l 1
864 -154 m 1
 912 -154 l 1
 960 -154 l 1
 960 -202 l 1
 912 -202 l 1
 864 -202 l 1
 864 -154 l 1
384 -154 m 1
 432 -154 l 1
 432 -202 l 1
 384 -202 l 1
 384 -154 l 1
EndSplineSet
EndChar

StartChar: j
Encoding: 106 106 9
Width: 1092
VWidth: 1056
Flags: HW
LayerCount: 2
Fore
SplineSet
0 806 m 1
 48 806 l 1
 96 806 l 1
 144 806 l 1
 192 806 l 1
 240 806 l 1
 288 806 l 1
 336 806 l 1
 336 758 l 1
 336 710 l 1
 336 662 l 1
 336 614 l 1
 336 566 l 1
 336 518 l 1
 336 470 l 1
 288 470 l 1
 240 470 l 1
 192 470 l 1
 144 470 l 1
 96 470 l 1
 48 470 l 1
 0 470 l 1
 0 518 l 1
 0 566 l 1
 0 614 l 1
 0 662 l 1
 0 710 l 1
 0 758 l 1
 0 806 l 1
576 806 m 1
 624 806 l 1
 624 758 l 1
 624 710 l 1
 624 662 l 1
 624 614 l 1
 624 566 l 1
 607.080078125 566 l 1
 607.080078125 745.357421875 l 1
 528 745.357421875 l 1
 528 758 l 1
 576 758 l 1
 576 806 l 1
672 806 m 1
 720 806 l 1
 768 806 l 1
 816 806 l 1
 864 806 l 1
 912 806 l 1
 960 806 l 1
 1008 806 l 1
 1008 758 l 1
 1008 710 l 1
 1008 662 l 1
 1008 614 l 1
 1008 566 l 1
 1008 518 l 1
 1008 470 l 1
 960 470 l 1
 912 470 l 1
 864 470 l 1
 816 470 l 1
 768 470 l 1
 720 470 l 1
 672 470 l 1
 672 518 l 1
 672 566 l 1
 672 614 l 1
 672 662 l 1
 672 710 l 1
 672 758 l 1
 672 806 l 1
48 758 m 1
 48 710 l 1
 48 662 l 1
 48 614 l 1
 48 566 l 1
 48 518 l 1
 96 518 l 1
 144 518 l 1
 192 518 l 1
 240 518 l 1
 288 518 l 1
 288 566 l 1
 288 614 l 1
 288 662 l 1
 288 710 l 1
 288 758 l 1
 240 758 l 1
 192 758 l 1
 144 758 l 1
 96 758 l 1
 48 758 l 1
432 758 m 1
 480 758 l 1
 480 710 l 1
 480 662 l 1
 432 662 l 1
 432 614 l 1
 432 566 l 1
 480 566 l 1
 480 614 l 1
 480 662 l 1
 495.8984375 662 l 1
 495.8984375 470 l 1
 480 470 l 1
 480 518 l 1
 432 518 l 1
 432 470 l 1
 432 422 l 1
 384 422 l 1
 384 470 l 1
 384 518 l 1
 384 566 l 1
 384 614 l 1
 384 662 l 1
 384 710 l 1
 432 710 l 1
 432 758 l 1
432 422 m 1
 480 422 l 1
 480 374 l 1
 495.8984375 374 l 1
 495.8984375 326 l 1
 480 326 l 1
 432 326 l 1
 432 278 l 1
 432 230 l 1
 384 230 l 1
 384 182 l 1
 336 182 l 1
 288 182 l 1
 288 230 l 1
 336 230 l 1
 336 278 l 1
 384 278 l 1
 384 326 l 1
 384 374 l 1
 432 374 l 1
 432 422 l 1
384 182 m 1
 432 182 l 1
 480 182 l 1
 495.8984375 182 l 1
 495.8984375 86 l 1
 480 86 l 1
 480 134 l 1
 432 134 l 1
 384 134 l 1
 384 182 l 1
480 86 m 1
 480 38 l 1
 495.62890625 38 l 1
 495.125 19.8974609375 493.868164062 3.8701171875 491.83203125 -10 c 1
 480 -10 l 1
 480 -53.384765625 l 2
 477.860351562 -57.828125 475.5078125 -61.6904296875 472.935546875 -64.939453125 c 0
 457.627929688 -84.677734375 428.826171875 -94.546875 386.529296875 -94.546875 c 2
 384 -94.546875 l 1
 384 -58 l 1
 384 -10 l 1
 384 38 l 1
 384 86 l 1
 432 86 l 1
 480 86 l 1
288 230 m 1
 240 230 l 1
 240 182 l 1
 192 182 l 1
 144 182 l 1
 144 230 l 1
 192 230 l 1
 192 278 l 1
 240 278 l 1
 288 278 l 1
 288 230 l 1
144 230 m 1
 96 230 l 1
 96 278 l 1
 144 278 l 1
 144 230 l 1
96 278 m 1
 48 278 l 1
 48 326 l 1
 48 374 l 1
 96 374 l 1
 96 326 l 1
 96 278 l 1
48 374 m 1
 0 374 l 1
 0 422 l 1
 48 422 l 1
 48 374 l 1
96 374 m 1
 96 422 l 1
 144 422 l 1
 192 422 l 1
 240 422 l 1
 288 422 l 1
 336 422 l 1
 336 374 l 1
 288 374 l 1
 240 374 l 1
 240 326 l 1
 192 326 l 1
 192 374 l 1
 144 374 l 1
 96 374 l 1
192 326 m 1
 192 278 l 1
 144 278 l 1
 144 326 l 1
 192 326 l 1
288 278 m 1
 288 326 l 1
 336 326 l 1
 336 278 l 1
 288 278 l 1
720 758 m 1
 720 710 l 1
 720 662 l 1
 720 614 l 1
 720 566 l 1
 720 518 l 1
 768 518 l 1
 816 518 l 1
 864 518 l 1
 912 518 l 1
 960 518 l 1
 960 566 l 1
 960 614 l 1
 960 662 l 1
 960 710 l 1
 960 758 l 1
 912 758 l 1
 864 758 l 1
 816 758 l 1
 768 758 l 1
 720 758 l 1
96 710 m 1
 144 710 l 1
 192 710 l 1
 240 710 l 1
 240 662 l 1
 240 614 l 1
 240 566 l 1
 192 566 l 1
 144 566 l 1
 96 566 l 1
 96 614 l 1
 96 662 l 1
 96 710 l 1
768 710 m 1
 816 710 l 1
 864 710 l 1
 912 710 l 1
 912 662 l 1
 912 614 l 1
 912 566 l 1
 864 566 l 1
 816 566 l 1
 768 566 l 1
 768 614 l 1
 768 662 l 1
 768 710 l 1
607.080078125 518 m 1
 624 518 l 1
 624 470 l 1
 607.080078125 470 l 1
 607.080078125 518 l 1
672 422 m 1
 720 422 l 1
 768 422 l 1
 816 422 l 1
 864 422 l 1
 912 422 l 1
 912 374 l 1
 864 374 l 1
 864 326 l 1
 816 326 l 1
 816 374 l 1
 768 374 l 1
 720 374 l 1
 720 326 l 1
 768 326 l 1
 768 278 l 1
 720 278 l 1
 720 230 l 1
 672 230 l 1
 624 230 l 1
 624 182 l 1
 624 134 l 1
 607.080078125 134 l 1
 607.080078125 374 l 1
 624 374 l 1
 672 374 l 1
 672 422 l 1
720 230 m 1
 768 230 l 1
 768 182 l 1
 768 134 l 1
 720 134 l 1
 720 182 l 1
 720 230 l 1
768 134 m 1
 816 134 l 1
 864 134 l 1
 864 182 l 1
 864 230 l 1
 912 230 l 1
 912 182 l 1
 912 134 l 1
 960 134 l 1
 960 86 l 1
 960 38 l 1
 912 38 l 1
 912 -10 l 1
 864 -10 l 1
 864 -58 l 1
 816 -58 l 1
 816 -10 l 1
 768 -10 l 1
 768 38 l 1
 720 38 l 1
 720 86 l 1
 768 86 l 1
 768 134 l 1
864 230 m 1
 816 230 l 1
 816 278 l 1
 864 278 l 1
 864 230 l 1
960 134 m 1
 960 182 l 1
 960 230 l 1
 960 278 l 1
 1008 278 l 1
 1008 230 l 1
 1008 182 l 1
 1008 134 l 1
 960 134 l 1
624 134 m 1
 672 134 l 1
 672 86 l 1
 624 86 l 1
 624 134 l 1
624 326 m 1
 624 278 l 1
 672 278 l 1
 672 326 l 1
 624 326 l 1
0 134 m 1
 48 134 l 1
 96 134 l 1
 144 134 l 1
 192 134 l 1
 240 134 l 1
 288 134 l 1
 336 134 l 1
 336 86 l 1
 336 38 l 1
 336 -10 l 1
 336 -58 l 1
 336 -106 l 1
 336 -154 l 1
 336 -202 l 1
 288 -202 l 1
 240 -202 l 1
 192 -202 l 1
 144 -202 l 1
 96 -202 l 1
 48 -202 l 1
 0 -202 l 1
 0 -154 l 1
 0 -106 l 1
 0 -58 l 1
 0 -10 l 1
 0 38 l 1
 0 86 l 1
 0 134 l 1
48 86 m 1
 48 38 l 1
 48 -10 l 1
 48 -58 l 1
 48 -106 l 1
 48 -154 l 1
 96 -154 l 1
 144 -154 l 1
 192 -154 l 1
 240 -154 l 1
 288 -154 l 1
 288 -106 l 1
 288 -58 l 1
 288 -10 l 1
 288 38 l 1
 288 86 l 1
 240 86 l 1
 192 86 l 1
 144 86 l 1
 96 86 l 1
 48 86 l 1
816 86 m 1
 816 38 l 1
 864 38 l 1
 864 86 l 1
 816 86 l 1
96 38 m 1
 144 38 l 1
 192 38 l 1
 240 38 l 1
 240 -10 l 1
 240 -58 l 1
 240 -106 l 1
 192 -106 l 1
 144 -106 l 1
 96 -106 l 1
 96 -58 l 1
 96 -10 l 1
 96 38 l 1
624 38 m 1
 672 38 l 1
 672 -10 l 1
 720 -10 l 1
 720 -58 l 1
 768 -58 l 1
 768 -106 l 1
 720 -106 l 1
 720 -154 l 1
 672 -154 l 1
 624 -154 l 1
 624 -202 l 1
 576 -202 l 1
 576 -154 l 1
 532.380859375 -154 l 1
 541.78515625 -147.247070312 550.174804688 -139.521484375 557.53125 -130.802734375 c 0
 563.848632812 -123.407226562 569.5546875 -115.133789062 574.6640625 -106 c 1
 576 -106 l 1
 576 -103.548828125 l 1
 589.424804688 -78.623046875 598.506835938 -47.447265625 603.23046875 -10 c 1
 624 -10 l 1
 624 38 l 1
720 -154 m 1
 768 -154 l 1
 768 -202 l 1
 720 -202 l 1
 720 -154 l 1
624 -58 m 1
 624 -106 l 1
 672 -106 l 1
 672 -58 l 1
 624 -58 l 1
816 -106 m 1
 864 -106 l 1
 864 -154 l 1
 816 -154 l 1
 816 -106 l 1
864 -154 m 1
 912 -154 l 1
 960 -154 l 1
 960 -202 l 1
 912 -202 l 1
 864 -202 l 1
 864 -154 l 1
528 -157.021484375 m 1
 528 -202 l 1
 480 -202 l 1
 480 -178.68359375 l 1
 498.095703125 -173.474609375 514.096679688 -166.254882812 528 -157.021484375 c 1
432 -187.38671875 m 1
 432 -202 l 1
 384 -202 l 1
 384 -188.810546875 l 1
 399.21875 -188.810546875 l 2
 410.640625 -188.810546875 421.56640625 -188.3359375 432 -187.38671875 c 1
EndSplineSet
EndChar

StartChar: k
Encoding: 107 107 10
Width: 1092
VWidth: 1056
Flags: HW
LayerCount: 2
Fore
SplineSet
0 806 m 1
 48 806 l 1
 96 806 l 1
 144 806 l 1
 192 806 l 1
 240 806 l 1
 288 806 l 1
 336 806 l 1
 336 758 l 1
 336 710 l 1
 336 662 l 1
 336 614 l 1
 336 566 l 1
 336 518 l 1
 336 470 l 1
 319.474609375 470 l 1
 319.474609375 772.10546875 l 1
 207.689453125 772.10546875 l 1
 207.689453125 758 l 1
 192 758 l 1
 144 758 l 1
 96 758 l 1
 48 758 l 1
 48 710 l 1
 48 662 l 1
 48 614 l 1
 48 566 l 1
 48 518 l 1
 96 518 l 1
 144 518 l 1
 192 518 l 1
 207.689453125 518 l 1
 207.689453125 470 l 1
 192 470 l 1
 144 470 l 1
 96 470 l 1
 48 470 l 1
 0 470 l 1
 0 518 l 1
 0 566 l 1
 0 614 l 1
 0 662 l 1
 0 710 l 1
 0 758 l 1
 0 806 l 1
384 806 m 1
 432 806 l 1
 480 806 l 1
 480 758 l 1
 480 710 l 1
 480 662 l 1
 480 614 l 1
 432 614 l 1
 432 566 l 1
 480 566 l 1
 480 518 l 1
 432 518 l 1
 432 470 l 1
 432 422 l 1
 480 422 l 1
 480 470 l 1
 480 518 l 1
 528 518 l 1
 528 470 l 1
 576 470 l 1
 576 518 l 1
 624 518 l 1
 624 484.716796875 l 1
 432 315.798828125 l 1
 432 326 l 1
 432 374 l 1
 384 374 l 1
 336 374 l 1
 319.474609375 374 l 1
 319.474609375 422 l 1
 336 422 l 1
 384 422 l 1
 384 470 l 1
 384 518 l 1
 384 566 l 1
 384 614 l 1
 384 662 l 1
 432 662 l 1
 432 710 l 1
 432 758 l 1
 384 758 l 1
 384 806 l 1
528 518 m 1
 528 566 l 1
 576 566 l 1
 576 518 l 1
 528 518 l 1
576 566 m 1
 576 614 l 1
 528 614 l 1
 528 662 l 1
 528 710 l 1
 528 758 l 1
 528 806 l 1
 576 806 l 1
 624 806 l 1
 624 758 l 1
 624 710 l 1
 576 710 l 1
 576 662 l 1
 624 662 l 1
 624 614 l 1
 624 566 l 1
 576 566 l 1
672 806 m 1
 720 806 l 1
 768 806 l 1
 816 806 l 1
 864 806 l 1
 912 806 l 1
 960 806 l 1
 1008 806 l 1
 1008 758 l 1
 1008 710 l 1
 1008 662 l 1
 1008 614 l 1
 1008 566 l 1
 1008 518 l 1
 1008 470 l 1
 960 470 l 1
 912 470 l 1
 864 470 l 1
 816 470 l 1
 768 470 l 1
 749.388671875 470 l 1
 793.205078125 508.65234375 l 1
 672 508.65234375 l 1
 672 518 l 1
 672 566 l 1
 672 614 l 1
 672 662 l 1
 672 710 l 1
 672 758 l 1
 672 806 l 1
720 758 m 1
 720 710 l 1
 720 662 l 1
 720 614 l 1
 720 566 l 1
 720 518 l 1
 768 518 l 1
 816 518 l 1
 864 518 l 1
 912 518 l 1
 960 518 l 1
 960 566 l 1
 960 614 l 1
 960 662 l 1
 960 710 l 1
 960 758 l 1
 912 758 l 1
 864 758 l 1
 816 758 l 1
 768 758 l 1
 720 758 l 1
96 710 m 1
 144 710 l 1
 192 710 l 1
 207.689453125 710 l 1
 207.689453125 566 l 1
 192 566 l 1
 144 566 l 1
 96 566 l 1
 96 614 l 1
 96 662 l 1
 96 710 l 1
768 710 m 1
 816 710 l 1
 864 710 l 1
 912 710 l 1
 912 662 l 1
 912 614 l 1
 912 566 l 1
 864 566 l 1
 816 566 l 1
 768 566 l 1
 768 614 l 1
 768 662 l 1
 768 710 l 1
0 422 m 1
 48 422 l 1
 48 374 l 1
 0 374 l 1
 0 422 l 1
48 374 m 1
 96 374 l 1
 144 374 l 1
 192 374 l 1
 192 422 l 1
 207.689453125 422 l 1
 207.689453125 278 l 1
 192 278 l 1
 144 278 l 1
 96 278 l 1
 96 230 l 1
 48 230 l 1
 48 278 l 1
 48 326 l 1
 48 374 l 1
694.9765625 422 m 1
 720 422 l 1
 768 422 l 1
 816 422 l 1
 864 422 l 1
 864 374 l 1
 864 326 l 1
 912 326 l 1
 912 278 l 1
 960 278 l 1
 1008 278 l 1
 1008 230 l 1
 960 230 l 1
 960 182 l 1
 960 134 l 1
 960 86 l 1
 960 38 l 1
 1008 38 l 1
 1008 -10 l 1
 1008 -58 l 1
 960 -58 l 1
 912 -58 l 1
 912 -10 l 1
 864 -10 l 1
 864 -58 l 1
 912 -58 l 1
 912 -106 l 1
 912 -154 l 1
 912 -202 l 1
 864 -202 l 1
 864 -154 l 1
 864 -106 l 1
 816 -106 l 1
 816 -154 l 1
 793.66015625 -154 l 1
 768 -129.29296875 l 1
 768 -106 l 1
 743.80859375 -106 l 1
 693.95703125 -58 l 1
 720 -58 l 1
 720 -10 l 1
 672 -10 l 1
 672 38 l 1
 720 38 l 1
 720 86 l 1
 768 86 l 1
 768 38 l 1
 816 38 l 1
 816 86 l 1
 864 86 l 1
 864 38 l 1
 912 38 l 1
 912 86 l 1
 912 134 l 1
 864 134 l 1
 864 182 l 1
 864 230 l 1
 864 278 l 1
 816 278 l 1
 816 230 l 1
 768 230 l 1
 768 278 l 1
 720 278 l 1
 720 230 l 1
 720 182 l 1
 720 134 l 1
 672 134 l 1
 672 86 l 1
 624 86 l 1
 624 38 l 1
 594.251953125 38 l 1
 544.400390625 86 l 1
 576 86 l 1
 576 134 l 1
 576 182 l 1
 576 230 l 1
 624 230 l 1
 624 278 l 1
 672 278 l 1
 672 326 l 1
 720 326 l 1
 720 374 l 1
 672 374 l 1
 640.564453125 374 l 1
 694.9765625 422 l 1
912 326 m 1
 912 374 l 1
 960 374 l 1
 960 422 l 1
 1008 422 l 1
 1008 374 l 1
 1008 326 l 1
 960 326 l 1
 912 326 l 1
768 374 m 1
 768 326 l 1
 816 326 l 1
 816 374 l 1
 768 374 l 1
624 359.388671875 m 1
 624 326 l 1
 586.15234375 326 l 1
 624 359.388671875 l 1
319.474609375 326 m 1
 336 326 l 1
 384 326 l 1
 384 278 l 1
 336 278 l 1
 319.474609375 278 l 1
 319.474609375 326 l 1
576 317.044921875 m 1
 576 278 l 1
 531.73828125 278 l 1
 576 317.044921875 l 1
528 274.701171875 m 1
 528 230 l 1
 480 230 l 1
 480 232.357421875 l 1
 528 274.701171875 l 1
480 230 m 1
 480 182 l 1
 444.6953125 182 l 1
 434.28125 192.02734375 l 1
 477.326171875 230 l 1
 480 230 l 1
480 182 m 1
 528 182 l 1
 528 134 l 1
 528 101.791015625 l 1
 480 148.0078125 l 1
 480 182 l 1
319.474609375 230 m 1
 334.4765625 230 l 1
 319.474609375 216.80078125 l 1
 319.474609375 230 l 1
0 134 m 1
 48 134 l 1
 96 134 l 1
 144 134 l 1
 192 134 l 1
 207.689453125 134 l 1
 207.689453125 86 l 1
 192 86 l 1
 144 86 l 1
 96 86 l 1
 48 86 l 1
 48 38 l 1
 48 -10 l 1
 48 -58 l 1
 48 -106 l 1
 48 -154 l 1
 96 -154 l 1
 144 -154 l 1
 192 -154 l 1
 207.689453125 -154 l 1
 207.689453125 -168.10546875 l 1
 319.474609375 -168.10546875 l 1
 319.474609375 134 l 1
 336 134 l 1
 336 86 l 1
 336 38 l 1
 336 -10 l 1
 336 -58 l 1
 336 -106 l 1
 336 -154 l 1
 336 -202 l 1
 288 -202 l 1
 240 -202 l 1
 192 -202 l 1
 144 -202 l 1
 96 -202 l 1
 48 -202 l 1
 0 -202 l 1
 0 -154 l 1
 0 -106 l 1
 0 -58 l 1
 0 -10 l 1
 0 38 l 1
 0 86 l 1
 0 134 l 1
384 100.38671875 m 1
 398.966796875 86 l 1
 384 86 l 1
 384 100.38671875 l 1
432 54.2421875 m 1
 480 8.099609375 l 1
 480 -10 l 1
 498.826171875 -10 l 1
 576 -84.189453125 l 1
 576 -106 l 1
 528 -106 l 1
 528 -58 l 1
 480 -58 l 1
 480 -106 l 1
 528 -106 l 1
 528 -154 l 1
 528 -202 l 1
 480 -202 l 1
 480 -154 l 1
 432 -154 l 1
 432 -106 l 1
 432 -58 l 1
 432 -10 l 1
 384 -10 l 1
 384 38 l 1
 432 38 l 1
 432 54.2421875 l 1
432 -154 m 1
 432 -202 l 1
 384 -202 l 1
 384 -154 l 1
 432 -154 l 1
96 38 m 1
 144 38 l 1
 192 38 l 1
 207.689453125 38 l 1
 207.689453125 -106 l 1
 192 -106 l 1
 144 -106 l 1
 96 -106 l 1
 96 -58 l 1
 96 -10 l 1
 96 38 l 1
768 -10 m 1
 768 -58 l 1
 816 -58 l 1
 816 -10 l 1
 768 -10 l 1
624 -130.333984375 m 1
 663.291015625 -168.10546875 l 1
 720 -168.10546875 l 1
 720 -202 l 1
 672 -202 l 1
 624 -202 l 1
 576 -202 l 1
 576 -154 l 1
 624 -154 l 1
 624 -130.333984375 l 1
960 -154 m 1
 1008 -154 l 1
 1008 -202 l 1
 960 -202 l 1
 960 -154 l 1
EndSplineSet
EndChar

StartChar: l
Encoding: 108 108 11
Width: 1092
VWidth: 1056
Flags: HW
LayerCount: 2
Fore
SplineSet
0 806 m 1
 48 806 l 1
 96 806 l 1
 144 806 l 1
 192 806 l 1
 240 806 l 1
 288 806 l 1
 336 806 l 1
 336 758 l 1
 336 710 l 1
 336 662 l 1
 336 614 l 1
 336 566 l 1
 336 518 l 1
 336 470 l 1
 288 470 l 1
 240 470 l 1
 192 470 l 1
 144 470 l 1
 96 470 l 1
 48 470 l 1
 0 470 l 1
 0 518 l 1
 0 566 l 1
 0 614 l 1
 0 662 l 1
 0 710 l 1
 0 758 l 1
 0 806 l 1
384 806 m 1
 432 806 l 1
 432 758 l 1
 384 758 l 1
 384 806 l 1
432 758 m 1
 448.41015625 758 l 1
 448.41015625 710 l 1
 432 710 l 1
 432 758 l 1
576 806 m 1
 624 806 l 1
 624 758 l 1
 576 758 l 1
 576 806 l 1
672 806 m 1
 720 806 l 1
 768 806 l 1
 816 806 l 1
 864 806 l 1
 912 806 l 1
 960 806 l 1
 1008 806 l 1
 1008 758 l 1
 1008 710 l 1
 1008 662 l 1
 1008 614 l 1
 1008 566 l 1
 1008 518 l 1
 1008 470 l 1
 960 470 l 1
 912 470 l 1
 864 470 l 1
 816 470 l 1
 768 470 l 1
 720 470 l 1
 672 470 l 1
 672 518 l 1
 672 566 l 1
 672 614 l 1
 672 662 l 1
 672 710 l 1
 672 758 l 1
 672 806 l 1
48 758 m 1
 48 710 l 1
 48 662 l 1
 48 614 l 1
 48 566 l 1
 48 518 l 1
 96 518 l 1
 144 518 l 1
 192 518 l 1
 240 518 l 1
 288 518 l 1
 288 566 l 1
 288 614 l 1
 288 662 l 1
 288 710 l 1
 288 758 l 1
 240 758 l 1
 192 758 l 1
 144 758 l 1
 96 758 l 1
 48 758 l 1
720 758 m 1
 720 710 l 1
 720 662 l 1
 720 614 l 1
 720 566 l 1
 720 518 l 1
 768 518 l 1
 816 518 l 1
 864 518 l 1
 912 518 l 1
 960 518 l 1
 960 566 l 1
 960 614 l 1
 960 662 l 1
 960 710 l 1
 960 758 l 1
 912 758 l 1
 864 758 l 1
 816 758 l 1
 768 758 l 1
 720 758 l 1
96 710 m 1
 144 710 l 1
 192 710 l 1
 240 710 l 1
 240 662 l 1
 240 614 l 1
 240 566 l 1
 192 566 l 1
 144 566 l 1
 96 566 l 1
 96 614 l 1
 96 662 l 1
 96 710 l 1
559.58984375 710 m 1
 576 710 l 1
 576 662 l 1
 624 662 l 1
 624 614 l 1
 624 566 l 1
 576 566 l 1
 576 614 l 1
 559.58984375 614 l 1
 559.58984375 710 l 1
576 566 m 1
 576 518 l 1
 559.58984375 518 l 1
 559.58984375 566 l 1
 576 566 l 1
576 518 m 1
 624 518 l 1
 624 470 l 1
 624 422 l 1
 576 422 l 1
 576 374 l 1
 624 374 l 1
 624 326 l 1
 576 326 l 1
 576 278 l 1
 559.58984375 278 l 1
 559.58984375 470 l 1
 576 470 l 1
 576 518 l 1
624 422 m 1
 672 422 l 1
 720 422 l 1
 768 422 l 1
 816 422 l 1
 864 422 l 1
 864 374 l 1
 864 326 l 1
 912 326 l 1
 912 278 l 1
 912 230 l 1
 912 182 l 1
 960 182 l 1
 960 134 l 1
 960 86 l 1
 960 38 l 1
 1008 38 l 1
 1008 -10 l 1
 1008 -58 l 1
 960 -58 l 1
 912 -58 l 1
 912 -10 l 1
 864 -10 l 1
 864 -58 l 1
 912 -58 l 1
 912 -106 l 1
 912 -154 l 1
 912 -202 l 1
 864 -202 l 1
 864 -154 l 1
 864 -106 l 1
 816 -106 l 1
 816 -154 l 1
 768 -154 l 1
 768 -106 l 1
 720 -106 l 1
 720 -154 l 1
 720 -202 l 1
 672 -202 l 1
 624 -202 l 1
 576 -202 l 1
 576 -154 l 1
 624 -154 l 1
 624 -106 l 1
 672 -106 l 1
 672 -58 l 1
 720 -58 l 1
 720 -10 l 1
 672 -10 l 1
 672 38 l 1
 720 38 l 1
 720 86 l 1
 768 86 l 1
 768 38 l 1
 816 38 l 1
 816 86 l 1
 864 86 l 1
 864 38 l 1
 912 38 l 1
 912 86 l 1
 912 134 l 1
 864 134 l 1
 864 182 l 1
 864 230 l 1
 864 278 l 1
 816 278 l 1
 816 230 l 1
 768 230 l 1
 768 278 l 1
 720 278 l 1
 720 230 l 1
 720 182 l 1
 720 134 l 1
 672 134 l 1
 672 86 l 1
 624 86 l 1
 624 38 l 1
 576 38 l 1
 576 -10 l 1
 624 -10 l 1
 624 -58 l 1
 576 -58 l 1
 576 -106 l 1
 559.58984375 -106 l 1
 559.58984375 86 l 1
 576 86 l 1
 576 134 l 1
 576 182 l 1
 576 230 l 1
 624 230 l 1
 624 278 l 1
 672 278 l 1
 672 326 l 1
 720 326 l 1
 720 374 l 1
 672 374 l 1
 624 374 l 1
 624 422 l 1
912 326 m 1
 912 374 l 1
 960 374 l 1
 960 422 l 1
 1008 422 l 1
 1008 374 l 1
 1008 326 l 1
 960 326 l 1
 912 326 l 1
768 710 m 1
 816 710 l 1
 864 710 l 1
 912 710 l 1
 912 662 l 1
 912 614 l 1
 912 566 l 1
 864 566 l 1
 816 566 l 1
 768 566 l 1
 768 614 l 1
 768 662 l 1
 768 710 l 1
384 662 m 1
 432 662 l 1
 432 614 l 1
 448.41015625 614 l 1
 448.41015625 518 l 1
 432 518 l 1
 432 470 l 1
 432 422 l 1
 432 374 l 1
 432 326 l 1
 448.41015625 326 l 1
 448.41015625 230 l 1
 432 230 l 1
 432 182 l 1
 432 134 l 1
 432 86 l 1
 384 86 l 1
 384 134 l 1
 384 182 l 1
 384 230 l 1
 384 278 l 1
 384 326 l 1
 384 374 l 1
 336 374 l 1
 288 374 l 1
 288 422 l 1
 336 422 l 1
 384 422 l 1
 384 470 l 1
 384 518 l 1
 384 566 l 1
 384 614 l 1
 384 662 l 1
432 86 m 1
 448.41015625 86 l 1
 448.41015625 38 l 1
 432 38 l 1
 432 86 l 1
432 38 m 1
 432 -10 l 1
 384 -10 l 1
 384 38 l 1
 432 38 l 1
288 374 m 1
 288 326 l 1
 336 326 l 1
 336 278 l 1
 288 278 l 1
 240 278 l 1
 240 230 l 1
 288 230 l 1
 336 230 l 1
 336 182 l 1
 288 182 l 1
 240 182 l 1
 192 182 l 1
 192 230 l 1
 192 278 l 1
 144 278 l 1
 144 326 l 1
 192 326 l 1
 240 326 l 1
 240 374 l 1
 288 374 l 1
144 278 m 1
 144 230 l 1
 96 230 l 1
 96 278 l 1
 144 278 l 1
96 230 m 1
 96 182 l 1
 48 182 l 1
 48 230 l 1
 96 230 l 1
96 278 m 1
 48 278 l 1
 48 326 l 1
 48 374 l 1
 96 374 l 1
 144 374 l 1
 144 326 l 1
 96 326 l 1
 96 278 l 1
48 374 m 1
 0 374 l 1
 0 422 l 1
 48 422 l 1
 48 374 l 1
240 374 m 1
 192 374 l 1
 192 422 l 1
 240 422 l 1
 240 374 l 1
768 374 m 1
 768 326 l 1
 816 326 l 1
 816 374 l 1
 768 374 l 1
0 134 m 1
 48 134 l 1
 96 134 l 1
 144 134 l 1
 192 134 l 1
 240 134 l 1
 288 134 l 1
 336 134 l 1
 336 86 l 1
 336 38 l 1
 336 -10 l 1
 336 -58 l 1
 336 -106 l 1
 336 -154 l 1
 336 -202 l 1
 288 -202 l 1
 240 -202 l 1
 192 -202 l 1
 144 -202 l 1
 96 -202 l 1
 48 -202 l 1
 0 -202 l 1
 0 -154 l 1
 0 -106 l 1
 0 -58 l 1
 0 -10 l 1
 0 38 l 1
 0 86 l 1
 0 134 l 1
48 86 m 1
 48 38 l 1
 48 -10 l 1
 48 -58 l 1
 48 -106 l 1
 48 -154 l 1
 96 -154 l 1
 144 -154 l 1
 192 -154 l 1
 240 -154 l 1
 288 -154 l 1
 288 -106 l 1
 288 -58 l 1
 288 -10 l 1
 288 38 l 1
 288 86 l 1
 240 86 l 1
 192 86 l 1
 144 86 l 1
 96 86 l 1
 48 86 l 1
96 38 m 1
 144 38 l 1
 192 38 l 1
 240 38 l 1
 240 -10 l 1
 240 -58 l 1
 240 -106 l 1
 192 -106 l 1
 144 -106 l 1
 96 -106 l 1
 96 -58 l 1
 96 -10 l 1
 96 38 l 1
768 -10 m 1
 768 -58 l 1
 816 -58 l 1
 816 -10 l 1
 768 -10 l 1
432 -58 m 1
 448.41015625 -58 l 1
 448.41015625 -106 l 1
 432 -106 l 1
 432 -58 l 1
384 -154 m 1
 432 -154 l 1
 448.41015625 -154 l 1
 448.41015625 -168.10546875 l 1
 528 -168.10546875 l 1
 528 -202 l 1
 480 -202 l 1
 432 -202 l 1
 384 -202 l 1
 384 -154 l 1
960 -154 m 1
 1008 -154 l 1
 1008 -202 l 1
 960 -202 l 1
 960 -154 l 1
EndSplineSet
EndChar

StartChar: m
Encoding: 109 109 12
Width: 1092
VWidth: 1056
Flags: HW
LayerCount: 2
Fore
SplineSet
0 806 m 1
 48 806 l 1
 96 806 l 1
 144 806 l 1
 192 806 l 1
 240 806 l 1
 288 806 l 1
 336 806 l 1
 336 758 l 1
 336 710 l 1
 336 662 l 1
 336 648.4921875 l 1
 319.193359375 648.239257812 303.194335938 646.788085938 288 644.140625 c 1
 288 662 l 1
 288 710 l 1
 288 758 l 1
 240 758 l 1
 192 758 l 1
 144 758 l 1
 96 758 l 1
 48 758 l 1
 48 710 l 1
 48 662 l 1
 48 632.220703125 l 1
 12.02734375 632.220703125 l 1
 12.02734375 470 l 1
 0 470 l 1
 0 518 l 1
 0 566 l 1
 0 614 l 1
 0 662 l 1
 0 710 l 1
 0 758 l 1
 0 806 l 1
384 806 m 1
 432 806 l 1
 480 806 l 1
 480 758 l 1
 432 758 l 1
 432 710 l 1
 384 710 l 1
 384 758 l 1
 384 806 l 1
432 710 m 1
 480 710 l 1
 480 662 l 1
 480 614 l 1
 462.275390625 614 l 1
 439.397460938 629.74609375 413.305664062 640.107421875 384 645.08203125 c 1
 384 662 l 1
 432 662 l 1
 432 710 l 1
528 806 m 1
 576 806 l 1
 624 806 l 1
 624 758 l 1
 624 710 l 1
 576 710 l 1
 576 662 l 1
 624 662 l 1
 624 614 l 1
 576 614 l 1
 576 566 l 1
 587.677734375 566 l 1
 575.1171875 551.885742188 563.341796875 535.885742188 552.34765625 518 c 1
 537.201171875 518 l 1
 529.872070312 535.756835938 521.130859375 551.7578125 510.9765625 566 c 1
 528 566 l 1
 528 614 l 1
 528 662 l 1
 528 710 l 1
 528 758 l 1
 528 806 l 1
672 806 m 1
 720 806 l 1
 768 806 l 1
 816 806 l 1
 864 806 l 1
 912 806 l 1
 960 806 l 1
 1008 806 l 1
 1008 758 l 1
 1008 710 l 1
 1008 662 l 1
 1008 614 l 1
 1008 566 l 1
 1008 518 l 1
 1008 470 l 1
 989.29296875 470 l 1
 982.640625 499.423828125 972.874023438 525.439453125 960 548.052734375 c 1
 960 566 l 1
 960 614 l 1
 960 662 l 1
 960 710 l 1
 960 758 l 1
 912 758 l 1
 864 758 l 1
 816 758 l 1
 768 758 l 1
 720 758 l 1
 720 710 l 1
 720 662 l 1
 720 642.8515625 l 1
 703.111328125 639.436523438 687.112304688 634.479492188 672 627.982421875 c 1
 672 662 l 1
 672 710 l 1
 672 758 l 1
 672 806 l 1
96 710 m 1
 144 710 l 1
 192 710 l 1
 240 710 l 1
 240 662 l 1
 240 630.75 l 1
 231.349609375 627.307617188 223.032226562 623.370117188 215.0546875 618.927734375 c 0
 191.786132812 605.970703125 170.685546875 588.329101562 151.755859375 566 c 1
 144 566 l 1
 123.8125 566 l 1
 123.8125 632.220703125 l 1
 96 632.220703125 l 1
 96 662 l 1
 96 710 l 1
768 710 m 1
 816 710 l 1
 864 710 l 1
 912 710 l 1
 912 662 l 1
 912 614 l 1
 912 605.775390625 l 1
 877.072265625 634.2734375 832.885742188 648.537109375 779.421875 648.537109375 c 0
 775.576171875 648.537109375 771.772460938 648.463867188 768 648.3359375 c 2
 768 662 l 1
 768 710 l 1
309.31640625 551.857421875 m 0
 318.690429688 551.857421875 327.581054688 551.24609375 336 550.044921875 c 1
 336 518 l 1
 336 470 l 1
 288 470 l 1
 240 470 l 1
 192 470 l 1
 156.388671875 470 l 1
 161.620117188 478.463867188 167.47265625 486.418945312 173.96484375 493.849609375 c 0
 181.861328125 502.983398438 190.418945312 511.0234375 199.619140625 518 c 1
 240 518 l 1
 288 518 l 1
 288 550.892578125 l 1
 294.9140625 551.53125 302.016601562 551.857421875 309.31640625 551.857421875 c 0
720 550.1484375 m 1
 720 518 l 1
 768 518 l 1
 816 518 l 1
 842.390625 518 l 1
 846.455078125 513.938476562 850.2421875 509.516601562 853.744140625 504.724609375 c 0
 860.986328125 494.813476562 867.084960938 483.237304688 872.04296875 470 c 1
 864 470 l 1
 816 470 l 1
 768 470 l 1
 720 470 l 1
 672 470 l 1
 672 518 l 1
 672 537.8046875 l 1
 686.739257812 543.916015625 702.741210938 548.026367188 720 550.1484375 c 1
384 518 m 1
 404.283203125 518 l 1
 408.366210938 513.938476562 412.162109375 509.516601562 415.6640625 504.724609375 c 0
 421.979492188 496.193359375 427.421875 486.359375 432 475.23828125 c 1
 432 470 l 1
 434.05859375 470 l 1
 443.637695312 444.397460938 448.924804688 412.39453125 449.92578125 374 c 1
 432 374 l 1
 432 422 l 1
 384 422 l 1
 384 470 l 1
 384 518 l 1
384 422 m 1
 384 374 l 1
 336 374 l 1
 288 374 l 1
 288 326 l 1
 240 326 l 1
 240 374 l 1
 240 422 l 1
 288 422 l 1
 336 422 l 1
 384 422 l 1
288 326 m 1
 336 326 l 1
 384 326 l 1
 432 326 l 1
 450.107421875 326 l 1
 450.107421875 278 l 1
 432 278 l 1
 384 278 l 1
 336 278 l 1
 288 278 l 1
 288 326 l 1
288 278 m 1
 288 230 l 1
 336 230 l 1
 336 182 l 1
 288 182 l 1
 240 182 l 1
 240 230 l 1
 192 230 l 1
 192 182 l 1
 144 182 l 1
 144 230 l 1
 144 278 l 1
 192 278 l 1
 240 278 l 1
 288 278 l 1
624 506.8203125 m 1
 624 470 l 1
 624 422 l 1
 624 374 l 1
 672 374 l 1
 672 422 l 1
 720 422 l 1
 720 374 l 1
 720 326 l 1
 672 326 l 1
 624 326 l 1
 576 326 l 1
 576 278 l 1
 576 230 l 1
 561.892578125 230 l 1
 561.892578125 337.953125 l 2
 561.892578125 404.017578125 578.609375 456.18359375 612.044921875 494.453125 c 0
 615.869140625 498.830078125 619.859375 502.944335938 624 506.8203125 c 1
576 230 m 1
 624 230 l 1
 624 182 l 1
 576 182 l 1
 576 230 l 1
576 182 m 1
 576 134 l 1
 624 134 l 1
 624 86 l 1
 576 86 l 1
 561.892578125 86 l 1
 561.892578125 182 l 1
 576 182 l 1
0 422 m 1
 12.02734375 422 l 1
 12.02734375 374 l 1
 0 374 l 1
 0 422 l 1
135.060546875 422 m 1
 144 422 l 1
 192 422 l 1
 192 374 l 1
 192 326 l 1
 144 326 l 1
 144 374 l 1
 125.638671875 374 l 1
 127.44140625 391.096679688 130.583007812 407.095703125 135.060546875 422 c 1
816 422 m 1
 864 422 l 1
 864 374 l 1
 864 326 l 1
 888.1875 326 l 1
 888.1875 182 l 1
 864 182 l 1
 864 230 l 1
 816 230 l 1
 768 230 l 1
 768 182 l 1
 720 182 l 1
 720 230 l 1
 672 230 l 1
 672 278 l 1
 720 278 l 1
 768 278 l 1
 816 278 l 1
 816 326 l 1
 816 374 l 1
 816 422 l 1
864 182 m 1
 864 134 l 1
 864 86 l 1
 816 86 l 1
 816 134 l 1
 816 182 l 1
 864 182 l 1
864 86 m 1
 888.1875 86 l 1
 888.1875 38 l 1
 864 38 l 1
 864 86 l 1
816 86 m 1
 816 38 l 1
 816 -10 l 1
 864 -10 l 1
 888.1875 -10 l 1
 888.1875 -44.537109375 l 1
 960 -44.537109375 l 1
 960 -58 l 1
 912 -58 l 1
 864 -58 l 1
 816 -58 l 1
 768 -58 l 1
 768 -106 l 1
 768 -154 l 1
 720 -154 l 1
 720 -106 l 1
 672 -106 l 1
 672 -58 l 1
 672 -10 l 1
 624 -10 l 1
 576 -10 l 1
 576 38 l 1
 624 38 l 1
 672 38 l 1
 720 38 l 1
 720 86 l 1
 720 134 l 1
 768 134 l 1
 768 86 l 1
 816 86 l 1
768 -154 m 1
 816 -154 l 1
 816 -202 l 1
 768 -202 l 1
 768 -154 l 1
672 -106 m 1
 672 -154 l 1
 672 -202 l 1
 624 -202 l 1
 624 -154 l 1
 624 -106 l 1
 672 -106 l 1
624 -106 m 1
 576 -106 l 1
 576 -58 l 1
 624 -58 l 1
 624 -106 l 1
576 -58 m 1
 528 -58 l 1
 528 -106 l 1
 528 -154 l 1
 480 -154 l 1
 432 -154 l 1
 432 -106 l 1
 384 -106 l 1
 384 -58 l 1
 384 -10 l 1
 432 -10 l 1
 432 38 l 1
 384 38 l 1
 384 86 l 1
 384 134 l 1
 384 182 l 1
 432 182 l 1
 432 134 l 1
 432 86 l 1
 450.107421875 86 l 1
 450.107421875 -44.537109375 l 1
 561.892578125 -44.537109375 l 1
 561.892578125 -10 l 1
 576 -10 l 1
 576 -58 l 1
432 -154 m 1
 432 -202 l 1
 384 -202 l 1
 384 -154 l 1
 432 -154 l 1
432 182 m 1
 432 230 l 1
 450.107421875 230 l 1
 450.107421875 182 l 1
 432 182 l 1
720 134 m 1
 672 134 l 1
 672 182 l 1
 720 182 l 1
 720 134 l 1
997.080078125 422 m 1
 1008 422 l 1
 1008 374 l 1
 999.884765625 374 l 1
 999.618164062 390.731445312 998.684570312 406.733398438 997.080078125 422 c 1
999.97265625 326 m 1
 1008 326 l 1
 1008 278 l 1
 999.97265625 278 l 1
 999.97265625 326 l 1
999.97265625 230 m 1
 1008 230 l 1
 1008 182 l 1
 999.97265625 182 l 1
 999.97265625 230 l 1
0 134 m 1
 12.02734375 134 l 1
 12.02734375 -44.537109375 l 1
 48 -44.537109375 l 1
 48 -58 l 1
 48 -106 l 1
 48 -154 l 1
 96 -154 l 1
 144 -154 l 1
 192 -154 l 1
 240 -154 l 1
 288 -154 l 1
 288 -106 l 1
 288 -58 l 1
 288 -10 l 1
 288 38 l 1
 288 86 l 1
 240 86 l 1
 192 86 l 1
 144 86 l 1
 123.8125 86 l 1
 123.8125 134 l 1
 144 134 l 1
 192 134 l 1
 240 134 l 1
 288 134 l 1
 336 134 l 1
 336 86 l 1
 336 38 l 1
 336 -10 l 1
 336 -58 l 1
 336 -106 l 1
 336 -154 l 1
 336 -202 l 1
 288 -202 l 1
 240 -202 l 1
 192 -202 l 1
 144 -202 l 1
 96 -202 l 1
 48 -202 l 1
 0 -202 l 1
 0 -154 l 1
 0 -106 l 1
 0 -58 l 1
 0 -10 l 1
 0 38 l 1
 0 86 l 1
 0 134 l 1
123.8125 38 m 1
 144 38 l 1
 192 38 l 1
 240 38 l 1
 240 -10 l 1
 240 -58 l 1
 240 -106 l 1
 192 -106 l 1
 144 -106 l 1
 96 -106 l 1
 96 -58 l 1
 96 -44.537109375 l 1
 123.8125 -44.537109375 l 1
 123.8125 38 l 1
999.97265625 38 m 1
 1008 38 l 1
 1008 -10 l 1
 999.97265625 -10 l 1
 999.97265625 38 l 1
864 -106 m 1
 912 -106 l 1
 912 -154 l 1
 864 -154 l 1
 864 -106 l 1
960 -106 m 1
 1008 -106 l 1
 1008 -154 l 1
 960 -154 l 1
 960 -106 l 1
EndSplineSet
EndChar

StartChar: n
Encoding: 110 110 13
Width: 1092
VWidth: 1056
Flags: HW
LayerCount: 2
Fore
SplineSet
0 806 m 1
 48 806 l 1
 96 806 l 1
 144 806 l 1
 192 806 l 1
 240 806 l 1
 288 806 l 1
 336 806 l 1
 336 758 l 1
 336 710 l 1
 336 662 l 1
 336 614 l 1
 336 566 l 1
 336 546.462890625 l 1
 331.337890625 540.283203125 326.801757812 533.826171875 322.39453125 527.08203125 c 1
 322.39453125 632.220703125 l 1
 288 632.220703125 l 1
 288 662 l 1
 288 710 l 1
 288 758 l 1
 240 758 l 1
 192 758 l 1
 144 758 l 1
 96 758 l 1
 48 758 l 1
 48 710 l 1
 48 662 l 1
 48 614 l 1
 48 566 l 1
 48 518 l 1
 96 518 l 1
 144 518 l 1
 192 518 l 1
 210.607421875 518 l 1
 210.607421875 470 l 1
 192 470 l 1
 144 470 l 1
 96 470 l 1
 48 470 l 1
 0 470 l 1
 0 518 l 1
 0 566 l 1
 0 614 l 1
 0 662 l 1
 0 710 l 1
 0 758 l 1
 0 806 l 1
432 806 m 1
 480 806 l 1
 480 758 l 1
 528 758 l 1
 528 806 l 1
 576 806 l 1
 576 758 l 1
 624 758 l 1
 624 710 l 1
 576 710 l 1
 576 662 l 1
 528 662 l 1
 528 710 l 1
 480 710 l 1
 432 710 l 1
 432 758 l 1
 432 806 l 1
576 662 m 1
 624 662 l 1
 624 637.322265625 l 1
 609.065429688 641.834960938 593.072265625 644.999023438 576 646.783203125 c 1
 576 662 l 1
528 662 m 1
 528 648.271484375 l 1
 511.284179688 647.5859375 495.286132812 645.569335938 480 642.236328125 c 1
 480 662 l 1
 528 662 l 1
432 710 m 1
 432 662 l 1
 432 626.365234375 l 1
 426.573242188 623.889648438 421.255859375 621.21484375 416.052734375 618.32421875 c 0
 404.921875 612.071289062 394.23828125 604.825195312 384 596.591796875 c 1
 384 614 l 1
 384 662 l 1
 384 710 l 1
 432 710 l 1
672 806 m 1
 720 806 l 1
 768 806 l 1
 816 806 l 1
 864 806 l 1
 912 806 l 1
 960 806 l 1
 1008 806 l 1
 1008 758 l 1
 1008 710 l 1
 1008 662 l 1
 1008 614 l 1
 1008 566 l 1
 1008 518 l 1
 1008 470 l 1
 960 470 l 1
 912 470 l 1
 864 470 l 1
 816 470 l 1
 768 470 l 1
 766.7421875 470 l 1
 762.842773438 487.219726562 757.880859375 503.227539062 751.837890625 518 c 1
 768 518 l 1
 816 518 l 1
 864 518 l 1
 912 518 l 1
 960 518 l 1
 960 566 l 1
 960 614 l 1
 960 662 l 1
 960 710 l 1
 960 758 l 1
 912 758 l 1
 864 758 l 1
 816 758 l 1
 768 758 l 1
 720 758 l 1
 720 710 l 1
 720 662 l 1
 720 614 l 1
 720 573.017578125 l 2
 719.194335938 574.025390625 718.39453125 575.0390625 717.572265625 576.02734375 c 0
 704.439453125 591.946289062 689.239257812 605.225585938 672 615.90234375 c 1
 672 662 l 1
 672 710 l 1
 672 758 l 1
 672 806 l 1
96 710 m 1
 144 710 l 1
 192 710 l 1
 240 710 l 1
 240 662 l 1
 240 632.220703125 l 1
 210.607421875 632.220703125 l 1
 210.607421875 566 l 1
 192 566 l 1
 144 566 l 1
 96 566 l 1
 96 614 l 1
 96 662 l 1
 96 710 l 1
768 710 m 1
 816 710 l 1
 864 710 l 1
 912 710 l 1
 912 662 l 1
 912 614 l 1
 912 566 l 1
 864 566 l 1
 816 566 l 1
 768 566 l 1
 768 614 l 1
 768 662 l 1
 768 710 l 1
528 551.544921875 m 1
 545.69921875 550.61328125 561.701171875 547.515625 576 542.251953125 c 1
 576 518 l 1
 528 518 l 1
 528 551.544921875 l 1
576 518 m 1
 615.984375 518 l 2
 618.772460938 515.416015625 621.444335938 512.685546875 624 509.806640625 c 2
 624 470 l 1
 576 470 l 1
 576 518 l 1
528 518 m 1
 528 470 l 1
 528 422 l 1
 576 422 l 1
 576 374 l 1
 624 374 l 1
 666.005859375 374 l 1
 666.137695312 369.518554688 666.2109375 364.961914062 666.2109375 360.310546875 c 2
 666.2109375 326 l 1
 624 326 l 1
 624 278 l 1
 666.2109375 278 l 1
 666.2109375 230 l 1
 624 230 l 1
 624 182 l 1
 624 134 l 1
 576 134 l 1
 576 182 l 1
 576 230 l 1
 528 230 l 1
 480 230 l 1
 480 182 l 1
 432 182 l 1
 432 134 l 1
 384 134 l 1
 384 182 l 1
 384 230 l 1
 432 230 l 1
 432 278 l 1
 432 326 l 1
 480 326 l 1
 480 278 l 1
 528 278 l 1
 576 278 l 1
 576 326 l 1
 528 326 l 1
 528 374 l 1
 480 374 l 1
 480 422 l 1
 480 470 l 1
 480 518 l 1
 528 518 l 1
624 134 m 1
 666.2109375 134 l 1
 666.2109375 86 l 1
 624 86 l 1
 624 134 l 1
576 134 m 1
 576 86 l 1
 528 86 l 1
 528 38 l 1
 576 38 l 1
 576 -10 l 1
 624 -10 l 1
 624 38 l 1
 666.2109375 38 l 1
 666.2109375 -44.537109375 l 1
 720 -44.537109375 l 1
 720 -58 l 1
 768 -58 l 1
 768 -106 l 1
 720 -106 l 1
 720 -154 l 1
 672 -154 l 1
 624 -154 l 1
 624 -202 l 1
 576 -202 l 1
 576 -154 l 1
 528 -154 l 1
 480 -154 l 1
 480 -202 l 1
 432 -202 l 1
 384 -202 l 1
 384 -154 l 1
 432 -154 l 1
 432 -106 l 1
 384 -106 l 1
 384 -58 l 1
 384 -10 l 1
 384 38 l 1
 384 86 l 1
 432 86 l 1
 432 38 l 1
 480 38 l 1
 480 86 l 1
 480 134 l 1
 528 134 l 1
 576 134 l 1
720 -154 m 1
 768 -154 l 1
 768 -202 l 1
 720 -202 l 1
 720 -154 l 1
384 230 m 1
 336 230 l 1
 336 278 l 1
 384 278 l 1
 384 230 l 1
336 230 m 1
 336 182 l 1
 322.39453125 182 l 1
 322.39453125 230 l 1
 336 230 l 1
336 278 m 1
 322.39453125 278 l 1
 322.39453125 326 l 1
 336 326 l 1
 336 278 l 1
336 326 m 1
 336 374 l 1
 384 374 l 1
 432 374 l 1
 432 326 l 1
 384 326 l 1
 336 326 l 1
336 374 m 1
 324.26171875 374 l 1
 326.107421875 391.099609375 329.32421875 407.099609375 333.91015625 422 c 1
 336 422 l 1
 336 374 l 1
480 518 m 1
 432 518 l 1
 432 470 l 1
 432 422 l 1
 384 422 l 1
 384 470 l 1
 384 504.2890625 l 1
 409.802734375 528.6328125 441.803710938 543.627929688 480 549.28125 c 1
 480 518 l 1
0 422 m 1
 48 422 l 1
 48 374 l 1
 0 374 l 1
 0 422 l 1
48 374 m 1
 96 374 l 1
 96 422 l 1
 144 422 l 1
 192 422 l 1
 210.607421875 422 l 1
 210.607421875 326 l 1
 192 326 l 1
 192 278 l 1
 144 278 l 1
 144 326 l 1
 96 326 l 1
 96 278 l 1
 96 230 l 1
 48 230 l 1
 48 278 l 1
 48 326 l 1
 48 374 l 1
774.529296875 422 m 1
 816 422 l 1
 864 422 l 1
 912 422 l 1
 912 374 l 1
 864 374 l 1
 864 326 l 1
 816 326 l 1
 816 374 l 1
 777.306640625 374 l 1
 777.04296875 390.754882812 776.12109375 406.760742188 774.529296875 422 c 1
816 278 m 1
 864 278 l 1
 864 230 l 1
 816 230 l 1
 816 278 l 1
864 230 m 1
 912 230 l 1
 960 230 l 1
 960 278 l 1
 1008 278 l 1
 1008 230 l 1
 1008 182 l 1
 1008 134 l 1
 960 134 l 1
 960 182 l 1
 912 182 l 1
 912 134 l 1
 960 134 l 1
 960 86 l 1
 960 38 l 1
 912 38 l 1
 912 -10 l 1
 864 -10 l 1
 864 -58 l 1
 816 -58 l 1
 816 -10 l 1
 777.392578125 -10 l 1
 777.392578125 134 l 1
 816 134 l 1
 864 134 l 1
 864 182 l 1
 864 230 l 1
144 230 m 1
 192 230 l 1
 210.607421875 230 l 1
 210.607421875 182 l 1
 192 182 l 1
 144 182 l 1
 144 230 l 1
0 134 m 1
 48 134 l 1
 96 134 l 1
 144 134 l 1
 192 134 l 1
 210.607421875 134 l 1
 210.607421875 86 l 1
 192 86 l 1
 144 86 l 1
 96 86 l 1
 48 86 l 1
 48 38 l 1
 48 -10 l 1
 48 -58 l 1
 48 -106 l 1
 48 -154 l 1
 96 -154 l 1
 144 -154 l 1
 192 -154 l 1
 240 -154 l 1
 288 -154 l 1
 288 -106 l 1
 288 -58 l 1
 288 -44.537109375 l 1
 322.39453125 -44.537109375 l 1
 322.39453125 134 l 1
 336 134 l 1
 336 86 l 1
 336 38 l 1
 336 -10 l 1
 336 -58 l 1
 336 -106 l 1
 336 -154 l 1
 336 -202 l 1
 288 -202 l 1
 240 -202 l 1
 192 -202 l 1
 144 -202 l 1
 96 -202 l 1
 48 -202 l 1
 0 -202 l 1
 0 -154 l 1
 0 -106 l 1
 0 -58 l 1
 0 -10 l 1
 0 38 l 1
 0 86 l 1
 0 134 l 1
816 86 m 1
 816 38 l 1
 864 38 l 1
 864 86 l 1
 816 86 l 1
96 38 m 1
 144 38 l 1
 192 38 l 1
 210.607421875 38 l 1
 210.607421875 -44.537109375 l 1
 240 -44.537109375 l 1
 240 -58 l 1
 240 -106 l 1
 192 -106 l 1
 144 -106 l 1
 96 -106 l 1
 96 -58 l 1
 96 -10 l 1
 96 38 l 1
480 -10 m 1
 480 -58 l 1
 528 -58 l 1
 528 -106 l 1
 576 -106 l 1
 576 -58 l 1
 528 -58 l 1
 528 -10 l 1
 480 -10 l 1
624 -58 m 1
 624 -106 l 1
 672 -106 l 1
 672 -58 l 1
 624 -58 l 1
816 -106 m 1
 864 -106 l 1
 864 -154 l 1
 816 -154 l 1
 816 -106 l 1
864 -154 m 1
 912 -154 l 1
 960 -154 l 1
 960 -202 l 1
 912 -202 l 1
 864 -202 l 1
 864 -154 l 1
EndSplineSet
EndChar

StartChar: o
Encoding: 111 111 14
Width: 1092
VWidth: 1056
Flags: HW
LayerCount: 2
Fore
SplineSet
0 806 m 1
 48 806 l 1
 96 806 l 1
 144 806 l 1
 192 806 l 1
 240 806 l 1
 288 806 l 1
 336 806 l 1
 336 758 l 1
 336 710 l 1
 336 662 l 1
 336 614.318359375 l 1
 318.670898438 603.629882812 302.670898438 590.947265625 288 576.271484375 c 1
 288 614 l 1
 288 662 l 1
 288 710 l 1
 288 758 l 1
 240 758 l 1
 192 758 l 1
 144 758 l 1
 96 758 l 1
 48 758 l 1
 48 710 l 1
 48 662 l 1
 48 614 l 1
 48 566 l 1
 48 518 l 1
 96 518 l 1
 144 518 l 1
 192 518 l 1
 240 518 l 1
 243.38671875 518 l 1
 234.670898438 503.006835938 227.095703125 487.005859375 220.66015625 470 c 1
 192 470 l 1
 144 470 l 1
 96 470 l 1
 48 470 l 1
 0 470 l 1
 0 518 l 1
 0 566 l 1
 0 614 l 1
 0 662 l 1
 0 710 l 1
 0 758 l 1
 0 806 l 1
432 806 m 1
 480 806 l 1
 480 758 l 1
 432 758 l 1
 432 806 l 1
480 758 m 1
 528 758 l 1
 576 758 l 1
 624 758 l 1
 624 710 l 1
 576 710 l 1
 528 710 l 1
 528 662 l 1
 576 662 l 1
 576 650.76953125 l 1
 553.435546875 655.120117188 529.436523438 657.296875 504 657.296875 c 0
 459.622070312 657.296875 419.624023438 650.7265625 384 637.595703125 c 1
 384 662 l 1
 384 710 l 1
 432 710 l 1
 432 662 l 1
 480 662 l 1
 480 710 l 1
 480 758 l 1
672 806 m 1
 720 806 l 1
 768 806 l 1
 816 806 l 1
 864 806 l 1
 912 806 l 1
 960 806 l 1
 1008 806 l 1
 1008 758 l 1
 1008 710 l 1
 1008 662 l 1
 1008 614 l 1
 1008 566 l 1
 1008 518 l 1
 1008 470 l 1
 960 470 l 1
 912 470 l 1
 864 470 l 1
 816 470 l 1
 787.140625 470 l 1
 780.658203125 487.005859375 773.026367188 503.006835938 764.24609375 518 c 1
 768 518 l 1
 816 518 l 1
 864 518 l 1
 912 518 l 1
 960 518 l 1
 960 566 l 1
 960 614 l 1
 960 662 l 1
 960 710 l 1
 960 758 l 1
 912 758 l 1
 864 758 l 1
 816 758 l 1
 768 758 l 1
 720 758 l 1
 720 710 l 1
 720 662 l 1
 720 614 l 1
 720 575.666015625 l 1
 705.325195312 590.444335938 689.325195312 603.217773438 672 613.982421875 c 1
 672 614 l 1
 672 662 l 1
 672 710 l 1
 672 758 l 1
 672 806 l 1
96 710 m 1
 144 710 l 1
 192 710 l 1
 240 710 l 1
 240 662 l 1
 240 614 l 1
 240 566 l 1
 192 566 l 1
 144 566 l 1
 96 566 l 1
 96 614 l 1
 96 662 l 1
 96 710 l 1
768 710 m 1
 816 710 l 1
 864 710 l 1
 912 710 l 1
 912 662 l 1
 912 614 l 1
 912 566 l 1
 864 566 l 1
 816 566 l 1
 768 566 l 1
 768 614 l 1
 768 662 l 1
 768 710 l 1
504 563.03515625 m 0
 530.455078125 563.03515625 554.44921875 558.318359375 576 548.912109375 c 1
 576 518 l 1
 528 518 l 1
 528 470 l 1
 528 422 l 1
 480 422 l 1
 480 470 l 1
 480 518 l 1
 480 561.6796875 l 1
 487.764648438 562.572265625 495.7578125 563.03515625 504 563.03515625 c 0
576 518 m 1
 622.28125 518 l 2
 622.853515625 517.456054688 623.432617188 516.924804688 624 516.37109375 c 2
 624 470 l 1
 576 470 l 1
 576 518 l 1
528 422 m 1
 576 422 l 1
 576 374 l 1
 624 374 l 1
 672 374 l 1
 672 422 l 1
 680.1171875 422 l 1
 691.205078125 387.349609375 696.755859375 347.3515625 696.755859375 302 c 0
 696.755859375 276.271484375 694.98046875 252.27734375 691.447265625 230 c 1
 672 230 l 1
 624 230 l 1
 624 182 l 1
 624 134 l 1
 576 134 l 1
 576 182 l 1
 576 230 l 1
 528 230 l 1
 480 230 l 1
 480 182 l 1
 432 182 l 1
 432 134 l 1
 384 134 l 1
 384 182 l 1
 336 182 l 1
 326.775390625 182 l 1
 322.119140625 196.990234375 318.474609375 212.993164062 315.833984375 230 c 1
 336 230 l 1
 384 230 l 1
 384 278 l 1
 336 278 l 1
 311.173828125 278 l 1
 310.82421875 285.828125 310.640625 293.822265625 310.640625 302 c 0
 310.640625 310.1796875 310.826171875 318.173828125 311.1796875 326 c 1
 336 326 l 1
 384 326 l 1
 384 374 l 1
 432 374 l 1
 432 422 l 1
 480 422 l 1
 480 374 l 1
 480 326 l 1
 432 326 l 1
 432 278 l 1
 480 278 l 1
 480 326 l 1
 528 326 l 1
 528 278 l 1
 576 278 l 1
 576 326 l 1
 528 326 l 1
 528 374 l 1
 528 422 l 1
624 134 m 1
 659.642578125 134 l 1
 655.106445312 125.947265625 650.157226562 118.298828125 644.7890625 111.05859375 c 0
 638.291015625 102.293945312 631.362304688 94.349609375 624 87.228515625 c 1
 624 134 l 1
576 134 m 1
 576 86 l 1
 528 86 l 1
 528 134 l 1
 576 134 l 1
528 86 m 1
 528 42.33984375 l 1
 520.235351562 41.4345703125 512.241210938 40.96484375 504 40.96484375 c 0
 495.7578125 40.96484375 487.763671875 41.4169921875 480 42.291015625 c 1
 480 86 l 1
 528 86 l 1
480 86 m 1
 432 86 l 1
 432 134 l 1
 480 134 l 1
 480 86 l 1
432 86 m 1
 432 54.484375 l 1
 414.338867188 61.873046875 398.341796875 72.30078125 384 85.75 c 1
 384 86 l 1
 432 86 l 1
432 422 m 1
 384 422 l 1
 384 470 l 1
 384 517.31640625 l 1
 398.34765625 531.041015625 414.348632812 541.673828125 432 549.216796875 c 1
 432 518 l 1
 432 470 l 1
 432 422 l 1
0 422 m 1
 48 422 l 1
 48 374 l 1
 0 374 l 1
 0 422 l 1
96 422 m 1
 144 422 l 1
 192 422 l 1
 206.158203125 422 l 1
 199.252929688 392.479492188 195.159179688 360.48046875 193.875 326 c 1
 192 326 l 1
 192 278 l 1
 144 278 l 1
 144 230 l 1
 192 230 l 1
 192 182 l 1
 144 182 l 1
 96 182 l 1
 48 182 l 1
 48 230 l 1
 96 230 l 1
 96 278 l 1
 48 278 l 1
 48 326 l 1
 96 326 l 1
 96 374 l 1
 96 422 l 1
327.0234375 422 m 1
 336 422 l 1
 336 374 l 1
 315.90625 374 l 1
 318.587890625 391.024414062 322.2890625 407.028320312 327.0234375 422 c 1
801.74609375 422 m 1
 816 422 l 1
 864 422 l 1
 912 422 l 1
 912 374 l 1
 864 374 l 1
 864 326 l 1
 816 326 l 1
 816 374 l 1
 810.298828125 374 l 1
 808.213867188 390.669921875 805.358398438 406.66796875 801.74609375 422 c 1
624 326 m 1
 624 278 l 1
 672 278 l 1
 672 326 l 1
 624 326 l 1
816 278 m 1
 864 278 l 1
 864 230 l 1
 816 230 l 1
 816 278 l 1
864 230 m 1
 912 230 l 1
 912 278 l 1
 960 278 l 1
 1008 278 l 1
 1008 230 l 1
 1008 182 l 1
 1008 134 l 1
 960 134 l 1
 960 182 l 1
 912 182 l 1
 912 134 l 1
 960 134 l 1
 960 86 l 1
 960 38 l 1
 912 38 l 1
 912 -10 l 1
 864 -10 l 1
 864 -58 l 1
 816 -58 l 1
 816 -10 l 1
 768 -10 l 1
 768 38 l 1
 729.16015625 38 l 2
 730.045898438 38.98046875 730.92578125 39.96875 731.80078125 40.96484375 c 0
 743.90234375 54.833984375 754.676757812 69.845703125 764.125 86 c 1
 768 86 l 1
 768 92.8203125 l 1
 775.171875 105.833007812 781.513671875 119.560546875 787.029296875 134 c 1
 816 134 l 1
 864 134 l 1
 864 182 l 1
 864 230 l 1
0 134 m 1
 48 134 l 1
 96 134 l 1
 144 134 l 1
 192 134 l 1
 220.794921875 134 l 1
 227.234375 117.01953125 234.791992188 101.0078125 243.505859375 86 c 1
 240 86 l 1
 192 86 l 1
 144 86 l 1
 96 86 l 1
 48 86 l 1
 48 38 l 1
 48 -10 l 1
 48 -58 l 1
 48 -106 l 1
 48 -154 l 1
 96 -154 l 1
 144 -154 l 1
 192 -154 l 1
 240 -154 l 1
 288 -154 l 1
 288 -106 l 1
 288 -58 l 1
 288 -10 l 1
 288 27.728515625 l 1
 302.670898438 13.052734375 318.670898438 0.3701171875 336 -10.318359375 c 1
 336 -58 l 1
 336 -106 l 1
 336 -154 l 1
 336 -202 l 1
 288 -202 l 1
 240 -202 l 1
 192 -202 l 1
 144 -202 l 1
 96 -202 l 1
 48 -202 l 1
 0 -202 l 1
 0 -154 l 1
 0 -106 l 1
 0 -58 l 1
 0 -10 l 1
 0 38 l 1
 0 86 l 1
 0 134 l 1
816 86 m 1
 816 38 l 1
 864 38 l 1
 864 86 l 1
 816 86 l 1
96 38 m 1
 144 38 l 1
 192 38 l 1
 240 38 l 1
 240 -10 l 1
 240 -58 l 1
 240 -106 l 1
 192 -106 l 1
 144 -106 l 1
 96 -106 l 1
 96 -58 l 1
 96 -10 l 1
 96 38 l 1
672 -9.982421875 m 0
 672 -10 l 1
 720 -10 l 1
 720 -58 l 1
 768 -58 l 1
 768 -106 l 1
 720 -106 l 1
 720 -154 l 1
 672 -154 l 1
 624 -154 l 1
 624 -202 l 1
 576 -202 l 1
 576 -154 l 1
 528 -154 l 1
 528 -106 l 1
 576 -106 l 1
 576 -58 l 1
 528 -58 l 1
 528 -106 l 1
 480 -106 l 1
 480 -154 l 1
 432 -154 l 1
 432 -106 l 1
 384 -106 l 1
 384 -58 l 1
 384 -33.595703125 l 1
 399.203125 -39.2001953125 415.202148438 -43.6083984375 432 -46.8203125 c 1
 432 -58 l 1
 480 -58 l 1
 480 -52.61328125 l 1
 487.856445312 -53.056640625 495.84765625 -53.296875 504 -53.296875 c 0
 569.533203125 -53.296875 625.53125 -38.85546875 672 -9.982421875 c 0
720 -154 m 1
 768 -154 l 1
 768 -202 l 1
 720 -202 l 1
 720 -154 l 1
432 -154 m 1
 432 -202 l 1
 384 -202 l 1
 384 -154 l 1
 432 -154 l 1
624 -58 m 1
 624 -106 l 1
 672 -106 l 1
 672 -58 l 1
 624 -58 l 1
816 -106 m 1
 864 -106 l 1
 864 -154 l 1
 816 -154 l 1
 816 -106 l 1
864 -154 m 1
 912 -154 l 1
 960 -154 l 1
 960 -202 l 1
 912 -202 l 1
 864 -202 l 1
 864 -154 l 1
EndSplineSet
EndChar

StartChar: p
Encoding: 112 112 15
Width: 1092
VWidth: 1056
Flags: HW
LayerCount: 2
Fore
SplineSet
0 806 m 1
 48 806 l 1
 96 806 l 1
 144 806 l 1
 192 806 l 1
 240 806 l 1
 288 806 l 1
 336 806 l 1
 336 758 l 1
 336 710 l 1
 336 689.380859375 l 1
 330.7734375 682.08203125 325.790039062 674.362304688 321.05859375 666.205078125 c 1
 321.05859375 768.92578125 l 1
 209.271484375 768.92578125 l 1
 209.271484375 758 l 1
 192 758 l 1
 144 758 l 1
 96 758 l 1
 48 758 l 1
 48 710 l 1
 48 662 l 1
 48 614 l 1
 48 566 l 1
 48 518 l 1
 96 518 l 1
 144 518 l 1
 192 518 l 1
 209.271484375 518 l 1
 209.271484375 470 l 1
 192 470 l 1
 144 470 l 1
 96 470 l 1
 48 470 l 1
 0 470 l 1
 0 518 l 1
 0 566 l 1
 0 614 l 1
 0 662 l 1
 0 710 l 1
 0 758 l 1
 0 806 l 1
432 806 m 1
 480 806 l 1
 480 780.283203125 l 1
 462.970703125 777.153320312 446.97265625 772.53515625 432 766.44140625 c 1
 432 806 l 1
576 806 m 1
 624 806 l 1
 624 771.220703125 l 1
 608.728515625 776.57421875 592.728515625 780.393554688 576 782.6796875 c 1
 576 806 l 1
672 806 m 1
 720 806 l 1
 768 806 l 1
 816 806 l 1
 864 806 l 1
 912 806 l 1
 960 806 l 1
 1008 806 l 1
 1008 758 l 1
 1008 710 l 1
 1008 662 l 1
 1008 614 l 1
 1008 566 l 1
 1008 518 l 1
 1008 470 l 1
 960 470 l 1
 912 470 l 1
 864 470 l 1
 816 470 l 1
 813.4375 470 l 1
 812.349609375 486.553710938 810.561523438 502.548828125 808.08984375 518 c 1
 816 518 l 1
 864 518 l 1
 912 518 l 1
 960 518 l 1
 960 566 l 1
 960 614 l 1
 960 662 l 1
 960 710 l 1
 960 758 l 1
 912 758 l 1
 864 758 l 1
 816 758 l 1
 768 758 l 1
 720 758 l 1
 720 710 l 1
 720 707.603515625 l 1
 705.146484375 723.422851562 689.15234375 736.842773438 672 747.826171875 c 1
 672 758 l 1
 672 806 l 1
96 710 m 1
 144 710 l 1
 192 710 l 1
 209.271484375 710 l 1
 209.271484375 566 l 1
 192 566 l 1
 144 566 l 1
 96 566 l 1
 96 614 l 1
 96 662 l 1
 96 710 l 1
768 710 m 1
 816 710 l 1
 864 710 l 1
 912 710 l 1
 912 662 l 1
 912 614 l 1
 912 566 l 1
 864 566 l 1
 816 566 l 1
 797.720703125 566 l 1
 790.266601562 592.844726562 780.354492188 617.73046875 768 640.669921875 c 1
 768 662 l 1
 768 710 l 1
510.1875 692.1875 m 0
 534.25 692.1875 556.185546875 688.271484375 576 680.44921875 c 1
 576 662 l 1
 528 662 l 1
 480 662 l 1
 480 689.955078125 l 1
 489.669921875 691.43359375 499.727539062 692.1875 510.1875 692.1875 c 0
576 662 m 1
 609.58203125 662 l 2
 614.567382812 658.374023438 619.369140625 654.41015625 624 650.130859375 c 1
 624 614 l 1
 624 566 l 1
 624 518 l 1
 624 470 l 1
 624 422 l 1
 576 422 l 1
 528 422 l 1
 480 422 l 1
 480 374 l 1
 528 374 l 1
 528 326 l 1
 480 326 l 1
 432 326 l 1
 432 374 l 1
 384 374 l 1
 384 422 l 1
 432 422 l 1
 432 470 l 1
 480 470 l 1
 480 518 l 1
 480 566 l 1
 528 566 l 1
 576 566 l 1
 576 614 l 1
 576 662 l 1
624 422 m 1
 672 422 l 1
 672 374 l 1
 624 374 l 1
 624 422 l 1
672 374 m 1
 696.37109375 374 l 1
 694.493164062 357.069335938 691.71875 341.063476562 688.037109375 326 c 1
 672 326 l 1
 672 374 l 1
672 326 m 1
 672 278.302734375 l 2
 671.955078125 278.202148438 671.91015625 278.100585938 671.865234375 278 c 2
 624 278 l 1
 576 278 l 1
 576 326 l 1
 624 326 l 1
 672 326 l 1
576 278 m 1
 576 230 l 1
 528 230 l 1
 480 230 l 1
 480 278 l 1
 528 278 l 1
 576 278 l 1
576 230 m 1
 624 230 l 1
 624 209.39453125 l 1
 611.42578125 197.873046875 597.5390625 188.745117188 582.34765625 182 c 1
 576 182 l 1
 576 230 l 1
576 182 m 1
 576 179.337890625 l 1
 561.188476562 173.541015625 545.185546875 169.918945312 528 168.455078125 c 1
 528 182 l 1
 576 182 l 1
480 230 m 1
 480 182 l 1
 480 169.912109375 l 1
 462.743164062 172.52734375 446.741210938 177.470703125 432 184.751953125 c 1
 432 230 l 1
 480 230 l 1
432 230 m 1
 384 230 l 1
 384 278 l 1
 348.181640625 278 l 1
 341.693359375 292.782226562 336.362304688 308.776367188 332.203125 326 c 1
 336 326 l 1
 336 374 l 1
 384 374 l 1
 384 326 l 1
 432 326 l 1
 432 278 l 1
 432 230 l 1
384 230 m 1
 384 221.44921875 l 2
 381.518554688 224.192382812 379.096679688 227.045898438 376.728515625 230 c 2
 384 230 l 1
336 374 m 1
 323.966796875 374 l 1
 322.295898438 389.24609375 321.33984375 405.239257812 321.11328125 422 c 1
 336 422 l 1
 336 374 l 1
432 470 m 1
 384 470 l 1
 384 518 l 1
 384 566 l 1
 432 566 l 1
 432 518 l 1
 432 470 l 1
672 581.2578125 m 1
 685.994140625 549.807617188 694.610351562 512.721679688 697.845703125 470 c 1
 672 470 l 1
 672 518 l 1
 672 566 l 1
 672 581.2578125 l 1
336 547.953125 m 1
 336 518 l 1
 336 470 l 1
 322.51171875 470 l 1
 324.643554688 498.491210938 329.139648438 524.475585938 336 547.953125 c 1
528 518 m 1
 528 470 l 1
 576 470 l 1
 576 518 l 1
 528 518 l 1
0 422 m 1
 48 422 l 1
 48 374 l 1
 0 374 l 1
 0 422 l 1
48 374 m 1
 96 374 l 1
 144 374 l 1
 144 422 l 1
 192 422 l 1
 192 374 l 1
 192 326 l 1
 144 326 l 1
 96 326 l 1
 96 278 l 1
 96 230 l 1
 144 230 l 1
 192 230 l 1
 209.271484375 230 l 1
 209.271484375 182 l 1
 192 182 l 1
 144 182 l 1
 96 182 l 1
 48 182 l 1
 48 230 l 1
 48 278 l 1
 48 326 l 1
 48 374 l 1
864 374 m 1
 912 374 l 1
 960 374 l 1
 960 326 l 1
 1008 326 l 1
 1008 278 l 1
 1008 230 l 1
 1008 182 l 1
 1008 134 l 1
 960 134 l 1
 960 86 l 1
 912 86 l 1
 864 86 l 1
 864 134 l 1
 912 134 l 1
 912 182 l 1
 960 182 l 1
 960 230 l 1
 912 230 l 1
 912 182 l 1
 864 182 l 1
 864 230 l 1
 816 230 l 1
 816 278 l 1
 864 278 l 1
 912 278 l 1
 912 326 l 1
 864 326 l 1
 864 374 l 1
864 86 m 1
 864 38 l 1
 912 38 l 1
 960 38 l 1
 1008 38 l 1
 1008 -10 l 1
 1008 -58 l 1
 1008 -106 l 1
 960 -106 l 1
 960 -58 l 1
 912 -58 l 1
 864 -58 l 1
 816 -58 l 1
 816 -10 l 1
 768 -10 l 1
 720 -10 l 1
 672 -10 l 1
 672 38 l 1
 720 38 l 1
 720 86 l 1
 720 134 l 1
 720 152.283203125 l 1
 725.977539062 158.649414062 731.779296875 165.383789062 737.384765625 172.533203125 c 0
 739.837890625 175.637695312 742.212890625 178.802734375 744.548828125 182 c 2
 768 182 l 1
 768 219.216796875 l 2
 769.909179688 222.76171875 771.750976562 226.361328125 773.54296875 230 c 2
 816 230 l 1
 816 182 l 1
 864 182 l 1
 864 134 l 1
 816 134 l 1
 768 134 l 1
 768 86 l 1
 816 86 l 1
 864 86 l 1
816 -58 m 1
 816 -106 l 1
 816 -154 l 1
 864 -154 l 1
 864 -106 l 1
 912 -106 l 1
 912 -154 l 1
 960 -154 l 1
 960 -202 l 1
 912 -202 l 1
 864 -202 l 1
 816 -202 l 1
 768 -202 l 1
 768 -154 l 1
 768 -106 l 1
 768 -58 l 1
 816 -58 l 1
672 38 m 1
 624 38 l 1
 576 38 l 1
 576 -10 l 1
 576 -58 l 1
 528 -58 l 1
 528 -10 l 1
 480 -10 l 1
 480 -58 l 1
 432 -58 l 1
 384 -58 l 1
 384 -10 l 1
 432 -10 l 1
 432 38 l 1
 480 38 l 1
 480 79.50390625 l 1
 497.98046875 76.2666015625 517.10546875 74.64453125 537.37890625 74.64453125 c 0
 565.361328125 74.64453125 591.543945312 78.43359375 615.9296875 86 c 1
 624 86 l 1
 624 88.6640625 l 1
 640.892578125 94.5859375 656.891601562 102.385742188 672 112.060546875 c 1
 672 86 l 1
 672 38 l 1
576 -58 m 1
 624 -58 l 1
 624 -106 l 1
 576 -106 l 1
 576 -58 l 1
624 -106 m 1
 672 -106 l 1
 720 -106 l 1
 720 -154 l 1
 672 -154 l 1
 624 -154 l 1
 624 -106 l 1
624 -154 m 1
 624 -202 l 1
 576 -202 l 1
 528 -202 l 1
 480 -202 l 1
 480 -154 l 1
 480 -106 l 1
 528 -106 l 1
 528 -154 l 1
 576 -154 l 1
 624 -154 l 1
432 38 m 1
 384 38 l 1
 384 86 l 1
 432 86 l 1
 432 38 l 1
432 86 m 1
 432 93.060546875 l 1
 438.606445312 90.4267578125 445.409179688 88.068359375 452.416015625 86 c 2
 432 86 l 1
321.05859375 193.681640625 m 2
 323.376953125 189.685546875 325.756835938 185.793945312 328.193359375 182 c 2
 321.05859375 182 l 1
 321.05859375 193.681640625 l 2
0 134 m 1
 48 134 l 1
 96 134 l 1
 144 134 l 1
 192 134 l 1
 209.271484375 134 l 1
 209.271484375 86 l 1
 192 86 l 1
 144 86 l 1
 96 86 l 1
 48 86 l 1
 48 38 l 1
 48 -10 l 1
 48 -58 l 1
 48 -106 l 1
 48 -154 l 1
 96 -154 l 1
 144 -154 l 1
 192 -154 l 1
 209.271484375 -154 l 1
 209.271484375 -165.240234375 l 1
 321.05859375 -165.240234375 l 1
 321.05859375 134 l 1
 336 134 l 1
 336 86 l 1
 336 38 l 1
 336 -10 l 1
 336 -58 l 1
 336 -106 l 1
 336 -154 l 1
 336 -202 l 1
 288 -202 l 1
 240 -202 l 1
 192 -202 l 1
 144 -202 l 1
 96 -202 l 1
 48 -202 l 1
 0 -202 l 1
 0 -154 l 1
 0 -106 l 1
 0 -58 l 1
 0 -10 l 1
 0 38 l 1
 0 86 l 1
 0 134 l 1
96 38 m 1
 144 38 l 1
 192 38 l 1
 209.271484375 38 l 1
 209.271484375 -106 l 1
 192 -106 l 1
 144 -106 l 1
 96 -106 l 1
 96 -58 l 1
 96 -10 l 1
 96 38 l 1
384 -154 m 1
 432 -154 l 1
 432 -202 l 1
 384 -202 l 1
 384 -154 l 1
EndSplineSet
EndChar

StartChar: q
Encoding: 113 113 16
Width: 1092
VWidth: 1056
Flags: HW
LayerCount: 2
Fore
SplineSet
0 806 m 1
 48 806 l 1
 96 806 l 1
 144 806 l 1
 192 806 l 1
 240 806 l 1
 288 806 l 1
 336 806 l 1
 336 758 l 1
 336 743.228515625 l 1
 318.860351562 731.779296875 302.864257812 717.85546875 288 701.4921875 c 1
 288 710 l 1
 288 758 l 1
 240 758 l 1
 192 758 l 1
 144 758 l 1
 96 758 l 1
 48 758 l 1
 48 710 l 1
 48 662 l 1
 48 614 l 1
 48 566 l 1
 48 518 l 1
 96 518 l 1
 144 518 l 1
 192 518 l 1
 204.484375 518 l 1
 201.965820312 502.553710938 200.135742188 486.5546875 198.998046875 470 c 1
 192 470 l 1
 144 470 l 1
 96 470 l 1
 48 470 l 1
 0 470 l 1
 0 518 l 1
 0 566 l 1
 0 614 l 1
 0 662 l 1
 0 710 l 1
 0 758 l 1
 0 806 l 1
480 806 m 1
 528 806 l 1
 576 806 l 1
 624 806 l 1
 624 758 l 1
 594.115234375 758 l 1
 561.755859375 774.126953125 523.71875 782.52734375 480 783.193359375 c 1
 480 806 l 1
672 806 m 1
 720 806 l 1
 768 806 l 1
 816 806 l 1
 864 806 l 1
 912 806 l 1
 960 806 l 1
 1008 806 l 1
 1008 758 l 1
 1008 710 l 1
 1008 662 l 1
 1008 614 l 1
 1008 566 l 1
 1008 518 l 1
 1008 470 l 1
 960 470 l 1
 912 470 l 1
 864 470 l 1
 816 470 l 1
 802.42578125 470 l 1
 802.42578125 518 l 1
 816 518 l 1
 864 518 l 1
 912 518 l 1
 960 518 l 1
 960 566 l 1
 960 614 l 1
 960 662 l 1
 960 710 l 1
 960 758 l 1
 912 758 l 1
 864 758 l 1
 816 758 l 1
 802.42578125 758 l 1
 802.42578125 766.92578125 l 1
 691.244140625 766.92578125 l 1
 691.244140625 664.205078125 l 1
 685.2421875 674.552734375 678.826171875 684.204101562 672 693.169921875 c 1
 672 710 l 1
 672 758 l 1
 672 806 l 1
96 710 m 1
 144 710 l 1
 192 710 l 1
 240 710 l 1
 240 662 l 1
 240 631.056640625 l 1
 229.852539062 610.833984375 221.52734375 589.147460938 215.021484375 566 c 1
 192 566 l 1
 144 566 l 1
 96 566 l 1
 96 614 l 1
 96 662 l 1
 96 710 l 1
802.42578125 710 m 1
 816 710 l 1
 864 710 l 1
 912 710 l 1
 912 662 l 1
 912 614 l 1
 912 566 l 1
 864 566 l 1
 816 566 l 1
 802.42578125 566 l 1
 802.42578125 710 l 1
501.509765625 690.1875 m 0
 529.083984375 690.1875 553.916015625 685.05078125 576 674.779296875 c 1
 576 662 l 1
 528 662 l 1
 480 662 l 1
 480 614 l 1
 432 614 l 1
 432 566 l 1
 480 566 l 1
 480 518 l 1
 432 518 l 1
 432 470 l 1
 480 470 l 1
 480 422 l 1
 480 374 l 1
 432 374 l 1
 432 422 l 1
 384 422 l 1
 384 470 l 1
 384 518 l 1
 384 566 l 1
 384 614 l 1
 384 644.982421875 l 1
 415.122070312 675.109375 454.286132812 690.1875 501.509765625 690.1875 c 0
576 662 m 1
 598.306640625 662 l 1
 607.432617188 655.708984375 616 648.374023438 624 639.9765625 c 1
 624 614 l 1
 624 566 l 1
 576 566 l 1
 576 614 l 1
 576 662 l 1
576 566 m 1
 576 518 l 1
 528 518 l 1
 528 566 l 1
 576 566 l 1
576 518 m 1
 624 518 l 1
 624 470 l 1
 576 470 l 1
 576 518 l 1
528 518 m 1
 528 470 l 1
 480 470 l 1
 480 518 l 1
 528 518 l 1
528 566 m 1
 480 566 l 1
 480 614 l 1
 528 614 l 1
 528 566 l 1
480 374 m 1
 528 374 l 1
 528 422 l 1
 576 422 l 1
 576 374 l 1
 624 374 l 1
 672 374 l 1
 672 422 l 1
 691.205078125 422 l 1
 690.716796875 374.16015625 684.315429688 332.446289062 672 296.85546875 c 1
 672 326 l 1
 624 326 l 1
 624 278 l 1
 664.6796875 278 l 1
 657.908203125 262.390625 649.849609375 248.115234375 640.48828125 235.1875 c 0
 639.198242188 233.420898438 637.883789062 231.69921875 636.556640625 230 c 2
 624 230 l 1
 624 215.478515625 l 1
 609.778320312 200.678710938 593.78125 189.173828125 576 180.974609375 c 1
 576 182 l 1
 576 230 l 1
 528 230 l 1
 528 182 l 1
 528 167.376953125 l 1
 519.470703125 166.259765625 510.641601562 165.69921875 501.509765625 165.69921875 c 0
 454.286132812 165.69921875 415.122070312 180.646484375 384 210.513671875 c 1
 384 230 l 1
 384 278 l 1
 338.62890625 278 l 1
 332.287109375 292.793945312 327.09765625 308.795898438 323.0546875 326 c 1
 336 326 l 1
 336 374 l 1
 384 374 l 1
 384 326 l 1
 432 326 l 1
 432 278 l 1
 432 230 l 1
 432 182 l 1
 480 182 l 1
 480 230 l 1
 480 278 l 1
 480 326 l 1
 480 374 l 1
336 374 m 1
 315.078125 374 l 1
 313.4765625 389.25 312.588867188 405.247070312 312.419921875 422 c 1
 336 422 l 1
 336 374 l 1
336 571.248046875 m 1
 336 566 l 1
 336 518 l 1
 336 470 l 1
 313.986328125 470 l 1
 317.014648438 508.318359375 324.34765625 542.073242188 336 571.248046875 c 1
672 558.802734375 m 1
 681.107421875 532.58984375 686.98046875 502.989257812 689.619140625 470 c 1
 672 470 l 1
 672 518 l 1
 672 558.802734375 l 1
0 422 m 1
 48 422 l 1
 48 374 l 1
 0 374 l 1
 0 422 l 1
48 374 m 1
 96 374 l 1
 96 422 l 1
 144 422 l 1
 192 422 l 1
 197.619140625 422 l 1
 197.768554688 405.498046875 198.543945312 389.498046875 199.943359375 374 c 1
 192 374 l 1
 192 326 l 1
 192 278 l 1
 144 278 l 1
 144 326 l 1
 96 326 l 1
 48 326 l 1
 48 374 l 1
802.42578125 422 m 1
 816 422 l 1
 864 422 l 1
 912 422 l 1
 912 374 l 1
 864 374 l 1
 864 326 l 1
 816 326 l 1
 816 374 l 1
 802.42578125 374 l 1
 802.42578125 422 l 1
528 326 m 1
 528 278 l 1
 576 278 l 1
 576 326 l 1
 528 326 l 1
48 278 m 1
 96 278 l 1
 96 230 l 1
 48 230 l 1
 48 278 l 1
96 230 m 1
 144 230 l 1
 144 182 l 1
 96 182 l 1
 96 230 l 1
816 278 m 1
 864 278 l 1
 864 230 l 1
 816 230 l 1
 816 278 l 1
864 230 m 1
 912 230 l 1
 912 182 l 1
 960 182 l 1
 1008 182 l 1
 1008 134 l 1
 960 134 l 1
 960 86 l 1
 960 38 l 1
 912 38 l 1
 912 -10 l 1
 864 -10 l 1
 864 -58 l 1
 816 -58 l 1
 816 -10 l 1
 802.42578125 -10 l 1
 802.42578125 134 l 1
 816 134 l 1
 864 134 l 1
 864 182 l 1
 864 230 l 1
912 230 m 1
 912 278 l 1
 960 278 l 1
 960 230 l 1
 912 230 l 1
192 230 m 1
 237.44921875 230 l 2
 238.283203125 228.263671875 239.139648438 226.544921875 240 224.830078125 c 2
 240 182 l 1
 192 182 l 1
 192 230 l 1
0 134 m 1
 48 134 l 1
 96 134 l 1
 144 134 l 1
 192 134 l 1
 240 134 l 1
 288 134 l 1
 308.509765625 134 l 1
 317.323242188 126.129882812 326.485351562 119.013671875 336 112.658203125 c 1
 336 86 l 1
 336 38 l 1
 336 -10 l 1
 336 -58 l 1
 336 -106 l 1
 336 -154 l 1
 336 -202 l 1
 288 -202 l 1
 240 -202 l 1
 192 -202 l 1
 144 -202 l 1
 96 -202 l 1
 48 -202 l 1
 0 -202 l 1
 0 -154 l 1
 0 -106 l 1
 0 -58 l 1
 0 -10 l 1
 0 38 l 1
 0 86 l 1
 0 134 l 1
646.45703125 134 m 1
 672 134 l 1
 672 86 l 1
 624 86 l 1
 624 115.32421875 l 1
 631.831054688 120.98046875 639.318359375 127.204101562 646.45703125 134 c 1
576 89.54296875 m 2
 576 86 l 1
 565.966796875 86 l 2
 569.364257812 87.111328125 572.70703125 88.29296875 576 89.54296875 c 2
48 86 m 1
 48 38 l 1
 48 -10 l 1
 48 -58 l 1
 48 -106 l 1
 48 -154 l 1
 96 -154 l 1
 144 -154 l 1
 192 -154 l 1
 240 -154 l 1
 288 -154 l 1
 288 -106 l 1
 288 -58 l 1
 288 -10 l 1
 288 38 l 1
 288 86 l 1
 240 86 l 1
 192 86 l 1
 144 86 l 1
 96 86 l 1
 48 86 l 1
384 86 m 1
 389.90625 86 l 1
 403.387695312 81.3994140625 417.41796875 77.98828125 432 75.765625 c 1
 432 38 l 1
 480 38 l 1
 480 -10 l 1
 432 -10 l 1
 432 -58 l 1
 480 -58 l 1
 480 -10 l 1
 528 -10 l 1
 528 38 l 1
 576 38 l 1
 576 -10 l 1
 624 -10 l 1
 624 38 l 1
 672 38 l 1
 672 -10 l 1
 691.244140625 -10 l 1
 691.244140625 -154 l 1
 672 -154 l 1
 624 -154 l 1
 624 -202 l 1
 576 -202 l 1
 576 -154 l 1
 528 -154 l 1
 480 -154 l 1
 480 -106 l 1
 432 -106 l 1
 384 -106 l 1
 384 -58 l 1
 384 -10 l 1
 384 38 l 1
 384 86 l 1
480 38 m 1
 480 72.69140625 l 1
 496.842773438 72.943359375 512.84375 74.3193359375 528 76.818359375 c 1
 528 38 l 1
 480 38 l 1
816 86 m 1
 816 38 l 1
 864 38 l 1
 864 86 l 1
 816 86 l 1
96 38 m 1
 144 38 l 1
 192 38 l 1
 240 38 l 1
 240 -10 l 1
 240 -58 l 1
 240 -106 l 1
 192 -106 l 1
 144 -106 l 1
 96 -106 l 1
 96 -58 l 1
 96 -10 l 1
 96 38 l 1
528 -58 m 1
 528 -106 l 1
 576 -106 l 1
 576 -58 l 1
 528 -58 l 1
624 -58 m 1
 624 -106 l 1
 672 -106 l 1
 672 -58 l 1
 624 -58 l 1
816 -106 m 1
 864 -106 l 1
 864 -154 l 1
 816 -154 l 1
 816 -106 l 1
864 -154 m 1
 912 -154 l 1
 960 -154 l 1
 960 -202 l 1
 912 -202 l 1
 864 -202 l 1
 864 -154 l 1
384 -154 m 1
 432 -154 l 1
 432 -202 l 1
 384 -202 l 1
 384 -154 l 1
720 -167.240234375 m 1
 768 -167.240234375 l 1
 768 -202 l 1
 720 -202 l 1
 720 -167.240234375 l 1
EndSplineSet
EndChar

StartChar: r
Encoding: 114 114 17
Width: 1092
VWidth: 1056
Flags: HW
LayerCount: 2
Fore
SplineSet
0 806 m 1
 48 806 l 1
 96 806 l 1
 144 806 l 1
 192 806 l 1
 240 806 l 1
 288 806 l 1
 336 806 l 1
 336 758 l 1
 336 710 l 1
 336 662 l 1
 336 632.220703125 l 1
 305.806640625 632.220703125 l 1
 305.806640625 470 l 1
 288 470 l 1
 240 470 l 1
 192 470 l 1
 144 470 l 1
 96 470 l 1
 48 470 l 1
 0 470 l 1
 0 518 l 1
 0 566 l 1
 0 614 l 1
 0 662 l 1
 0 710 l 1
 0 758 l 1
 0 806 l 1
384 806 m 1
 432 806 l 1
 480 806 l 1
 528 806 l 1
 576 806 l 1
 576 758 l 1
 624 758 l 1
 624 710 l 1
 576 710 l 1
 528 710 l 1
 528 662 l 1
 480 662 l 1
 432 662 l 1
 432 710 l 1
 480 710 l 1
 480 758 l 1
 432 758 l 1
 384 758 l 1
 384 806 l 1
432 662 m 1
 432 614 l 1
 480 614 l 1
 501.046875 614 l 1
 479.79296875 601.624023438 460.930664062 585.625976562 444.46484375 566 c 1
 432 566 l 1
 432 549.798828125 l 1
 426.932617188 542.626953125 422.126953125 535.05859375 417.591796875 527.08203125 c 1
 417.591796875 632.220703125 l 1
 384 632.220703125 l 1
 384 662 l 1
 432 662 l 1
672 806 m 1
 720 806 l 1
 768 806 l 1
 816 806 l 1
 864 806 l 1
 912 806 l 1
 960 806 l 1
 1008 806 l 1
 1008 758 l 1
 1008 710 l 1
 1008 662 l 1
 1008 614 l 1
 1008 566 l 1
 1008 518 l 1
 1008 470 l 1
 960 470 l 1
 912 470 l 1
 864 470 l 1
 816 470 l 1
 768 470 l 1
 720 470 l 1
 672 470 l 1
 672 518 l 1
 672 541.22265625 l 1
 682.74609375 538.048828125 692.811523438 533.73828125 702.193359375 528.291015625 c 1
 701.58984375 642.494140625 l 1
 690.794921875 644.421875 680.950195312 645.779296875 672 646.599609375 c 1
 672 662 l 1
 672 710 l 1
 672 758 l 1
 672 806 l 1
48 758 m 1
 48 710 l 1
 48 662 l 1
 48 614 l 1
 48 566 l 1
 48 518 l 1
 96 518 l 1
 144 518 l 1
 192 518 l 1
 240 518 l 1
 288 518 l 1
 288 566 l 1
 288 614 l 1
 288 662 l 1
 288 710 l 1
 288 758 l 1
 240 758 l 1
 192 758 l 1
 144 758 l 1
 96 758 l 1
 48 758 l 1
720 758 m 1
 720 710 l 1
 720 662 l 1
 720 614 l 1
 720 566 l 1
 720 518 l 1
 768 518 l 1
 816 518 l 1
 864 518 l 1
 912 518 l 1
 960 518 l 1
 960 566 l 1
 960 614 l 1
 960 662 l 1
 960 710 l 1
 960 758 l 1
 912 758 l 1
 864 758 l 1
 816 758 l 1
 768 758 l 1
 720 758 l 1
96 710 m 1
 144 710 l 1
 192 710 l 1
 240 710 l 1
 240 662 l 1
 240 614 l 1
 240 566 l 1
 192 566 l 1
 144 566 l 1
 96 566 l 1
 96 614 l 1
 96 662 l 1
 96 710 l 1
768 710 m 1
 816 710 l 1
 864 710 l 1
 912 710 l 1
 912 662 l 1
 912 614 l 1
 912 566 l 1
 864 566 l 1
 816 566 l 1
 768 566 l 1
 768 614 l 1
 768 662 l 1
 768 710 l 1
576 546.841796875 m 1
 576 518 l 1
 528 518 l 1
 528 533.421875 l 1
 542.651367188 539.8046875 558.653320312 544.27734375 576 546.841796875 c 1
576 518 m 1
 624 518 l 1
 624 470 l 1
 624 422 l 1
 576 422 l 1
 576 374 l 1
 624 374 l 1
 624 326 l 1
 576 326 l 1
 576 278 l 1
 528 278 l 1
 528 326 l 1
 528 374 l 1
 528 422 l 1
 528 470 l 1
 576 470 l 1
 576 518 l 1
624 422 m 1
 672 422 l 1
 720 422 l 1
 768 422 l 1
 816 422 l 1
 864 422 l 1
 864 374 l 1
 864 326 l 1
 912 326 l 1
 912 278 l 1
 912 230 l 1
 960 230 l 1
 960 278 l 1
 1008 278 l 1
 1008 230 l 1
 1008 182 l 1
 960 182 l 1
 912 182 l 1
 912 134 l 1
 864 134 l 1
 864 182 l 1
 864 230 l 1
 864 278 l 1
 816 278 l 1
 816 230 l 1
 768 230 l 1
 768 278 l 1
 720 278 l 1
 720 230 l 1
 720 182 l 1
 720 134 l 1
 672 134 l 1
 672 86 l 1
 624 86 l 1
 624 38 l 1
 576 38 l 1
 576 -10 l 1
 624 -10 l 1
 624 -58 l 1
 576 -58 l 1
 576 -106 l 1
 528 -106 l 1
 528 -58 l 1
 480 -58 l 1
 480 -10 l 1
 528 -10 l 1
 528 38 l 1
 528 86 l 1
 576 86 l 1
 576 134 l 1
 576 182 l 1
 576 230 l 1
 624 230 l 1
 624 278 l 1
 672 278 l 1
 672 326 l 1
 720 326 l 1
 720 374 l 1
 672 374 l 1
 624 374 l 1
 624 422 l 1
912 326 m 1
 912 374 l 1
 960 374 l 1
 960 422 l 1
 1008 422 l 1
 1008 374 l 1
 1008 326 l 1
 960 326 l 1
 912 326 l 1
912 134 m 1
 960 134 l 1
 960 86 l 1
 960 38 l 1
 1008 38 l 1
 1008 -10 l 1
 1008 -58 l 1
 960 -58 l 1
 912 -58 l 1
 912 -10 l 1
 864 -10 l 1
 864 -58 l 1
 912 -58 l 1
 912 -106 l 1
 912 -154 l 1
 912 -202 l 1
 864 -202 l 1
 864 -154 l 1
 864 -106 l 1
 816 -106 l 1
 816 -154 l 1
 768 -154 l 1
 768 -106 l 1
 720 -106 l 1
 720 -154 l 1
 720 -202 l 1
 672 -202 l 1
 624 -202 l 1
 576 -202 l 1
 576 -154 l 1
 624 -154 l 1
 624 -106 l 1
 672 -106 l 1
 672 -58 l 1
 720 -58 l 1
 720 -10 l 1
 672 -10 l 1
 672 38 l 1
 720 38 l 1
 720 86 l 1
 768 86 l 1
 768 38 l 1
 816 38 l 1
 816 86 l 1
 864 86 l 1
 864 38 l 1
 912 38 l 1
 912 86 l 1
 912 134 l 1
480 -58 m 1
 480 -106 l 1
 480 -154 l 1
 528 -154 l 1
 528 -202 l 1
 480 -202 l 1
 432 -202 l 1
 384 -202 l 1
 384 -154 l 1
 432 -154 l 1
 432 -106 l 1
 432 -58 l 1
 480 -58 l 1
480 -10 m 1
 432 -10 l 1
 417.591796875 -10 l 1
 417.591796875 38 l 1
 432 38 l 1
 432 86 l 1
 480 86 l 1
 480 38 l 1
 480 -10 l 1
432 86 m 1
 417.591796875 86 l 1
 417.591796875 311.970703125 l 2
 417.591796875 316.716796875 417.658203125 321.392578125 417.787109375 326 c 1
 432 326 l 1
 432 374 l 1
 480 374 l 1
 480 326 l 1
 480 278 l 1
 432 278 l 1
 432 230 l 1
 480 230 l 1
 528 230 l 1
 528 182 l 1
 528 134 l 1
 528 86 l 1
 480 86 l 1
 480 134 l 1
 432 134 l 1
 432 86 l 1
432 374 m 1
 421.81640625 374 l 1
 424.201171875 390.272460938 427.591796875 405.463867188 432 419.56640625 c 1
 432 374 l 1
528 470 m 1
 480 470 l 1
 480 501.150390625 l 1
 486.352539062 507.365234375 493.124023438 512.985351562 500.32421875 518 c 1
 528 518 l 1
 528 470 l 1
480 470 m 1
 480 422 l 1
 432.78125 422 l 1
 438.52734375 439.75 445.90625 455.749023438 454.916015625 470 c 1
 480 470 l 1
0 422 m 1
 48 422 l 1
 48 374 l 1
 0 374 l 1
 0 422 l 1
192 422 m 1
 240 422 l 1
 240 374 l 1
 240 326 l 1
 240 278 l 1
 240 230 l 1
 192 230 l 1
 192 278 l 1
 144 278 l 1
 96 278 l 1
 96 326 l 1
 96 374 l 1
 144 374 l 1
 144 326 l 1
 192 326 l 1
 192 374 l 1
 192 422 l 1
240 230 m 1
 288 230 l 1
 305.806640625 230 l 1
 305.806640625 182 l 1
 288 182 l 1
 240 182 l 1
 240 230 l 1
192 230 m 1
 192 182 l 1
 144 182 l 1
 144 230 l 1
 192 230 l 1
96 278 m 1
 96 230 l 1
 48 230 l 1
 48 278 l 1
 96 278 l 1
288 422 m 1
 305.806640625 422 l 1
 305.806640625 374 l 1
 288 374 l 1
 288 422 l 1
768 374 m 1
 768 326 l 1
 816 326 l 1
 816 374 l 1
 768 374 l 1
288 326 m 1
 305.806640625 326 l 1
 305.806640625 278 l 1
 288 278 l 1
 288 326 l 1
0 134 m 1
 48 134 l 1
 96 134 l 1
 144 134 l 1
 192 134 l 1
 240 134 l 1
 288 134 l 1
 305.806640625 134 l 1
 305.806640625 -44.537109375 l 1
 336 -44.537109375 l 1
 336 -58 l 1
 336 -106 l 1
 336 -154 l 1
 336 -202 l 1
 288 -202 l 1
 240 -202 l 1
 192 -202 l 1
 144 -202 l 1
 96 -202 l 1
 48 -202 l 1
 0 -202 l 1
 0 -154 l 1
 0 -106 l 1
 0 -58 l 1
 0 -10 l 1
 0 38 l 1
 0 86 l 1
 0 134 l 1
48 86 m 1
 48 38 l 1
 48 -10 l 1
 48 -58 l 1
 48 -106 l 1
 48 -154 l 1
 96 -154 l 1
 144 -154 l 1
 192 -154 l 1
 240 -154 l 1
 288 -154 l 1
 288 -106 l 1
 288 -58 l 1
 288 -10 l 1
 288 38 l 1
 288 86 l 1
 240 86 l 1
 192 86 l 1
 144 86 l 1
 96 86 l 1
 48 86 l 1
96 38 m 1
 144 38 l 1
 192 38 l 1
 240 38 l 1
 240 -10 l 1
 240 -58 l 1
 240 -106 l 1
 192 -106 l 1
 144 -106 l 1
 96 -106 l 1
 96 -58 l 1
 96 -10 l 1
 96 38 l 1
768 -10 m 1
 768 -58 l 1
 816 -58 l 1
 816 -10 l 1
 768 -10 l 1
960 -154 m 1
 1008 -154 l 1
 1008 -202 l 1
 960 -202 l 1
 960 -154 l 1
EndSplineSet
EndChar

StartChar: s
Encoding: 115 115 18
Width: 1092
VWidth: 1056
Flags: HW
LayerCount: 2
Fore
SplineSet
0 806 m 1
 48 806 l 1
 96 806 l 1
 144 806 l 1
 192 806 l 1
 240 806 l 1
 288 806 l 1
 336 806 l 1
 336 758 l 1
 336 710 l 1
 336 662 l 1
 336 615.1953125 l 1
 331.111328125 612.078125 326.401367188 608.795898438 321.890625 605.33203125 c 0
 308.643554688 595.16015625 297.357421875 583.727539062 288 571.0546875 c 1
 288 614 l 1
 288 662 l 1
 288 710 l 1
 288 758 l 1
 240 758 l 1
 192 758 l 1
 144 758 l 1
 96 758 l 1
 48 758 l 1
 48 710 l 1
 48 662 l 1
 48 614 l 1
 48 566 l 1
 48 518 l 1
 96 518 l 1
 144 518 l 1
 192 518 l 1
 240 518 l 1
 262.10546875 518 l 1
 257.83984375 503.112304688 255.303710938 487.112304688 254.5 470 c 1
 240 470 l 1
 192 470 l 1
 144 470 l 1
 96 470 l 1
 48 470 l 1
 0 470 l 1
 0 518 l 1
 0 566 l 1
 0 614 l 1
 0 662 l 1
 0 710 l 1
 0 758 l 1
 0 806 l 1
384 806 m 1
 432 806 l 1
 480 806 l 1
 528 806 l 1
 528 758 l 1
 576 758 l 1
 624 758 l 1
 624 710 l 1
 576 710 l 1
 576 662 l 1
 624 662 l 1
 624 649.208984375 l 1
 593.66796875 653.94921875 561.666992188 656.6015625 528 657.173828125 c 1
 528 662 l 1
 528 710 l 1
 480 710 l 1
 480 662 l 1
 480 656.248046875 l 1
 443.907226562 653.971679688 411.907226562 647.94921875 384 638.18359375 c 1
 384 662 l 1
 432 662 l 1
 432 710 l 1
 432 758 l 1
 384 758 l 1
 384 806 l 1
672 806 m 1
 720 806 l 1
 768 806 l 1
 816 806 l 1
 864 806 l 1
 912 806 l 1
 960 806 l 1
 1008 806 l 1
 1008 758 l 1
 1008 710 l 1
 1008 662 l 1
 1008 614 l 1
 1008 566 l 1
 1008 518 l 1
 1008 470 l 1
 960 470 l 1
 912 470 l 1
 864 470 l 1
 816 470 l 1
 768 470 l 1
 720 470 l 1
 672 470 l 1
 672 518 l 1
 672 540.71875 l 1
 688.296875 535.1484375 704.296875 528.58984375 720 521.041015625 c 1
 720 518 l 1
 726.19921875 518 l 2
 727.588867188 517.305664062 728.978515625 516.614257812 730.36328125 515.904296875 c 2
 730.36328125 518 l 1
 768 518 l 1
 816 518 l 1
 864 518 l 1
 912 518 l 1
 960 518 l 1
 960 566 l 1
 960 614 l 1
 960 662 l 1
 960 710 l 1
 960 758 l 1
 912 758 l 1
 864 758 l 1
 816 758 l 1
 768 758 l 1
 720 758 l 1
 720 710 l 1
 720 662 l 1
 720 624.970703125 l 1
 704.678710938 630.56640625 688.676757812 635.431640625 672 639.57421875 c 1
 672 662 l 1
 672 710 l 1
 672 758 l 1
 672 806 l 1
96 710 m 1
 144 710 l 1
 192 710 l 1
 240 710 l 1
 240 662 l 1
 240 614 l 1
 240 566 l 1
 192 566 l 1
 144 566 l 1
 96 566 l 1
 96 614 l 1
 96 662 l 1
 96 710 l 1
768 710 m 1
 816 710 l 1
 864 710 l 1
 912 710 l 1
 912 662 l 1
 912 614 l 1
 912 566 l 1
 864 566 l 1
 816 566 l 1
 768 566 l 1
 768 614 l 1
 768 662 l 1
 768 710 l 1
527.3359375 564.244140625 m 0
 543.807617188 564.244140625 560.02734375 563.403320312 576 561.740234375 c 1
 576 518 l 1
 528 518 l 1
 528 470 l 1
 480 470 l 1
 480 518 l 1
 432 518 l 1
 432 470 l 1
 480 470 l 1
 480 422 l 1
 528 422 l 1
 528 470 l 1
 576 470 l 1
 576 518 l 1
 624 518 l 1
 624 470 l 1
 624 422 l 1
 576 422 l 1
 576 374 l 1
 624 374 l 1
 624 330.81640625 l 1
 601.727539062 338.6171875 576.565429688 345.53125 548.484375 351.548828125 c 2
 528 356.1015625 l 1
 528 374 l 1
 480 374 l 1
 455.8359375 374 l 1
 425.825195312 382.975585938 404.301757812 392.208007812 391.380859375 401.701171875 c 0
 383.553710938 407.611328125 377.286132812 414.379882812 372.5625 422 c 1
 384 422 l 1
 384 470 l 1
 384 518 l 1
 384 523.6484375 l 1
 389.331054688 529.311523438 395.611328125 534.387695312 402.861328125 538.865234375 c 0
 430.657226562 555.784179688 472.1484375 564.244140625 527.3359375 564.244140625 c 0
624 422 m 1
 672 422 l 1
 720 422 l 1
 768 422 l 1
 816 422 l 1
 864 422 l 1
 864 374 l 1
 864 326 l 1
 912 326 l 1
 912 278 l 1
 960 278 l 1
 1008 278 l 1
 1008 230 l 1
 1008 182 l 1
 960 182 l 1
 912 182 l 1
 912 134 l 1
 864 134 l 1
 864 182 l 1
 864 230 l 1
 864 278 l 1
 816 278 l 1
 816 230 l 1
 768 230 l 1
 768 278 l 1
 720 278 l 1
 720 276.2890625 l 2
 718.841796875 277.420898438 717.666992188 278.541992188 716.46484375 279.642578125 c 0
 704.607421875 290.77734375 689.775390625 300.999023438 672 310.31640625 c 1
 672 326 l 1
 720 326 l 1
 720 374 l 1
 672 374 l 1
 624 374 l 1
 624 422 l 1
912 326 m 1
 912 374 l 1
 960 374 l 1
 960 422 l 1
 1008 422 l 1
 1008 374 l 1
 1008 326 l 1
 960 326 l 1
 912 326 l 1
912 134 m 1
 960 134 l 1
 960 86 l 1
 960 38 l 1
 1008 38 l 1
 1008 -10 l 1
 1008 -58 l 1
 960 -58 l 1
 912 -58 l 1
 912 -10 l 1
 864 -10 l 1
 864 -58 l 1
 912 -58 l 1
 912 -106 l 1
 912 -154 l 1
 912 -202 l 1
 864 -202 l 1
 864 -154 l 1
 864 -106 l 1
 816 -106 l 1
 816 -154 l 1
 768 -154 l 1
 768 -106 l 1
 720 -106 l 1
 720 -154 l 1
 720 -202 l 1
 672 -202 l 1
 624 -202 l 1
 576 -202 l 1
 576 -154 l 1
 624 -154 l 1
 624 -106 l 1
 672 -106 l 1
 672 -58 l 1
 720 -58 l 1
 720 -10 l 1
 674.203125 -10 l 2
 680.266601562 -6.3330078125 686.104492188 -2.4443359375 691.69140625 1.689453125 c 0
 722.984375 24.654296875 744.473632812 52.7587890625 756.162109375 86 c 1
 768 86 l 1
 768 38 l 1
 816 38 l 1
 816 86 l 1
 864 86 l 1
 864 38 l 1
 912 38 l 1
 912 86 l 1
 912 134 l 1
0 422 m 1
 48 422 l 1
 48 374 l 1
 0 374 l 1
 0 422 l 1
48 374 m 1
 96 374 l 1
 144 374 l 1
 144 326 l 1
 96 326 l 1
 48 326 l 1
 48 374 l 1
144 326 m 1
 192 326 l 1
 192 374 l 1
 192 422 l 1
 240 422 l 1
 240 374 l 1
 240 326 l 1
 288 326 l 1
 309.0703125 326 l 1
 328.098632812 310.166992188 353.079101562 296.71484375 384 285.638671875 c 1
 384 278 l 1
 384 230 l 1
 336 230 l 1
 336 278 l 1
 288 278 l 1
 240 278 l 1
 240 230 l 1
 288 230 l 1
 336 230 l 1
 336 182 l 1
 288 182 l 1
 240 182 l 1
 192 182 l 1
 144 182 l 1
 96 182 l 1
 48 182 l 1
 48 230 l 1
 96 230 l 1
 96 278 l 1
 144 278 l 1
 144 230 l 1
 192 230 l 1
 192 278 l 1
 144 278 l 1
 144 326 l 1
384 230 m 1
 432 230 l 1
 480 230 l 1
 528 230 l 1
 528 182 l 1
 528 134 l 1
 480 134 l 1
 480 86 l 1
 480 39.8671875 l 1
 464.067382812 40.2041015625 448.06640625 41.40625 432 43.478515625 c 1
 432 86 l 1
 384 86 l 1
 384 134 l 1
 384 182 l 1
 384 230 l 1
768 374 m 1
 768 326 l 1
 816 326 l 1
 816 374 l 1
 768 374 l 1
576 230 m 1
 588.2578125 230 l 1
 602.859375 224.075195312 613.975585938 218.064453125 621.59765625 211.966796875 c 0
 642.142578125 195.853515625 652.416015625 172.69140625 652.416015625 142.478515625 c 0
 652.416015625 120.301757812 645.895507812 101.477539062 632.869140625 86 c 1
 624 86 l 1
 624 76.869140625 l 1
 619.829101562 73.125 615.206054688 69.615234375 610.1171875 66.34375 c 0
 589.3203125 53.271484375 561.943359375 45.025390625 528 41.59375 c 1
 528 86 l 1
 576 86 l 1
 576 134 l 1
 576 182 l 1
 576 230 l 1
0 134 m 1
 48 134 l 1
 96 134 l 1
 144 134 l 1
 192 134 l 1
 240 134 l 1
 288 134 l 1
 336 134 l 1
 336 86 l 1
 336 66.259765625 l 1
 320.09375 71.7607421875 304.094726562 78.0673828125 288 85.205078125 c 1
 288 86 l 1
 286.23046875 86 l 1
 274.001953125 91.466796875 261.720703125 97.396484375 249.3828125 103.806640625 c 1
 249.3828125 86 l 1
 240 86 l 1
 192 86 l 1
 144 86 l 1
 96 86 l 1
 48 86 l 1
 48 38 l 1
 48 -10 l 1
 48 -58 l 1
 48 -106 l 1
 48 -154 l 1
 96 -154 l 1
 144 -154 l 1
 192 -154 l 1
 240 -154 l 1
 288 -154 l 1
 288 -106 l 1
 288 -58 l 1
 288 -22.72265625 l 1
 304.331054688 -27.3388671875 320.333007812 -31.4169921875 336 -34.9453125 c 1
 336 -58 l 1
 336 -106 l 1
 336 -154 l 1
 336 -202 l 1
 288 -202 l 1
 240 -202 l 1
 192 -202 l 1
 144 -202 l 1
 96 -202 l 1
 48 -202 l 1
 0 -202 l 1
 0 -154 l 1
 0 -106 l 1
 0 -58 l 1
 0 -10 l 1
 0 38 l 1
 0 86 l 1
 0 134 l 1
96 38 m 1
 144 38 l 1
 192 38 l 1
 240 38 l 1
 240 -10 l 1
 240 -58 l 1
 240 -106 l 1
 192 -106 l 1
 144 -106 l 1
 96 -106 l 1
 96 -58 l 1
 96 -10 l 1
 96 38 l 1
768 -10 m 1
 768 -58 l 1
 816 -58 l 1
 816 -10 l 1
 768 -10 l 1
624 -33.2265625 m 1
 624 -58 l 1
 576 -58 l 1
 576 -106 l 1
 528 -106 l 1
 528 -58 l 1
 528 -51.8203125 l 1
 563.63671875 -49.1806640625 595.634765625 -42.98046875 624 -33.2265625 c 1
528 -106 m 1
 528 -154 l 1
 528 -202 l 1
 480 -202 l 1
 480 -154 l 1
 432 -154 l 1
 432 -106 l 1
 432 -58 l 1
 432 -50.64453125 l 1
 448.297851562 -52.185546875 464.299804688 -53.0595703125 480 -53.255859375 c 1
 480 -58 l 1
 480 -106 l 1
 528 -106 l 1
432 -154 m 1
 432 -202 l 1
 384 -202 l 1
 384 -154 l 1
 432 -154 l 1
960 -154 m 1
 1008 -154 l 1
 1008 -202 l 1
 960 -202 l 1
 960 -154 l 1
EndSplineSet
EndChar

StartChar: t
Encoding: 116 116 19
Width: 1092
VWidth: 1056
Flags: HW
LayerCount: 2
Fore
SplineSet
0 806 m 1
 48 806 l 1
 96 806 l 1
 144 806 l 1
 192 806 l 1
 240 806 l 1
 288 806 l 1
 336 806 l 1
 336 758 l 1
 336 710 l 1
 336 662 l 1
 336 614 l 1
 336 566 l 1
 336 544.302734375 l 1
 316.814453125 544.302734375 l 1
 316.814453125 470 l 1
 288 470 l 1
 240 470 l 1
 192 470 l 1
 144 470 l 1
 96 470 l 1
 48 470 l 1
 0 470 l 1
 0 518 l 1
 0 566 l 1
 0 614 l 1
 0 662 l 1
 0 710 l 1
 0 758 l 1
 0 806 l 1
384 806 m 1
 432 806 l 1
 432 758 l 1
 384 758 l 1
 384 806 l 1
432 758 m 1
 480 758 l 1
 480 806 l 1
 528 806 l 1
 576 806 l 1
 576 758 l 1
 528 758 l 1
 528 710 l 1
 576 710 l 1
 576 662 l 1
 624 662 l 1
 624 614 l 1
 624 566 l 1
 576 566 l 1
 576 614 l 1
 528 614 l 1
 528 566 l 1
 510.173828125 566 l 1
 510.173828125 736.455078125 l 1
 432 736.455078125 l 1
 432 758 l 1
576 566 m 1
 576 544.302734375 l 1
 528 544.302734375 l 1
 528 566 l 1
 576 566 l 1
672 806 m 1
 720 806 l 1
 768 806 l 1
 816 806 l 1
 864 806 l 1
 912 806 l 1
 960 806 l 1
 1008 806 l 1
 1008 758 l 1
 1008 710 l 1
 1008 662 l 1
 1008 614 l 1
 1008 566 l 1
 1008 518 l 1
 1008 470 l 1
 960 470 l 1
 912 470 l 1
 864 470 l 1
 816 470 l 1
 768 470 l 1
 739.185546875 470 l 1
 739.185546875 518 l 1
 768 518 l 1
 816 518 l 1
 864 518 l 1
 912 518 l 1
 960 518 l 1
 960 566 l 1
 960 614 l 1
 960 662 l 1
 960 710 l 1
 960 758 l 1
 912 758 l 1
 864 758 l 1
 816 758 l 1
 768 758 l 1
 720 758 l 1
 720 710 l 1
 720 662 l 1
 720 614 l 1
 720 566 l 1
 720 544.302734375 l 1
 672 544.302734375 l 1
 672 566 l 1
 672 614 l 1
 672 662 l 1
 672 710 l 1
 672 758 l 1
 672 806 l 1
48 758 m 1
 48 710 l 1
 48 662 l 1
 48 614 l 1
 48 566 l 1
 48 518 l 1
 96 518 l 1
 144 518 l 1
 192 518 l 1
 240 518 l 1
 288 518 l 1
 288 566 l 1
 288 614 l 1
 288 662 l 1
 288 710 l 1
 288 758 l 1
 240 758 l 1
 192 758 l 1
 144 758 l 1
 96 758 l 1
 48 758 l 1
96 710 m 1
 144 710 l 1
 192 710 l 1
 240 710 l 1
 240 662 l 1
 240 614 l 1
 240 566 l 1
 192 566 l 1
 144 566 l 1
 96 566 l 1
 96 614 l 1
 96 662 l 1
 96 710 l 1
768 710 m 1
 816 710 l 1
 864 710 l 1
 912 710 l 1
 912 662 l 1
 912 614 l 1
 912 566 l 1
 864 566 l 1
 816 566 l 1
 768 566 l 1
 768 614 l 1
 768 662 l 1
 768 710 l 1
384 662 m 1
 398.388671875 662 l 1
 398.388671875 544.302734375 l 1
 384 544.302734375 l 1
 384 566 l 1
 384 614 l 1
 384 662 l 1
384 457.896484375 m 1
 398.388671875 457.896484375 l 1
 398.388671875 90.513671875 l 2
 398.388671875 88.9951171875 398.405273438 87.501953125 398.416015625 86 c 2
 384 86 l 1
 384 134 l 1
 384 182 l 1
 336 182 l 1
 288 182 l 1
 288 230 l 1
 336 230 l 1
 336 278 l 1
 384 278 l 1
 384 326 l 1
 384 374 l 1
 336 374 l 1
 288 374 l 1
 288 422 l 1
 336 422 l 1
 384 422 l 1
 384 457.896484375 l 1
336 278 m 1
 288 278 l 1
 288 326 l 1
 336 326 l 1
 336 278 l 1
288 326 m 1
 240 326 l 1
 240 374 l 1
 288 374 l 1
 288 326 l 1
240 326 m 1
 240 278 l 1
 192 278 l 1
 144 278 l 1
 96 278 l 1
 96 326 l 1
 48 326 l 1
 48 374 l 1
 96 374 l 1
 144 374 l 1
 192 374 l 1
 192 326 l 1
 240 326 l 1
96 278 m 1
 96 230 l 1
 48 230 l 1
 48 278 l 1
 96 278 l 1
96 230 m 1
 144 230 l 1
 192 230 l 1
 192 182 l 1
 144 182 l 1
 96 182 l 1
 96 230 l 1
48 374 m 1
 0 374 l 1
 0 422 l 1
 48 422 l 1
 48 374 l 1
192 374 m 1
 192 422 l 1
 240 422 l 1
 240 374 l 1
 192 374 l 1
528 457.896484375 m 1
 624 457.896484375 l 1
 624 422 l 1
 576 422 l 1
 576 374 l 1
 624 374 l 1
 624 326 l 1
 576 326 l 1
 576 278 l 1
 528 278 l 1
 528 230 l 1
 528 182 l 1
 510.173828125 182 l 1
 510.173828125 326 l 1
 528 326 l 1
 528 374 l 1
 528 422 l 1
 528 457.896484375 l 1
624 422 m 1
 672 422 l 1
 720 422 l 1
 768 422 l 1
 816 422 l 1
 864 422 l 1
 864 374 l 1
 864 326 l 1
 912 326 l 1
 912 278 l 1
 912 230 l 1
 912 182 l 1
 912 134 l 1
 864 134 l 1
 864 182 l 1
 864 230 l 1
 864 278 l 1
 816 278 l 1
 816 230 l 1
 768 230 l 1
 768 278 l 1
 720 278 l 1
 720 230 l 1
 720 182 l 1
 720 134 l 1
 672 134 l 1
 672 86 l 1
 624 86 l 1
 624 38 l 1
 576 38 l 1
 576 -10 l 1
 624 -10 l 1
 624 -39.390625 l 1
 578.231445312 -39.2783203125 547.728515625 -31.4306640625 532.53125 -15.833984375 c 0
 530.93359375 -14.1494140625 529.426757812 -12.2236328125 528 -10.0859375 c 2
 528 -10 l 1
 527.943359375 -10 l 1
 516.471679688 7.2685546875 510.571289062 39.296875 510.212890625 86 c 1
 528 86 l 1
 576 86 l 1
 576 134 l 1
 576 182 l 1
 576 230 l 1
 624 230 l 1
 624 278 l 1
 672 278 l 1
 672 326 l 1
 720 326 l 1
 720 374 l 1
 672 374 l 1
 624 374 l 1
 624 422 l 1
912 326 m 1
 912 374 l 1
 960 374 l 1
 960 422 l 1
 1008 422 l 1
 1008 374 l 1
 1008 326 l 1
 960 326 l 1
 912 326 l 1
912 134 m 1
 960 134 l 1
 960 86 l 1
 960 38 l 1
 1008 38 l 1
 1008 -10 l 1
 1008 -58 l 1
 960 -58 l 1
 912 -58 l 1
 912 -10 l 1
 864 -10 l 1
 864 -58 l 1
 912 -58 l 1
 912 -106 l 1
 912 -154 l 1
 912 -202 l 1
 864 -202 l 1
 864 -154 l 1
 864 -106 l 1
 816 -106 l 1
 816 -154 l 1
 768 -154 l 1
 768 -106 l 1
 739.185546875 -106 l 1
 739.185546875 -39.400390625 l 1
 720 -39.400390625 l 1
 720 -10 l 1
 672 -10 l 1
 672 38 l 1
 720 38 l 1
 720 86 l 1
 768 86 l 1
 768 38 l 1
 816 38 l 1
 816 86 l 1
 864 86 l 1
 864 38 l 1
 912 38 l 1
 912 86 l 1
 912 134 l 1
768 374 m 1
 768 326 l 1
 816 326 l 1
 816 374 l 1
 768 374 l 1
960 230 m 1
 1008 230 l 1
 1008 182 l 1
 960 182 l 1
 960 230 l 1
0 134 m 1
 48 134 l 1
 96 134 l 1
 144 134 l 1
 192 134 l 1
 240 134 l 1
 288 134 l 1
 336 134 l 1
 336 86 l 1
 336 38 l 1
 336 -10 l 1
 336 -58 l 1
 336 -106 l 1
 336 -154 l 1
 336 -202 l 1
 288 -202 l 1
 240 -202 l 1
 192 -202 l 1
 144 -202 l 1
 96 -202 l 1
 48 -202 l 1
 0 -202 l 1
 0 -154 l 1
 0 -106 l 1
 0 -58 l 1
 0 -10 l 1
 0 38 l 1
 0 86 l 1
 0 134 l 1
48 86 m 1
 48 38 l 1
 48 -10 l 1
 48 -58 l 1
 48 -106 l 1
 48 -154 l 1
 96 -154 l 1
 144 -154 l 1
 192 -154 l 1
 240 -154 l 1
 288 -154 l 1
 288 -106 l 1
 288 -58 l 1
 288 -10 l 1
 288 38 l 1
 288 86 l 1
 240 86 l 1
 192 86 l 1
 144 86 l 1
 96 86 l 1
 48 86 l 1
96 38 m 1
 144 38 l 1
 192 38 l 1
 240 38 l 1
 240 -10 l 1
 240 -58 l 1
 240 -106 l 1
 192 -106 l 1
 144 -106 l 1
 96 -106 l 1
 96 -58 l 1
 96 -10 l 1
 96 38 l 1
384 38 m 1
 400.810546875 38 l 1
 402.55078125 20.4892578125 405.233398438 4.494140625 408.853515625 -10 c 1
 384 -10 l 1
 384 38 l 1
768 -10 m 1
 768 -58 l 1
 816 -58 l 1
 816 -10 l 1
 768 -10 l 1
432 -65.814453125 m 1
 436.635742188 -72.87890625 441.737304688 -79.193359375 447.33203125 -84.71875 c 0
 455.673828125 -92.8544921875 465.764648438 -99.9443359375 477.58203125 -106 c 1
 432 -106 l 1
 432 -65.814453125 l 1
480 -107.208984375 m 1
 493.744140625 -113.955078125 509.736328125 -119.35546875 528 -123.396484375 c 1
 528 -154 l 1
 528 -202 l 1
 480 -202 l 1
 432 -202 l 1
 384 -202 l 1
 384 -154 l 1
 432 -154 l 1
 480 -154 l 1
 480 -107.208984375 l 1
624 -132.44921875 m 2
 624.330078125 -132.450195312 624.651367188 -132.455078125 624.982421875 -132.455078125 c 2
 720 -132.455078125 l 1
 720 -154 l 1
 720 -202 l 1
 672 -202 l 1
 624 -202 l 1
 576 -202 l 1
 576 -154 l 1
 624 -154 l 1
 624 -132.44921875 l 2
960 -154 m 1
 1008 -154 l 1
 1008 -202 l 1
 960 -202 l 1
 960 -154 l 1
EndSplineSet
EndChar

StartChar: u
Encoding: 117 117 20
Width: 1092
VWidth: 1056
Flags: HW
LayerCount: 2
Fore
SplineSet
0 806 m 1
 48 806 l 1
 96 806 l 1
 144 806 l 1
 192 806 l 1
 240 806 l 1
 288 806 l 1
 336 806 l 1
 336 758 l 1
 336 710 l 1
 336 662 l 1
 336 614 l 1
 336 566 l 1
 336 518 l 1
 336 470 l 1
 331.7890625 470 l 1
 331.7890625 649.140625 l 1
 288 649.140625 l 1
 288 662 l 1
 288 710 l 1
 288 758 l 1
 240 758 l 1
 192 758 l 1
 144 758 l 1
 96 758 l 1
 48 758 l 1
 48 710 l 1
 48 662 l 1
 48 614 l 1
 48 566 l 1
 48 518 l 1
 96 518 l 1
 144 518 l 1
 192 518 l 1
 220.607421875 518 l 1
 220.607421875 470 l 1
 192 470 l 1
 144 470 l 1
 96 470 l 1
 48 470 l 1
 0 470 l 1
 0 518 l 1
 0 566 l 1
 0 614 l 1
 0 662 l 1
 0 710 l 1
 0 758 l 1
 0 806 l 1
384 806 m 1
 432 806 l 1
 480 806 l 1
 528 806 l 1
 528 758 l 1
 576 758 l 1
 624 758 l 1
 624 710 l 1
 576 710 l 1
 576 662 l 1
 624 662 l 1
 624 614 l 1
 576 614 l 1
 576 566 l 1
 624 566 l 1
 624 518 l 1
 624 470 l 1
 624 422 l 1
 624 374 l 1
 672 374 l 1
 672 422 l 1
 676.2109375 422 l 1
 676.2109375 326 l 1
 672 326 l 1
 624 326 l 1
 576 326 l 1
 576 278 l 1
 576 230 l 1
 528 230 l 1
 528 182 l 1
 480 182 l 1
 480 134 l 1
 432 134 l 1
 432 86 l 1
 480 86 l 1
 480 51.5546875 l 1
 439.837890625 51.8388671875 407.836914062 62.5224609375 384 83.609375 c 1
 384 86 l 1
 384 134 l 1
 384 182 l 1
 432 182 l 1
 432 230 l 1
 480 230 l 1
 480 278 l 1
 480 326 l 1
 528 326 l 1
 528 374 l 1
 528 422 l 1
 480 422 l 1
 480 470 l 1
 480 518 l 1
 528 518 l 1
 528 470 l 1
 576 470 l 1
 576 518 l 1
 528 518 l 1
 528 566 l 1
 528 614 l 1
 528 662 l 1
 528 710 l 1
 480 710 l 1
 480 758 l 1
 432 758 l 1
 432 710 l 1
 384 710 l 1
 384 758 l 1
 384 806 l 1
576 230 m 1
 624 230 l 1
 624 182 l 1
 576 182 l 1
 576 230 l 1
576 182 m 1
 576 134 l 1
 624 134 l 1
 624 109.345703125 l 2
 623.87890625 109.212890625 623.76171875 109.076171875 623.640625 108.943359375 c 0
 615.8359375 100.321289062 607.380859375 92.6796875 598.287109375 86 c 1
 576 86 l 1
 528 86 l 1
 480 86 l 1
 480 134 l 1
 528 134 l 1
 528 182 l 1
 576 182 l 1
384 182 m 1
 336.435546875 182 l 1
 333.981445312 196.758789062 332.500976562 212.759765625 331.994140625 230 c 1
 336 230 l 1
 336 278 l 1
 331.7890625 278 l 1
 331.7890625 326 l 1
 336 326 l 1
 384 326 l 1
 432 326 l 1
 432 278 l 1
 384 278 l 1
 384 230 l 1
 384 182 l 1
432 326 m 1
 432 374 l 1
 432 422 l 1
 480 422 l 1
 480 374 l 1
 480 326 l 1
 432 326 l 1
432 422 m 1
 384 422 l 1
 384 470 l 1
 384 518 l 1
 432 518 l 1
 432 470 l 1
 432 422 l 1
384 422 m 1
 384 374 l 1
 336 374 l 1
 331.7890625 374 l 1
 331.7890625 422 l 1
 336 422 l 1
 384 422 l 1
480 710 m 1
 480 662 l 1
 480 614 l 1
 432 614 l 1
 384 614 l 1
 384 662 l 1
 432 662 l 1
 432 710 l 1
 480 710 l 1
672 806 m 1
 720 806 l 1
 768 806 l 1
 816 806 l 1
 864 806 l 1
 912 806 l 1
 960 806 l 1
 1008 806 l 1
 1008 758 l 1
 1008 710 l 1
 1008 662 l 1
 1008 614 l 1
 1008 566 l 1
 1008 518 l 1
 1008 470 l 1
 960 470 l 1
 912 470 l 1
 864 470 l 1
 816 470 l 1
 787.392578125 470 l 1
 787.392578125 518 l 1
 816 518 l 1
 864 518 l 1
 912 518 l 1
 960 518 l 1
 960 566 l 1
 960 614 l 1
 960 662 l 1
 960 710 l 1
 960 758 l 1
 912 758 l 1
 864 758 l 1
 816 758 l 1
 768 758 l 1
 720 758 l 1
 720 710 l 1
 720 662 l 1
 720 649.140625 l 1
 676.2109375 649.140625 l 1
 676.2109375 470 l 1
 672 470 l 1
 672 518 l 1
 672 566 l 1
 672 614 l 1
 672 662 l 1
 672 710 l 1
 672 758 l 1
 672 806 l 1
96 710 m 1
 144 710 l 1
 192 710 l 1
 240 710 l 1
 240 662 l 1
 240 649.140625 l 1
 220.607421875 649.140625 l 1
 220.607421875 566 l 1
 192 566 l 1
 144 566 l 1
 96 566 l 1
 96 614 l 1
 96 662 l 1
 96 710 l 1
768 710 m 1
 816 710 l 1
 864 710 l 1
 912 710 l 1
 912 662 l 1
 912 614 l 1
 912 566 l 1
 864 566 l 1
 816 566 l 1
 787.392578125 566 l 1
 787.392578125 649.140625 l 1
 768 649.140625 l 1
 768 662 l 1
 768 710 l 1
0 422 m 1
 48 422 l 1
 48 374 l 1
 0 374 l 1
 0 422 l 1
48 374 m 1
 96 374 l 1
 96 326 l 1
 48 326 l 1
 48 374 l 1
96 374 m 1
 96 422 l 1
 144 422 l 1
 192 422 l 1
 192 374 l 1
 144 374 l 1
 96 374 l 1
96 326 m 1
 144 326 l 1
 144 278 l 1
 192 278 l 1
 192 230 l 1
 144 230 l 1
 144 182 l 1
 96 182 l 1
 96 230 l 1
 48 230 l 1
 48 278 l 1
 96 278 l 1
 96 326 l 1
192 230 m 1
 220.68359375 230 l 1
 220.935546875 213.251953125 221.860351562 197.250976562 223.4609375 182 c 1
 192 182 l 1
 192 230 l 1
816 422 m 1
 864 422 l 1
 864 374 l 1
 864 326 l 1
 912 326 l 1
 912 278 l 1
 912 230 l 1
 960 230 l 1
 960 182 l 1
 960 134 l 1
 912 134 l 1
 912 182 l 1
 864 182 l 1
 864 230 l 1
 816 230 l 1
 787.392578125 230 l 1
 787.392578125 278 l 1
 816 278 l 1
 816 326 l 1
 816 374 l 1
 816 422 l 1
864 182 m 1
 864 134 l 1
 864 86 l 1
 816 86 l 1
 816 134 l 1
 816 182 l 1
 864 182 l 1
864 86 m 1
 912 86 l 1
 960 86 l 1
 960 38 l 1
 912 38 l 1
 864 38 l 1
 864 86 l 1
960 38 m 1
 1008 38 l 1
 1008 -10 l 1
 960 -10 l 1
 960 38 l 1
960 -10 m 1
 960 -58 l 1
 912 -58 l 1
 864 -58 l 1
 816 -58 l 1
 768 -58 l 1
 768 -106 l 1
 768 -154 l 1
 720 -154 l 1
 720 -106 l 1
 672 -106 l 1
 672 -58 l 1
 672 -10 l 1
 624 -10 l 1
 591.255859375 -10 l 1
 611.32421875 2.572265625 629.942382812 18.5712890625 647.109375 38 c 1
 672 38 l 1
 676.2109375 38 l 1
 676.2109375 -27.6171875 l 1
 787.392578125 -27.6171875 l 1
 787.392578125 86 l 1
 816 86 l 1
 816 38 l 1
 816 -10 l 1
 864 -10 l 1
 912 -10 l 1
 960 -10 l 1
768 -154 m 1
 816 -154 l 1
 816 -202 l 1
 768 -202 l 1
 768 -154 l 1
672 -106 m 1
 672 -154 l 1
 672 -202 l 1
 624 -202 l 1
 624 -154 l 1
 624 -106 l 1
 672 -106 l 1
624 -106 m 1
 576 -106 l 1
 576 -58 l 1
 624 -58 l 1
 624 -106 l 1
576 -58 m 1
 528 -58 l 1
 528 -36.845703125 l 1
 545.008789062 -32.5068359375 561.006835938 -26.4609375 576 -18.716796875 c 1
 576 -58 l 1
528 -58 m 1
 528 -106 l 1
 528 -154 l 1
 480 -154 l 1
 432 -154 l 1
 432 -106 l 1
 384 -106 l 1
 384 -58 l 1
 384 -36.42578125 l 1
 406.444335938 -42.2314453125 431.134765625 -45.140625 458.078125 -45.140625 c 0
 465.532226562 -45.140625 472.837890625 -44.892578125 480 -44.3984375 c 1
 480 -58 l 1
 528 -58 l 1
432 -154 m 1
 432 -202 l 1
 384 -202 l 1
 384 -154 l 1
 432 -154 l 1
912 422 m 1
 960 422 l 1
 1008 422 l 1
 1008 374 l 1
 960 374 l 1
 912 374 l 1
 912 422 l 1
960 326 m 1
 1008 326 l 1
 1008 278 l 1
 960 278 l 1
 960 326 l 1
672 278 m 1
 676.2109375 278 l 1
 676.2109375 265.443359375 l 2
 676.2109375 253.146484375 675.602539062 241.333984375 674.388671875 230 c 1
 672 230 l 1
 672 278 l 1
0 134 m 1
 48 134 l 1
 96 134 l 1
 144 134 l 1
 192 134 l 1
 231.294921875 134 l 1
 235.21484375 116.803710938 240.20703125 100.798828125 246.287109375 86 c 1
 240 86 l 1
 192 86 l 1
 144 86 l 1
 96 86 l 1
 48 86 l 1
 48 38 l 1
 48 -10 l 1
 48 -58 l 1
 48 -106 l 1
 48 -154 l 1
 96 -154 l 1
 144 -154 l 1
 192 -154 l 1
 240 -154 l 1
 288 -154 l 1
 288 -106 l 1
 288 -58 l 1
 288 -10 l 1
 288 19.470703125 l 1
 301.965820312 4.4375 317.967773438 -7.9677734375 336 -17.75390625 c 1
 336 -58 l 1
 336 -106 l 1
 336 -154 l 1
 336 -202 l 1
 288 -202 l 1
 240 -202 l 1
 192 -202 l 1
 144 -202 l 1
 96 -202 l 1
 48 -202 l 1
 0 -202 l 1
 0 -154 l 1
 0 -106 l 1
 0 -58 l 1
 0 -10 l 1
 0 38 l 1
 0 86 l 1
 0 134 l 1
96 38 m 1
 144 38 l 1
 192 38 l 1
 240 38 l 1
 240 -10 l 1
 240 -58 l 1
 240 -106 l 1
 192 -106 l 1
 144 -106 l 1
 96 -106 l 1
 96 -58 l 1
 96 -10 l 1
 96 38 l 1
864 -106 m 1
 912 -106 l 1
 912 -154 l 1
 864 -154 l 1
 864 -106 l 1
960 -106 m 1
 1008 -106 l 1
 1008 -154 l 1
 960 -154 l 1
 960 -106 l 1
EndSplineSet
EndChar

StartChar: v
Encoding: 118 118 21
Width: 1092
VWidth: 1056
Flags: HW
LayerCount: 2
Fore
SplineSet
0 806 m 1
 48 806 l 1
 96 806 l 1
 144 806 l 1
 192 806 l 1
 240 806 l 1
 288 806 l 1
 336 806 l 1
 336 758 l 1
 336 710 l 1
 336 662 l 1
 336 614 l 1
 336 566 l 1
 336 523.587890625 l 1
 292.513671875 640.37890625 l 1
 288 640.37890625 l 1
 288 662 l 1
 288 710 l 1
 288 758 l 1
 240 758 l 1
 192 758 l 1
 144 758 l 1
 96 758 l 1
 48 758 l 1
 48 710 l 1
 48 662 l 1
 48 614 l 1
 48 566 l 1
 48 518 l 1
 96 518 l 1
 144 518 l 1
 192 518 l 1
 220.578125 518 l 1
 238.578125 470 l 1
 192 470 l 1
 144 470 l 1
 96 470 l 1
 48 470 l 1
 0 470 l 1
 0 518 l 1
 0 566 l 1
 0 614 l 1
 0 662 l 1
 0 710 l 1
 0 758 l 1
 0 806 l 1
384 806 m 1
 432 806 l 1
 480 806 l 1
 528 806 l 1
 528 758 l 1
 480 758 l 1
 432 758 l 1
 432 710 l 1
 384 710 l 1
 384 758 l 1
 384 806 l 1
432 710 m 1
 480 710 l 1
 528 710 l 1
 576 710 l 1
 624 710 l 1
 624 662 l 1
 624 614 l 1
 576 614 l 1
 576 662 l 1
 528 662 l 1
 528 614 l 1
 480 614 l 1
 480 662 l 1
 432 662 l 1
 432 710 l 1
576 614 m 1
 576 566 l 1
 624 566 l 1
 624 518 l 1
 624 470 l 1
 624 422 l 1
 624 394.671875 l 1
 598.4296875 326 l 1
 576 326 l 1
 576 278 l 1
 576 265.7578125 l 1
 562.685546875 230 l 1
 528 230 l 1
 528 182 l 1
 480 182 l 1
 463.1875 182 l 1
 445.314453125 230 l 1
 480 230 l 1
 480 278 l 1
 432 278 l 1
 427.44140625 278 l 1
 391.697265625 374 l 1
 432 374 l 1
 432 422 l 1
 480 422 l 1
 480 374 l 1
 528 374 l 1
 528 422 l 1
 528 470 l 1
 576 470 l 1
 576 518 l 1
 528 518 l 1
 528 566 l 1
 528 614 l 1
 576 614 l 1
528 182 m 1
 544.8125 182 l 1
 528 136.84375 l 1
 528 182 l 1
432 422 m 1
 384 422 l 1
 384 470 l 1
 384 518 l 1
 432 518 l 1
 432 470 l 1
 432 422 l 1
384 422 m 1
 384 394.671875 l 1
 373.82421875 422 l 1
 384 422 l 1
528 470 m 1
 480 470 l 1
 480 518 l 1
 528 518 l 1
 528 470 l 1
432 662 m 1
 432 614 l 1
 384 614 l 1
 384 662 l 1
 432 662 l 1
576 806 m 1
 624 806 l 1
 624 758 l 1
 576 758 l 1
 576 806 l 1
672 806 m 1
 720 806 l 1
 768 806 l 1
 816 806 l 1
 864 806 l 1
 912 806 l 1
 960 806 l 1
 1008 806 l 1
 1008 758 l 1
 1008 710 l 1
 1008 662 l 1
 1008 614 l 1
 1008 566 l 1
 1008 518 l 1
 1008 470 l 1
 960 470 l 1
 912 470 l 1
 864 470 l 1
 816 470 l 1
 769.421875 470 l 1
 787.421875 518 l 1
 816 518 l 1
 864 518 l 1
 912 518 l 1
 960 518 l 1
 960 566 l 1
 960 614 l 1
 960 662 l 1
 960 710 l 1
 960 758 l 1
 912 758 l 1
 864 758 l 1
 816 758 l 1
 768 758 l 1
 720 758 l 1
 720 710 l 1
 720 662 l 1
 720 640.37890625 l 1
 715.486328125 640.37890625 l 1
 672 523.587890625 l 1
 672 566 l 1
 672 614 l 1
 672 662 l 1
 672 710 l 1
 672 758 l 1
 672 806 l 1
96 710 m 1
 144 710 l 1
 192 710 l 1
 240 710 l 1
 240 662 l 1
 240 640.37890625 l 1
 174.685546875 640.37890625 l 1
 202.578125 566 l 1
 192 566 l 1
 144 566 l 1
 96 566 l 1
 96 614 l 1
 96 662 l 1
 96 710 l 1
768 710 m 1
 816 710 l 1
 864 710 l 1
 912 710 l 1
 912 662 l 1
 912 614 l 1
 912 566 l 1
 864 566 l 1
 816 566 l 1
 805.421875 566 l 1
 833.314453125 640.37890625 l 1
 768 640.37890625 l 1
 768 662 l 1
 768 710 l 1
0 422 m 1
 48 422 l 1
 48 374 l 1
 0 374 l 1
 0 422 l 1
48 374 m 1
 96 374 l 1
 96 422 l 1
 144 422 l 1
 192 422 l 1
 192 374 l 1
 144 374 l 1
 144 326 l 1
 96 326 l 1
 48 326 l 1
 48 374 l 1
192 374 m 1
 240 374 l 1
 240 422 l 1
 256.578125 422 l 1
 288 338.205078125 l 1
 288 326 l 1
 240 326 l 1
 192 326 l 1
 192 374 l 1
288 326 m 1
 292.578125 326 l 1
 310.576171875 278 l 1
 288 278 l 1
 288 326 l 1
288 278 m 1
 288 230 l 1
 328.576171875 230 l 1
 346.576171875 182 l 1
 336 182 l 1
 288 182 l 1
 240 182 l 1
 240 230 l 1
 240 278 l 1
 288 278 l 1
816 422 m 1
 864 422 l 1
 864 374 l 1
 864 326 l 1
 912 326 l 1
 912 278 l 1
 960 278 l 1
 960 326 l 1
 1008 326 l 1
 1008 278 l 1
 1008 230 l 1
 960 230 l 1
 960 182 l 1
 960 134 l 1
 912 134 l 1
 912 182 l 1
 864 182 l 1
 864 230 l 1
 816 230 l 1
 768 230 l 1
 768 182 l 1
 720 182 l 1
 720 230 l 1
 679.423828125 230 l 1
 697.423828125 278 l 1
 720 278 l 1
 768 278 l 1
 816 278 l 1
 816 326 l 1
 816 374 l 1
 816 422 l 1
864 182 m 1
 864 134 l 1
 864 86 l 1
 816 86 l 1
 816 134 l 1
 816 182 l 1
 864 182 l 1
864 86 m 1
 912 86 l 1
 960 86 l 1
 960 38 l 1
 912 38 l 1
 864 38 l 1
 864 86 l 1
960 38 m 1
 1008 38 l 1
 1008 -10 l 1
 960 -10 l 1
 960 38 l 1
960 -10 m 1
 960 -58 l 1
 912 -58 l 1
 864 -58 l 1
 816 -58 l 1
 768 -58 l 1
 768 -106 l 1
 768 -154 l 1
 720 -154 l 1
 720 -106 l 1
 672 -106 l 1
 672 -58 l 1
 672 -10 l 1
 624 -10 l 1
 589.423828125 -10 l 1
 607.423828125 38 l 1
 624 38 l 1
 672 38 l 1
 720 38 l 1
 720 86 l 1
 720 134 l 1
 768 134 l 1
 768 86 l 1
 816 86 l 1
 816 38 l 1
 816 -10 l 1
 864 -10 l 1
 912 -10 l 1
 960 -10 l 1
768 -154 m 1
 816 -154 l 1
 816 -202 l 1
 768 -202 l 1
 768 -154 l 1
672 -106 m 1
 672 -154 l 1
 672 -202 l 1
 624 -202 l 1
 624 -154 l 1
 624 -106 l 1
 672 -106 l 1
624 -106 m 1
 576 -106 l 1
 576 -58 l 1
 624 -58 l 1
 624 -106 l 1
576 -58 m 1
 528 -58 l 1
 528 -36.37890625 l 1
 576 -36.37890625 l 1
 576 -58 l 1
528 -58 m 1
 528 -106 l 1
 528 -154 l 1
 528 -202 l 1
 480 -202 l 1
 480 -154 l 1
 480 -106 l 1
 432 -106 l 1
 384 -106 l 1
 384 -58 l 1
 384 -10 l 1
 418.576171875 -10 l 1
 428.46875 -36.37890625 l 1
 432 -36.37890625 l 1
 432 -58 l 1
 480 -58 l 1
 528 -58 l 1
720 134 m 1
 672 134 l 1
 672 182 l 1
 720 182 l 1
 720 134 l 1
912 422 m 1
 960 422 l 1
 1008 422 l 1
 1008 374 l 1
 960 374 l 1
 912 374 l 1
 912 422 l 1
720 338.205078125 m 1
 720 326 l 1
 715.421875 326 l 1
 720 338.205078125 l 1
48 278 m 1
 96 278 l 1
 144 278 l 1
 192 278 l 1
 192 230 l 1
 144 230 l 1
 144 182 l 1
 96 182 l 1
 48 182 l 1
 48 230 l 1
 48 278 l 1
0 134 m 1
 48 134 l 1
 96 134 l 1
 144 134 l 1
 192 134 l 1
 240 134 l 1
 288 134 l 1
 336 134 l 1
 336 86 l 1
 336 38 l 1
 336 -10 l 1
 336 -58 l 1
 336 -106 l 1
 336 -154 l 1
 336 -202 l 1
 288 -202 l 1
 240 -202 l 1
 192 -202 l 1
 144 -202 l 1
 96 -202 l 1
 48 -202 l 1
 0 -202 l 1
 0 -154 l 1
 0 -106 l 1
 0 -58 l 1
 0 -10 l 1
 0 38 l 1
 0 86 l 1
 0 134 l 1
481.05859375 134 m 1
 526.94140625 134 l 1
 509.068359375 86 l 1
 498.931640625 86 l 1
 481.05859375 134 l 1
48 86 m 1
 48 38 l 1
 48 -10 l 1
 48 -58 l 1
 48 -106 l 1
 48 -154 l 1
 96 -154 l 1
 144 -154 l 1
 192 -154 l 1
 240 -154 l 1
 288 -154 l 1
 288 -106 l 1
 288 -58 l 1
 288 -10 l 1
 288 38 l 1
 288 86 l 1
 240 86 l 1
 192 86 l 1
 144 86 l 1
 96 86 l 1
 48 86 l 1
384 82.205078125 m 1
 400.576171875 38 l 1
 384 38 l 1
 384 82.205078125 l 1
96 38 m 1
 144 38 l 1
 192 38 l 1
 240 38 l 1
 240 -10 l 1
 240 -58 l 1
 240 -106 l 1
 192 -106 l 1
 144 -106 l 1
 96 -106 l 1
 96 -58 l 1
 96 -10 l 1
 96 38 l 1
864 -106 m 1
 912 -106 l 1
 912 -154 l 1
 864 -154 l 1
 864 -106 l 1
960 -106 m 1
 1008 -106 l 1
 1008 -154 l 1
 960 -154 l 1
 960 -106 l 1
384 -154 m 1
 432 -154 l 1
 432 -202 l 1
 384 -202 l 1
 384 -154 l 1
EndSplineSet
EndChar

StartChar: w
Encoding: 119 119 22
Width: 1092
VWidth: 1056
Flags: HW
LayerCount: 2
Fore
SplineSet
0 806 m 1
 48 806 l 1
 96 806 l 1
 144 806 l 1
 192 806 l 1
 240 806 l 1
 288 806 l 1
 336 806 l 1
 336 758 l 1
 336 710 l 1
 336 662 l 1
 336 614 l 1
 336 566 l 1
 336 518 l 1
 336 470 l 1
 288 470 l 1
 240 470 l 1
 205.92578125 470 l 1
 193.294921875 518 l 1
 240 518 l 1
 288 518 l 1
 288 566 l 1
 288 614 l 1
 288 662 l 1
 288 710 l 1
 288 758 l 1
 240 758 l 1
 192 758 l 1
 144 758 l 1
 96 758 l 1
 48 758 l 1
 48 710 l 1
 48 662 l 1
 48 614 l 1
 48 566 l 1
 48 518 l 1
 81.923828125 518 l 1
 94.48046875 470 l 1
 48 470 l 1
 0 470 l 1
 0 518 l 1
 0 566 l 1
 0 614 l 1
 0 662 l 1
 0 710 l 1
 0 758 l 1
 0 806 l 1
384 806 m 1
 432 806 l 1
 432 758 l 1
 384 758 l 1
 384 806 l 1
432 758 m 1
 480 758 l 1
 480 710 l 1
 432 710 l 1
 432 758 l 1
480 758 m 1
 480 806 l 1
 528 806 l 1
 576 806 l 1
 624 806 l 1
 624 758 l 1
 624 710 l 1
 624 662 l 1
 624 614 l 1
 624 566 l 1
 589.134765625 566 l 1
 576 615.908203125 l 1
 576 662 l 1
 528 662 l 1
 528 710 l 1
 528 758 l 1
 480 758 l 1
672 806 m 1
 720 806 l 1
 768 806 l 1
 816 806 l 1
 864 806 l 1
 912 806 l 1
 960 806 l 1
 1008 806 l 1
 1008 758 l 1
 1008 710 l 1
 1008 662 l 1
 1008 614 l 1
 1008 566 l 1
 1008 518 l 1
 1008 470 l 1
 960 470 l 1
 913.51953125 470 l 1
 926.076171875 518 l 1
 960 518 l 1
 960 566 l 1
 960 614 l 1
 960 662 l 1
 960 710 l 1
 960 758 l 1
 912 758 l 1
 864 758 l 1
 816 758 l 1
 768 758 l 1
 720 758 l 1
 720 710 l 1
 720 662 l 1
 720 614 l 1
 720 566 l 1
 720 518 l 1
 768 518 l 1
 814.845703125 518 l 1
 802.267578125 470 l 1
 768 470 l 1
 720 470 l 1
 672 470 l 1
 672 518 l 1
 672 566 l 1
 672 614 l 1
 672 662 l 1
 672 710 l 1
 672 758 l 1
 672 806 l 1
96 710 m 1
 144 710 l 1
 192 710 l 1
 240 710 l 1
 240 662 l 1
 240 614 l 1
 240 566 l 1
 192 566 l 1
 180.6640625 566 l 1
 161.08984375 640.37890625 l 1
 96 640.37890625 l 1
 96 662 l 1
 96 710 l 1
768 710 m 1
 816 710 l 1
 864 710 l 1
 912 710 l 1
 912 662 l 1
 912 640.37890625 l 1
 846.91015625 640.37890625 l 1
 827.421875 566 l 1
 816 566 l 1
 768 566 l 1
 768 614 l 1
 768 662 l 1
 768 710 l 1
384 662 m 1
 432 662 l 1
 480 662 l 1
 480 640.37890625 l 1
 438.439453125 640.37890625 l 1
 384 432.60546875 l 1
 384 470 l 1
 384 518 l 1
 384 566 l 1
 384 614 l 1
 384 662 l 1
504.21875 518 m 1
 504.38671875 518 l 1
 567.392578125 278 l 1
 528 278 l 1
 528 230 l 1
 528 182 l 1
 480 182 l 1
 480 230 l 1
 432 230 l 1
 428.296875 230 l 1
 466.2578125 374 l 1
 480 374 l 1
 528 374 l 1
 528 422 l 1
 480 422 l 1
 478.91015625 422 l 1
 504.21875 518 l 1
601.765625 518 m 1
 624 518 l 1
 624 470 l 1
 624 433.5078125 l 1
 601.765625 518 l 1
0 422 m 1
 48 422 l 1
 48 374 l 1
 0 374 l 1
 0 422 l 1
48 374 m 1
 96 374 l 1
 96 326 l 1
 48 326 l 1
 48 374 l 1
218.55859375 422 m 1
 240 422 l 1
 240 374 l 1
 288 374 l 1
 288 326 l 1
 336 326 l 1
 336 374 l 1
 288 374 l 1
 288 422 l 1
 336 422 l 1
 381.220703125 422 l 1
 336 249.41015625 l 1
 336 278 l 1
 288 278 l 1
 256.453125 278 l 1
 218.55859375 422 l 1
627.029296875 422 m 1
 672 422 l 1
 720 422 l 1
 768 422 l 1
 789.69140625 422 l 1
 777.115234375 374 l 1
 768 374 l 1
 768 339.2109375 l 1
 751.9609375 278 l 1
 720 278 l 1
 720 230 l 1
 720 182 l 1
 720 156.015625 l 1
 714.232421875 134 l 1
 702.818359375 134 l 1
 664.923828125 278 l 1
 672 278 l 1
 672 326 l 1
 720 326 l 1
 720 374 l 1
 672 374 l 1
 639.66015625 374 l 1
 627.029296875 422 l 1
960 422 m 1
 1008 422 l 1
 1008 374 l 1
 1008 326 l 1
 960 326 l 1
 912 326 l 1
 912 374 l 1
 960 374 l 1
 960 422 l 1
912 326 m 1
 912 278 l 1
 960 278 l 1
 1008 278 l 1
 1008 230 l 1
 1008 182 l 1
 960 182 l 1
 960 230 l 1
 912 230 l 1
 912 182 l 1
 912 134 l 1
 864 134 l 1
 864 182 l 1
 864 230 l 1
 864 278 l 1
 863.291015625 278 l 1
 875.84765625 326 l 1
 912 326 l 1
912 134 m 1
 960 134 l 1
 960 86 l 1
 960 38 l 1
 1008 38 l 1
 1008 -10 l 1
 1008 -58 l 1
 960 -58 l 1
 912 -58 l 1
 912 -10 l 1
 864 -10 l 1
 864 -58 l 1
 912 -58 l 1
 912 -106 l 1
 912 -154 l 1
 912 -202 l 1
 864 -202 l 1
 864 -154 l 1
 864 -106 l 1
 816 -106 l 1
 816 -154 l 1
 768 -154 l 1
 768 -106 l 1
 720 -106 l 1
 720 -154 l 1
 720 -202 l 1
 672 -202 l 1
 624 -202 l 1
 576 -202 l 1
 576 -154 l 1
 624 -154 l 1
 624 -106 l 1
 672 -106 l 1
 672 -58 l 1
 720 -58 l 1
 720 -36.37890625 l 1
 768 -36.37890625 l 1
 768 -58 l 1
 816 -58 l 1
 816 -10 l 1
 787.947265625 -10 l 1
 800.505859375 38 l 1
 816 38 l 1
 816 86 l 1
 864 86 l 1
 864 38 l 1
 912 38 l 1
 912 86 l 1
 912 134 l 1
144 280.7109375 m 1
 144.708984375 278 l 1
 144 278 l 1
 144 280.7109375 l 1
48 278 m 1
 96 278 l 1
 96 230 l 1
 144 230 l 1
 157.265625 230 l 1
 169.82421875 182 l 1
 144 182 l 1
 96 182 l 1
 48 182 l 1
 48 230 l 1
 48 278 l 1
269.083984375 230 m 1
 288 230 l 1
 330.9140625 230 l 1
 318.337890625 182 l 1
 288 182 l 1
 281.71484375 182 l 1
 269.083984375 230 l 1
576 230 m 1
 579.994140625 230 l 1
 624 62.376953125 l 1
 624 38 l 1
 576 38 l 1
 576 -10 l 1
 624 -10 l 1
 624 -58 l 1
 576 -58 l 1
 576 -106 l 1
 528 -106 l 1
 528 -58 l 1
 528 -10 l 1
 480 -10 l 1
 480 38 l 1
 480 86 l 1
 528 86 l 1
 576 86 l 1
 576 134 l 1
 576 182 l 1
 576 230 l 1
528 -106 m 1
 528 -154 l 1
 480 -154 l 1
 480 -202 l 1
 432 -202 l 1
 384 -202 l 1
 384 -154 l 1
 432 -154 l 1
 432 -106 l 1
 432 -58 l 1
 432 -10 l 1
 480 -10 l 1
 480 -58 l 1
 480 -106 l 1
 528 -106 l 1
432 -10 m 1
 384 -10 l 1
 384 38 l 1
 432 38 l 1
 432 -10 l 1
480 86 m 1
 432 86 l 1
 390.3359375 86 l 1
 415.642578125 182 l 1
 432 182 l 1
 432 134 l 1
 480 134 l 1
 480 86 l 1
0 134 m 1
 48 134 l 1
 96 134 l 1
 144 134 l 1
 182.380859375 134 l 1
 194.9375 86 l 1
 192 86 l 1
 144 86 l 1
 96 86 l 1
 48 86 l 1
 48 38 l 1
 48 -10 l 1
 48 -58 l 1
 48 -106 l 1
 48 -154 l 1
 96 -154 l 1
 144 -154 l 1
 192 -154 l 1
 240 -154 l 1
 288 -154 l 1
 288 -106 l 1
 288 -58 l 1
 288 -36.37890625 l 1
 336 -36.37890625 l 1
 336 -58 l 1
 336 -106 l 1
 336 -154 l 1
 336 -202 l 1
 288 -202 l 1
 240 -202 l 1
 192 -202 l 1
 144 -202 l 1
 96 -202 l 1
 48 -202 l 1
 0 -202 l 1
 0 -154 l 1
 0 -106 l 1
 0 -58 l 1
 0 -10 l 1
 0 38 l 1
 0 86 l 1
 0 134 l 1
294.34765625 134 m 1
 305.76171875 134 l 1
 300.06640625 112.265625 l 1
 294.34765625 134 l 1
96 38 m 1
 144 38 l 1
 192 38 l 1
 207.494140625 38 l 1
 226.953125 -36.37890625 l 1
 240 -36.37890625 l 1
 240 -58 l 1
 240 -106 l 1
 192 -106 l 1
 144 -106 l 1
 96 -106 l 1
 96 -58 l 1
 96 -10 l 1
 96 38 l 1
960 -154 m 1
 1008 -154 l 1
 1008 -202 l 1
 960 -202 l 1
 960 -154 l 1
EndSplineSet
EndChar

StartChar: x
Encoding: 120 120 23
Width: 1092
VWidth: 1056
Flags: HW
LayerCount: 2
Fore
SplineSet
0 806 m 1
 48 806 l 1
 96 806 l 1
 144 806 l 1
 192 806 l 1
 240 806 l 1
 288 806 l 1
 336 806 l 1
 336 758 l 1
 336 710 l 1
 336 662 l 1
 336 631.4765625 l 1
 329.373046875 640.37890625 l 1
 288 640.37890625 l 1
 288 662 l 1
 288 710 l 1
 288 758 l 1
 240 758 l 1
 192 758 l 1
 144 758 l 1
 96 758 l 1
 48 758 l 1
 48 710 l 1
 48 662 l 1
 48 614 l 1
 48 566 l 1
 48 518 l 1
 96 518 l 1
 144 518 l 1
 192 518 l 1
 240 518 l 1
 288 518 l 1
 288 519.9609375 l 1
 325.23828125 470 l 1
 288 470 l 1
 240 470 l 1
 192 470 l 1
 144 470 l 1
 96 470 l 1
 48 470 l 1
 0 470 l 1
 0 518 l 1
 0 566 l 1
 0 614 l 1
 0 662 l 1
 0 710 l 1
 0 758 l 1
 0 806 l 1
480 806 m 1
 528 806 l 1
 528 758 l 1
 528 710 l 1
 480 710 l 1
 480 758 l 1
 480 806 l 1
528 710 m 1
 576 710 l 1
 576 662 l 1
 576 614 l 1
 528 614 l 1
 528 662 l 1
 528 710 l 1
576 710 m 1
 576 758 l 1
 624 758 l 1
 624 710 l 1
 576 710 l 1
576 614 m 1
 624 614 l 1
 624 566 l 1
 624 554.001953125 l 1
 576 489.517578125 l 1
 576 518 l 1
 528 518 l 1
 528 470 l 1
 480 470 l 1
 480 518 l 1
 480 566 l 1
 432 566 l 1
 432 614 l 1
 480 614 l 1
 528 614 l 1
 528 566 l 1
 576 566 l 1
 576 614 l 1
528 470 m 1
 561.47265625 470 l 1
 528 425.03125 l 1
 528 470 l 1
480 470 m 1
 480 438.01953125 l 1
 456.1953125 470 l 1
 480 470 l 1
432 566 m 1
 432 518 l 1
 432 502.505859375 l 1
 384.73828125 566 l 1
 432 566 l 1
672 806 m 1
 720 806 l 1
 768 806 l 1
 816 806 l 1
 864 806 l 1
 912 806 l 1
 960 806 l 1
 1008 806 l 1
 1008 758 l 1
 1008 710 l 1
 1008 662 l 1
 1008 614 l 1
 1008 566 l 1
 1008 518 l 1
 1008 470 l 1
 960 470 l 1
 912 470 l 1
 864 470 l 1
 816 470 l 1
 768 470 l 1
 720 470 l 1
 692.806640625 470 l 1
 728.474609375 518 l 1
 768 518 l 1
 816 518 l 1
 864 518 l 1
 912 518 l 1
 960 518 l 1
 960 566 l 1
 960 614 l 1
 960 662 l 1
 960 710 l 1
 960 758 l 1
 912 758 l 1
 864 758 l 1
 816 758 l 1
 768 758 l 1
 720 758 l 1
 720 710 l 1
 720 662 l 1
 720 640.37890625 l 1
 688.294921875 640.37890625 l 1
 672 618.48828125 l 1
 672 662 l 1
 672 710 l 1
 672 758 l 1
 672 806 l 1
96 710 m 1
 144 710 l 1
 192 710 l 1
 240 710 l 1
 240 662 l 1
 240 640.37890625 l 1
 198.25 640.37890625 l 1
 240 584.36328125 l 1
 240 566 l 1
 192 566 l 1
 144 566 l 1
 96 566 l 1
 96 614 l 1
 96 662 l 1
 96 710 l 1
768 710 m 1
 816 710 l 1
 864 710 l 1
 912 710 l 1
 912 662 l 1
 912 614 l 1
 912 566 l 1
 864 566 l 1
 816 566 l 1
 768 566 l 1
 768 571.1875 l 1
 819.41796875 640.37890625 l 1
 768 640.37890625 l 1
 768 662 l 1
 768 710 l 1
0 422 m 1
 48 422 l 1
 48 374 l 1
 0 374 l 1
 0 422 l 1
48 374 m 1
 96 374 l 1
 144 374 l 1
 144 326 l 1
 96 326 l 1
 96 278 l 1
 144 278 l 1
 144 230 l 1
 192 230 l 1
 192 182 l 1
 144 182 l 1
 96 182 l 1
 48 182 l 1
 48 230 l 1
 48 278 l 1
 48 326 l 1
 48 374 l 1
144 374 m 1
 144 422 l 1
 192 422 l 1
 192 374 l 1
 144 374 l 1
144 326 m 1
 192 326 l 1
 240 326 l 1
 240 374 l 1
 240 422 l 1
 288 422 l 1
 336 422 l 1
 336 374 l 1
 288 374 l 1
 288 326 l 1
 336 326 l 1
 336 278 l 1
 288 278 l 1
 288 230 l 1
 240 230 l 1
 192 230 l 1
 192 278 l 1
 144 278 l 1
 144 326 l 1
288 230 m 1
 336 230 l 1
 336 182 l 1
 288 182 l 1
 288 230 l 1
491.923828125 422 m 1
 525.744140625 422 l 1
 508.833984375 399.283203125 l 1
 491.923828125 422 l 1
657.13671875 422 m 1
 672 422 l 1
 672 374 l 1
 624 374 l 1
 624 377.41015625 l 1
 657.13671875 422 l 1
672 374 m 1
 720 374 l 1
 720 326 l 1
 672 326 l 1
 672 374 l 1
720 374 m 1
 720 422 l 1
 768 422 l 1
 768 374 l 1
 720 374 l 1
672 326 m 1
 672 278 l 1
 624 278 l 1
 599.193359375 278 l 1
 576 309.306640625 l 1
 576 312.818359375 l 1
 585.796875 326 l 1
 624 326 l 1
 672 326 l 1
384 391.158203125 m 1
 432.564453125 326 l 1
 432 326 l 1
 384 326 l 1
 384 374 l 1
 384 391.158203125 l 1
864 374 m 1
 912 374 l 1
 960 374 l 1
 960 326 l 1
 1008 326 l 1
 1008 278 l 1
 1008 230 l 1
 960 230 l 1
 912 230 l 1
 912 182 l 1
 864 182 l 1
 864 230 l 1
 816 230 l 1
 816 278 l 1
 864 278 l 1
 912 278 l 1
 912 326 l 1
 864 326 l 1
 864 374 l 1
912 182 m 1
 960 182 l 1
 1008 182 l 1
 1008 134 l 1
 960 134 l 1
 960 86 l 1
 912 86 l 1
 864 86 l 1
 864 134 l 1
 912 134 l 1
 912 182 l 1
864 86 m 1
 864 38 l 1
 912 38 l 1
 960 38 l 1
 1008 38 l 1
 1008 -10 l 1
 1008 -58 l 1
 1008 -106 l 1
 960 -106 l 1
 960 -58 l 1
 912 -58 l 1
 864 -58 l 1
 816 -58 l 1
 816 -36.37890625 l 1
 832.107421875 -36.37890625 l 1
 816 -14.63671875 l 1
 816 -10 l 1
 812.564453125 -10 l 1
 720 114.939453125 l 1
 720 134 l 1
 720 182 l 1
 768 182 l 1
 768 230 l 1
 816 230 l 1
 816 182 l 1
 864 182 l 1
 864 134 l 1
 816 134 l 1
 768 134 l 1
 768 86 l 1
 816 86 l 1
 864 86 l 1
816 -58 m 1
 816 -106 l 1
 816 -154 l 1
 864 -154 l 1
 864 -106 l 1
 912 -106 l 1
 912 -154 l 1
 960 -154 l 1
 960 -202 l 1
 912 -202 l 1
 864 -202 l 1
 816 -202 l 1
 768 -202 l 1
 768 -154 l 1
 768 -106 l 1
 768 -58 l 1
 816 -58 l 1
720 182 m 1
 672 182 l 1
 672 230 l 1
 720 230 l 1
 720 182 l 1
384 278 m 1
 409.263671875 278 l 1
 384 243.966796875 l 1
 384 278 l 1
504 229.490234375 m 1
 528 197.09765625 l 1
 528 182 l 1
 539.185546875 182 l 1
 574.75 134 l 1
 528 134 l 1
 480 134 l 1
 480 86 l 1
 528 86 l 1
 576 86 l 1
 610.3125 86 l 1
 645.876953125 38 l 1
 624 38 l 1
 576 38 l 1
 576 -10 l 1
 576 -58 l 1
 528 -58 l 1
 528 -10 l 1
 480 -10 l 1
 480 38 l 1
 432 38 l 1
 384 38 l 1
 384 67.52734375 l 1
 397.6875 86 l 1
 432 86 l 1
 432 132.3125 l 1
 468.814453125 182 l 1
 480 182 l 1
 480 197.09765625 l 1
 504 229.490234375 l 1
576 -58 m 1
 624 -58 l 1
 624 -106 l 1
 576 -106 l 1
 576 -58 l 1
624 -106 m 1
 672 -106 l 1
 720 -106 l 1
 720 -154 l 1
 672 -154 l 1
 624 -154 l 1
 624 -106 l 1
624 -154 m 1
 624 -202 l 1
 576 -202 l 1
 528 -202 l 1
 528 -154 l 1
 576 -154 l 1
 624 -154 l 1
528 -154 m 1
 480 -154 l 1
 432 -154 l 1
 432 -106 l 1
 480 -106 l 1
 528 -106 l 1
 528 -154 l 1
432 -154 m 1
 432 -202 l 1
 384 -202 l 1
 384 -154 l 1
 432 -154 l 1
480 -10 m 1
 480 -58 l 1
 432 -58 l 1
 384 -58 l 1
 384 -10 l 1
 432 -10 l 1
 480 -10 l 1
0 134 m 1
 48 134 l 1
 96 134 l 1
 144 134 l 1
 192 134 l 1
 240 134 l 1
 288 134 l 1
 302.369140625 134 l 1
 266.73828125 86 l 1
 240 86 l 1
 192 86 l 1
 144 86 l 1
 96 86 l 1
 48 86 l 1
 48 38 l 1
 48 -10 l 1
 48 -58 l 1
 48 -106 l 1
 48 -154 l 1
 96 -154 l 1
 144 -154 l 1
 192 -154 l 1
 240 -154 l 1
 288 -154 l 1
 288 -106 l 1
 288 -58 l 1
 288 -36.37890625 l 1
 307.015625 -36.37890625 l 1
 336 2.740234375 l 1
 336 -10 l 1
 336 -58 l 1
 336 -106 l 1
 336 -154 l 1
 336 -202 l 1
 288 -202 l 1
 240 -202 l 1
 192 -202 l 1
 144 -202 l 1
 96 -202 l 1
 48 -202 l 1
 0 -202 l 1
 0 -154 l 1
 0 -106 l 1
 0 -58 l 1
 0 -10 l 1
 0 38 l 1
 0 86 l 1
 0 134 l 1
96 38 m 1
 144 38 l 1
 192 38 l 1
 231.10546875 38 l 1
 175.892578125 -36.37890625 l 1
 240 -36.37890625 l 1
 240 -58 l 1
 240 -106 l 1
 192 -106 l 1
 144 -106 l 1
 96 -106 l 1
 96 -58 l 1
 96 -10 l 1
 96 38 l 1
672 2.740234375 m 1
 681.439453125 -10 l 1
 672 -10 l 1
 672 2.740234375 l 1
EndSplineSet
EndChar

StartChar: y
Encoding: 121 121 24
Width: 1092
VWidth: 1056
Flags: HW
LayerCount: 2
Fore
SplineSet
0 806 m 1
 48 806 l 1
 96 806 l 1
 144 806 l 1
 192 806 l 1
 240 806 l 1
 288 806 l 1
 336 806 l 1
 336 758 l 1
 336 710 l 1
 336 662 l 1
 336 660.244140625 l 1
 292.513671875 769.083984375 l 1
 174.685546875 769.083984375 l 1
 179.2421875 758 l 1
 144 758 l 1
 96 758 l 1
 48 758 l 1
 48 710 l 1
 48 662 l 1
 48 614 l 1
 48 566 l 1
 48 518 l 1
 96 518 l 1
 144 518 l 1
 192 518 l 1
 240 518 l 1
 277.8984375 518 l 1
 297.630859375 470 l 1
 288 470 l 1
 240 470 l 1
 192 470 l 1
 144 470 l 1
 96 470 l 1
 48 470 l 1
 0 470 l 1
 0 518 l 1
 0 566 l 1
 0 614 l 1
 0 662 l 1
 0 710 l 1
 0 758 l 1
 0 806 l 1
384 806 m 1
 432 806 l 1
 480 806 l 1
 480 758 l 1
 432 758 l 1
 432 710 l 1
 384 710 l 1
 384 758 l 1
 384 806 l 1
528 806 m 1
 576 806 l 1
 576 758 l 1
 528 758 l 1
 528 806 l 1
576 758 m 1
 624 758 l 1
 624 710 l 1
 624 662 l 1
 576 662 l 1
 576 614 l 1
 576 566 l 1
 624 566 l 1
 624 540.10546875 l 1
 528 299.830078125 l 1
 528 326 l 1
 528 374 l 1
 528 422 l 1
 480 422 l 1
 480 470 l 1
 480 518 l 1
 480 566 l 1
 528 566 l 1
 528 614 l 1
 528 662 l 1
 480 662 l 1
 480 710 l 1
 528 710 l 1
 576 710 l 1
 576 758 l 1
480 422 m 1
 480 374 l 1
 450.365234375 374 l 1
 432 419.96875 l 1
 432 422 l 1
 480 422 l 1
432 422 m 1
 431.1875 422 l 1
 392.83203125 518 l 1
 432 518 l 1
 432 470 l 1
 432 422 l 1
480 662 m 1
 480 614 l 1
 432 614 l 1
 384 614 l 1
 384 662 l 1
 432 662 l 1
 480 662 l 1
672 806 m 1
 720 806 l 1
 768 806 l 1
 816 806 l 1
 864 806 l 1
 912 806 l 1
 960 806 l 1
 1008 806 l 1
 1008 758 l 1
 1008 710 l 1
 1008 662 l 1
 1008 614 l 1
 1008 566 l 1
 1008 518 l 1
 1008 470 l 1
 960 470 l 1
 912 470 l 1
 864 470 l 1
 816 470 l 1
 768 470 l 1
 720 470 l 1
 713.095703125 470 l 1
 732.388671875 518 l 1
 768 518 l 1
 816 518 l 1
 864 518 l 1
 912 518 l 1
 960 518 l 1
 960 566 l 1
 960 614 l 1
 960 662 l 1
 960 710 l 1
 960 758 l 1
 912 758 l 1
 864 758 l 1
 828.859375 758 l 1
 833.314453125 769.083984375 l 1
 715.486328125 769.083984375 l 1
 672 660.244140625 l 1
 672 662 l 1
 672 710 l 1
 672 758 l 1
 672 806 l 1
96 710 m 1
 144 710 l 1
 192 710 l 1
 198.97265625 710 l 1
 240 610.1953125 l 1
 240 566 l 1
 192 566 l 1
 144 566 l 1
 96 566 l 1
 96 614 l 1
 96 662 l 1
 96 710 l 1
809.564453125 710 m 1
 816 710 l 1
 864 710 l 1
 912 710 l 1
 912 662 l 1
 912 614 l 1
 912 566 l 1
 864 566 l 1
 816 566 l 1
 768 566 l 1
 768 606.59375 l 1
 809.564453125 710 l 1
528 518 m 1
 528 470 l 1
 576 470 l 1
 576 518 l 1
 528 518 l 1
0 422 m 1
 48 422 l 1
 48 374 l 1
 0 374 l 1
 0 422 l 1
48 374 m 1
 96 374 l 1
 96 422 l 1
 144 422 l 1
 192 422 l 1
 192 374 l 1
 144 374 l 1
 144 326 l 1
 192 326 l 1
 240 326 l 1
 288 326 l 1
 336 326 l 1
 336 278 l 1
 288 278 l 1
 288 230 l 1
 240 230 l 1
 240 278 l 1
 192 278 l 1
 192 230 l 1
 144 230 l 1
 144 182 l 1
 96 182 l 1
 96 230 l 1
 96 278 l 1
 96 326 l 1
 48 326 l 1
 48 374 l 1
336 278 m 1
 376.556640625 278 l 1
 396.287109375 230 l 1
 384 230 l 1
 384 182 l 1
 336 182 l 1
 288 182 l 1
 288 230 l 1
 336 230 l 1
 336 278 l 1
384 182 m 1
 416.01953125 182 l 1
 432 143.123046875 l 1
 432 134 l 1
 432 86 l 1
 441.65234375 86 l 1
 428.46875 52.4453125 l 2
 426.564453125 47.4404296875 424.6796875 42.6650390625 422.806640625 38 c 1
 384 38 l 1
 384 86 l 1
 384 134 l 1
 384 182 l 1
240 422 m 1
 288 422 l 1
 317.361328125 422 l 1
 337.09375 374 l 1
 336 374 l 1
 288 374 l 1
 240 374 l 1
 240 422 l 1
693.80078125 422 m 1
 720 422 l 1
 720 374 l 1
 720 326 l 1
 672 326 l 1
 655.212890625 326 l 1
 693.80078125 422 l 1
816 422 m 1
 864 422 l 1
 864 374 l 1
 864 326 l 1
 912 326 l 1
 912 278 l 1
 912 230 l 1
 912 182 l 1
 864 182 l 1
 864 230 l 1
 816 230 l 1
 768 230 l 1
 768 182 l 1
 720 182 l 1
 720 230 l 1
 672 230 l 1
 672 278 l 1
 720 278 l 1
 768 278 l 1
 816 278 l 1
 816 326 l 1
 816 374 l 1
 816 422 l 1
912 182 m 1
 960 182 l 1
 960 134 l 1
 912 134 l 1
 912 182 l 1
960 182 m 1
 960 230 l 1
 1008 230 l 1
 1008 182 l 1
 960 182 l 1
864 182 m 1
 864 134 l 1
 864 86 l 1
 816 86 l 1
 816 134 l 1
 816 182 l 1
 864 182 l 1
864 86 m 1
 912 86 l 1
 960 86 l 1
 960 38 l 1
 912 38 l 1
 864 38 l 1
 864 86 l 1
960 38 m 1
 1008 38 l 1
 1008 -10 l 1
 960 -10 l 1
 960 38 l 1
960 -10 m 1
 960 -58 l 1
 912 -58 l 1
 864 -58 l 1
 816 -58 l 1
 768 -58 l 1
 768 -106 l 1
 768 -154 l 1
 720 -154 l 1
 720 -106 l 1
 672 -106 l 1
 672 -58 l 1
 672 -10 l 1
 624 -10 l 1
 576 -10 l 1
 576 38 l 1
 624 38 l 1
 672 38 l 1
 720 38 l 1
 720 86 l 1
 720 134 l 1
 768 134 l 1
 768 86 l 1
 816 86 l 1
 816 38 l 1
 816 -10 l 1
 864 -10 l 1
 912 -10 l 1
 960 -10 l 1
768 -154 m 1
 816 -154 l 1
 816 -202 l 1
 768 -202 l 1
 768 -154 l 1
672 -106 m 1
 672 -154 l 1
 672 -202 l 1
 624 -202 l 1
 624 -154 l 1
 624 -106 l 1
 672 -106 l 1
624 -106 m 1
 576 -106 l 1
 576 -58 l 1
 624 -58 l 1
 624 -106 l 1
576 -58 m 1
 528 -58 l 1
 528 -10 l 1
 576 -10 l 1
 576 -58 l 1
528 -58 m 1
 528 -106 l 1
 528 -154 l 1
 480 -154 l 1
 480 -106 l 1
 465.5234375 -106 l 1
 475.732421875 -93.201171875 486.032226562 -77.201171875 496.42578125 -58 c 1
 528 -58 l 1
480 -154 m 1
 480 -202 l 1
 432 -202 l 1
 384 -202 l 1
 384 -158.107421875 l 1
 388.663085938 -156.897460938 393.19140625 -155.524414062 397.595703125 -154 c 2
 432 -154 l 1
 480 -154 l 1
720 134 m 1
 672 134 l 1
 672 182 l 1
 720 182 l 1
 720 134 l 1
912 422 m 1
 960 422 l 1
 1008 422 l 1
 1008 374 l 1
 960 374 l 1
 912 374 l 1
 912 422 l 1
469.544921875 326 m 1
 480 326 l 1
 480 299.830078125 l 1
 469.544921875 326 l 1
960 326 m 1
 1008 326 l 1
 1008 278 l 1
 960 278 l 1
 960 326 l 1
616.625 230 m 1
 624 230 l 1
 624 182 l 1
 597.330078125 182 l 1
 616.625 230 l 1
0 134 m 1
 48 134 l 1
 96 134 l 1
 144 134 l 1
 192 134 l 1
 240 134 l 1
 288 134 l 1
 336 134 l 1
 336 86 l 1
 336 38 l 1
 336 -10 l 1
 336 -58 l 1
 336 -68.166015625 l 1
 325.537109375 -70.7373046875 313.864257812 -72.029296875 300.97265625 -72.029296875 c 2
 288 -72.029296875 l 1
 288 -58 l 1
 288 -10 l 1
 288 38 l 1
 288 86 l 1
 240 86 l 1
 192 86 l 1
 144 86 l 1
 96 86 l 1
 48 86 l 1
 48 38 l 1
 48 -10 l 1
 48 -58 l 1
 48 -106 l 1
 48 -154 l 1
 96 -154 l 1
 144 -154 l 1
 192 -154 l 1
 235.71484375 -154 l 1
 235.71484375 -165.083984375 l 1
 324.5390625 -165.083984375 l 2
 328.422851562 -165.083984375 332.23828125 -165 336 -164.8515625 c 2
 336 -202 l 1
 288 -202 l 1
 240 -202 l 1
 192 -202 l 1
 144 -202 l 1
 96 -202 l 1
 48 -202 l 1
 0 -202 l 1
 0 -154 l 1
 0 -106 l 1
 0 -58 l 1
 0 -10 l 1
 0 38 l 1
 0 86 l 1
 0 134 l 1
578.037109375 134 m 1
 624 134 l 1
 624 86 l 1
 576 86 l 1
 558.7421875 86 l 1
 578.037109375 134 l 1
96 38 m 1
 144 38 l 1
 192 38 l 1
 240 38 l 1
 240 -10 l 1
 240 -58 l 1
 240 -72.029296875 l 1
 235.71484375 -72.029296875 l 1
 235.71484375 -106 l 1
 192 -106 l 1
 144 -106 l 1
 96 -106 l 1
 96 -58 l 1
 96 -10 l 1
 96 38 l 1
384 -10 m 1
 400.98828125 -10 l 1
 395.154296875 -21.0205078125 389.487304688 -30.1982421875 384 -37.439453125 c 1
 384 -10 l 1
864 -106 m 1
 912 -106 l 1
 912 -154 l 1
 864 -154 l 1
 864 -106 l 1
960 -106 m 1
 1008 -106 l 1
 1008 -154 l 1
 960 -154 l 1
 960 -106 l 1
EndSplineSet
EndChar

StartChar: z
Encoding: 122 122 25
Width: 1092
VWidth: 1056
Flags: HW
LayerCount: 2
Fore
SplineSet
0 806 m 1
 48 806 l 1
 96 806 l 1
 144 806 l 1
 192 806 l 1
 240 806 l 1
 288 806 l 1
 336 806 l 1
 336 758 l 1
 336 710 l 1
 336 662 l 1
 336 640.37890625 l 1
 288 640.37890625 l 1
 288 662 l 1
 288 710 l 1
 288 758 l 1
 240 758 l 1
 192 758 l 1
 144 758 l 1
 96 758 l 1
 48 758 l 1
 48 710 l 1
 48 662 l 1
 48 614 l 1
 48 566 l 1
 48 518 l 1
 96 518 l 1
 144 518 l 1
 192 518 l 1
 240 518 l 1
 288 518 l 1
 288 551.5546875 l 1
 336 551.5546875 l 1
 336 518 l 1
 336 470 l 1
 288 470 l 1
 240 470 l 1
 192 470 l 1
 144 470 l 1
 96 470 l 1
 48 470 l 1
 0 470 l 1
 0 518 l 1
 0 566 l 1
 0 614 l 1
 0 662 l 1
 0 710 l 1
 0 758 l 1
 0 806 l 1
384 806 m 1
 432 806 l 1
 480 806 l 1
 480 758 l 1
 432 758 l 1
 432 710 l 1
 384 710 l 1
 384 758 l 1
 384 806 l 1
480 758 m 1
 528 758 l 1
 528 806 l 1
 576 806 l 1
 624 806 l 1
 624 758 l 1
 576 758 l 1
 576 710 l 1
 576 662 l 1
 528 662 l 1
 528 710 l 1
 480 710 l 1
 480 758 l 1
528 662 m 1
 528 640.37890625 l 1
 480 640.37890625 l 1
 480 662 l 1
 528 662 l 1
672 806 m 1
 720 806 l 1
 768 806 l 1
 816 806 l 1
 864 806 l 1
 912 806 l 1
 960 806 l 1
 1008 806 l 1
 1008 758 l 1
 1008 710 l 1
 1008 662 l 1
 1008 614 l 1
 1008 566 l 1
 1008 518 l 1
 1008 470 l 1
 960 470 l 1
 912 470 l 1
 864 470 l 1
 816 470 l 1
 768 470 l 1
 720 470 l 1
 714.41015625 470 l 1
 755.673828125 518 l 1
 768 518 l 1
 816 518 l 1
 864 518 l 1
 912 518 l 1
 960 518 l 1
 960 566 l 1
 960 614 l 1
 960 662 l 1
 960 710 l 1
 960 758 l 1
 912 758 l 1
 864 758 l 1
 816 758 l 1
 768 758 l 1
 720 758 l 1
 720 710 l 1
 720 662 l 1
 720 640.37890625 l 1
 672 640.37890625 l 1
 672 662 l 1
 672 710 l 1
 672 758 l 1
 672 806 l 1
96 710 m 1
 144 710 l 1
 192 710 l 1
 240 710 l 1
 240 662 l 1
 240 614 l 1
 240 566 l 1
 192 566 l 1
 144 566 l 1
 96 566 l 1
 96 614 l 1
 96 662 l 1
 96 710 l 1
768 710 m 1
 816 710 l 1
 864 710 l 1
 912 710 l 1
 912 662 l 1
 912 614 l 1
 912 566 l 1
 864 566 l 1
 816 566 l 1
 773.609375 566 l 1
 773.609375 640.37890625 l 1
 768 640.37890625 l 1
 768 662 l 1
 768 710 l 1
384 662 m 1
 432 662 l 1
 432 640.37890625 l 1
 384 640.37890625 l 1
 384 662 l 1
480 551.5546875 m 1
 624 551.5546875 l 1
 624 523.01953125 l 1
 528 411.34375 l 1
 528 422 l 1
 528 470 l 1
 576 470 l 1
 576 518 l 1
 528 518 l 1
 528 470 l 1
 480 470 l 1
 480 518 l 1
 480 551.5546875 l 1
384 518 m 1
 432 518 l 1
 432 470 l 1
 432 422 l 1
 384 422 l 1
 384 470 l 1
 384 518 l 1
432 422 m 1
 480 422 l 1
 480 374 l 1
 432 374 l 1
 432 422 l 1
480 374 m 1
 495.8984375 374 l 1
 480 355.50390625 l 1
 480 374 l 1
384 422 m 1
 384 374 l 1
 384 326 l 1
 432 326 l 1
 432 299.666015625 l 1
 330.8515625 182 l 1
 288 182 l 1
 240 182 l 1
 192 182 l 1
 192 230 l 1
 240 230 l 1
 240 278 l 1
 288 278 l 1
 288 230 l 1
 336 230 l 1
 336 278 l 1
 288 278 l 1
 288 326 l 1
 336 326 l 1
 336 374 l 1
 288 374 l 1
 240 374 l 1
 240 422 l 1
 288 422 l 1
 336 422 l 1
 384 422 l 1
192 230 m 1
 144 230 l 1
 144 182 l 1
 96 182 l 1
 48 182 l 1
 48 230 l 1
 96 230 l 1
 96 278 l 1
 144 278 l 1
 144 326 l 1
 192 326 l 1
 192 374 l 1
 240 374 l 1
 240 326 l 1
 240 278 l 1
 192 278 l 1
 192 230 l 1
192 374 m 1
 144 374 l 1
 96 374 l 1
 96 422 l 1
 144 422 l 1
 192 422 l 1
 192 374 l 1
96 374 m 1
 96 326 l 1
 48 326 l 1
 48 374 l 1
 96 374 l 1
48 374 m 1
 0 374 l 1
 0 422 l 1
 48 422 l 1
 48 374 l 1
673.1484375 422 m 1
 720 422 l 1
 720 374 l 1
 720 326 l 1
 672 326 l 1
 624 326 l 1
 590.625 326 l 1
 631.88671875 374 l 1
 672 374 l 1
 672 420.6640625 l 1
 673.1484375 422 l 1
816 422 m 1
 864 422 l 1
 864 374 l 1
 864 326 l 1
 912 326 l 1
 912 278 l 1
 960 278 l 1
 960 326 l 1
 1008 326 l 1
 1008 278 l 1
 1008 230 l 1
 1008 182 l 1
 960 182 l 1
 960 230 l 1
 912 230 l 1
 912 182 l 1
 864 182 l 1
 864 230 l 1
 816 230 l 1
 768 230 l 1
 768 182 l 1
 720 182 l 1
 720 230 l 1
 672 230 l 1
 672 278 l 1
 720 278 l 1
 768 278 l 1
 816 278 l 1
 816 326 l 1
 816 374 l 1
 816 422 l 1
960 182 m 1
 960 134 l 1
 912 134 l 1
 912 182 l 1
 960 182 l 1
864 182 m 1
 864 134 l 1
 864 86 l 1
 816 86 l 1
 816 134 l 1
 816 182 l 1
 864 182 l 1
864 86 m 1
 912 86 l 1
 960 86 l 1
 960 38 l 1
 912 38 l 1
 864 38 l 1
 864 86 l 1
960 38 m 1
 1008 38 l 1
 1008 -10 l 1
 960 -10 l 1
 960 38 l 1
960 -10 m 1
 960 -58 l 1
 912 -58 l 1
 864 -58 l 1
 816 -58 l 1
 768 -58 l 1
 768 -106 l 1
 768 -154 l 1
 720 -154 l 1
 720 -106 l 1
 672 -106 l 1
 672 -58 l 1
 672 -36.37890625 l 1
 773.609375 -36.37890625 l 1
 773.609375 52.4453125 l 1
 720 52.4453125 l 1
 720 86 l 1
 720 134 l 1
 768 134 l 1
 768 86 l 1
 816 86 l 1
 816 38 l 1
 816 -10 l 1
 864 -10 l 1
 912 -10 l 1
 960 -10 l 1
768 -154 m 1
 816 -154 l 1
 816 -202 l 1
 768 -202 l 1
 768 -154 l 1
672 -106 m 1
 672 -154 l 1
 672 -202 l 1
 624 -202 l 1
 624 -154 l 1
 624 -106 l 1
 672 -106 l 1
624 -106 m 1
 576 -106 l 1
 576 -58 l 1
 624 -58 l 1
 624 -106 l 1
576 -58 m 1
 528 -58 l 1
 528 -36.37890625 l 1
 576 -36.37890625 l 1
 576 -58 l 1
528 -58 m 1
 528 -106 l 1
 528 -154 l 1
 528 -202 l 1
 480 -202 l 1
 432 -202 l 1
 384 -202 l 1
 384 -154 l 1
 432 -154 l 1
 432 -106 l 1
 384 -106 l 1
 384 -58 l 1
 384 -36.37890625 l 1
 432 -36.37890625 l 1
 432 -58 l 1
 480 -58 l 1
 528 -58 l 1
720 134 m 1
 672 134 l 1
 672 182 l 1
 720 182 l 1
 720 134 l 1
912 422 m 1
 960 422 l 1
 1008 422 l 1
 1008 374 l 1
 960 374 l 1
 912 374 l 1
 912 422 l 1
576 308.986328125 m 1
 576 278 l 1
 576 230 l 1
 528 230 l 1
 528 253.1484375 l 1
 576 308.986328125 l 1
576 230 m 1
 624 230 l 1
 624 182 l 1
 576 182 l 1
 576 230 l 1
576 182 m 1
 576 134 l 1
 624 134 l 1
 624 86 l 1
 576 86 l 1
 528 86 l 1
 528 52.4453125 l 1
 480 52.4453125 l 1
 480 86 l 1
 432 86 l 1
 432 52.4453125 l 1
 384 52.4453125 l 1
 384 85.6328125 l 1
 480 197.310546875 l 1
 480 182 l 1
 480 134 l 1
 528 134 l 1
 528 182 l 1
 576 182 l 1
0 134 m 1
 48 134 l 1
 96 134 l 1
 144 134 l 1
 192 134 l 1
 240 134 l 1
 288 134 l 1
 289.58984375 134 l 1
 248.326171875 86 l 1
 240 86 l 1
 192 86 l 1
 144 86 l 1
 96 86 l 1
 48 86 l 1
 48 38 l 1
 48 -10 l 1
 48 -58 l 1
 48 -106 l 1
 48 -154 l 1
 96 -154 l 1
 144 -154 l 1
 192 -154 l 1
 240 -154 l 1
 288 -154 l 1
 288 -106 l 1
 288 -58 l 1
 288 -36.37890625 l 1
 336 -36.37890625 l 1
 336 -58 l 1
 336 -106 l 1
 336 -154 l 1
 336 -202 l 1
 288 -202 l 1
 240 -202 l 1
 192 -202 l 1
 144 -202 l 1
 96 -202 l 1
 48 -202 l 1
 0 -202 l 1
 0 -154 l 1
 0 -106 l 1
 0 -58 l 1
 0 -10 l 1
 0 38 l 1
 0 86 l 1
 0 134 l 1
96 38 m 1
 144 38 l 1
 192 38 l 1
 230.390625 38 l 1
 230.390625 -36.37890625 l 1
 240 -36.37890625 l 1
 240 -58 l 1
 240 -106 l 1
 192 -106 l 1
 144 -106 l 1
 96 -106 l 1
 96 -58 l 1
 96 -10 l 1
 96 38 l 1
864 -106 m 1
 912 -106 l 1
 912 -154 l 1
 864 -154 l 1
 864 -106 l 1
960 -106 m 1
 1008 -106 l 1
 1008 -154 l 1
 960 -154 l 1
 960 -106 l 1
EndSplineSet
EndChar

